mtllib Candle_LOD2.mtl
v 0.0304 0.2205 0.0124
v 0.0537 0.2277 -0.0253
v 0.0108 0.2213 -0.0360
v 0.0108 0.2021 0.0372
v 0.0369 0.2171 0.0390
v -0.0034 0.2160 -0.0640
v -0.0303 0.2147 -0.0290
v -0.0029 0.0100 -0.0451
v 0.0380 0.0102 -0.0190
v 0.0292 0.0026 -0.0753
v -0.0350 0.0114 0.0296
v -0.0194 0.0117 0.0372
v -0.0190 0.0647 0.0371
v -0.0402 0.1998 0.0154
v -0.0611 0.1985 -0.0017
v -0.0034 0.1387 -0.0458
v 0.0277 0.0099 0.0292
v -0.0021 0.1104 0.0437
v -0.0031 0.0099 0.0409
v -0.0428 0.0096 -0.0179
v -0.0443 0.0506 0.0166
v -0.0447 0.0976 -0.0019
v -0.0334 0.1054 -0.0330
v -0.0035 0.1780 -0.0473
v -0.0506 0.1255 -0.0005
v -0.0426 0.1066 -0.0179
v -0.0495 0.0822 0.0187
v -0.0419 0.0116 0.0208
v -0.0353 0.0616 0.0313
v 0.0396 0.1477 0.0164
v -0.0018 0.1506 0.0445
v 0.0392 0.1094 -0.0019
v 0.0289 0.1459 -0.0325
v -0.0037 0.1937 -0.0656
v -0.0342 0.1673 -0.0330
v -0.0600 0.1779 -0.0239
v -0.0046 0.1927 -0.0402
v 0.0228 0.1929 -0.0279
v 0.0343 0.1926 0.0001
v -0.0153 0.0008 0.0836
v -0.0818 0.0012 -0.0316
v -0.0333 0.0098 -0.0318
v -0.0395 0.0013 -0.0753
v 0.0568 0.0023 0.0579
v -0.1026 0.0012 0.0438
v -0.0371 0.0774 -0.0234
v 0.0937 0.0009 -0.0395
v 0.0986 0.0028 0.0008
v -0.0541 0.2040 0.0334
v 0.0526 0.1910 -0.0018
v -0.0531 0.1636 0.0183
v -0.0404 0.1564 0.0373
v 0.0312 0.1729 0.0325
v 0.0194 0.1937 0.0550
v 0.0202 0.1931 -0.0617
v 0.0404 0.2230 -0.0461
v 0.0503 0.1941 -0.0238
v 0.0536 0.1928 0.0223
v 0.0593 0.2228 -0.0011
v -0.0044 0.1772 0.0605
v -0.0038 0.2072 0.0614
v -0.0489 0.2166 -0.0453
v -0.0473 0.1930 -0.0474
vn -0.6678 0.7391 -0.0880
vn -0.3872 0.7544 0.5300
vn 0.6833 0.6742 -0.2802
vn -0.6678 0.7391 -0.0880
vn 0.3016 0.7359 0.6061
vn -0.4633 0.6303 -0.6229
vn -0.3872 0.7544 0.5300
vn 0.2817 0.8018 0.5269
vn -0.3152 0.6079 -0.7287
vn 0.0022 0.6699 -0.7424
vn 0.1856 0.8566 -0.4815
vn 0.6511 0.7024 -0.2874
vn 0.1578 0.5126 0.8440
vn 0.2460 -0.1592 0.9561
vn -0.2467 0.6037 0.7581
vn 0.5098 0.7862 -0.3492
vn -0.8247 0.5579 0.0929
vn 0.2817 0.8018 0.5269
vn 0.0022 0.6699 -0.7424
vn 0.6511 0.7024 -0.2874
vn 0.1682 -0.3742 -0.9119
vn 0.5105 0.6855 0.5191
vn 0.0016 0.6743 0.7384
vn 0.4577 -0.3356 0.8233
vn -0.2467 0.6037 0.7581
vn 0.2460 -0.1592 0.9561
vn 0.0016 0.6743 0.7384
vn -0.6733 0.6833 -0.2823
vn -0.5743 -0.4841 -0.6601
vn -0.9734 -0.1728 -0.1505
vn -0.3264 -0.2528 -0.9108
vn 0.1682 -0.3742 -0.9119
vn 0.0305 -0.5283 -0.8485
vn -0.5743 -0.4841 -0.6601
vn -0.9342 -0.3516 -0.0592
vn -0.7286 -0.2729 -0.6282
vn -0.9734 -0.1728 -0.1505
vn -0.5743 -0.4841 -0.6601
vn -0.8509 -0.4726 -0.2294
vn -0.5241 0.8516 -0.0079
vn -0.9734 -0.1728 -0.1505
vn -0.6286 -0.1715 0.7585
vn 0.4577 -0.3356 0.8233
vn 0.6287 -0.4492 0.6347
vn 0.6552 -0.3905 0.6466
vn 0.9277 -0.2354 0.2896
vn 0.6552 -0.3905 0.6466
vn 0.4050 -0.4098 -0.8173
vn 0.1682 -0.3742 -0.9119
vn 0.4050 -0.4098 -0.8173
vn 0.0305 -0.5283 -0.8485
vn -0.0844 -0.0535 -0.9950
vn -0.5938 -0.4707 -0.6525
vn 0.0305 -0.5283 -0.8485
vn -0.6404 -0.6250 -0.4463
vn -0.7286 -0.2729 -0.6282
vn -0.5938 -0.4707 -0.6525
vn -0.3872 0.7544 0.5300
vn 0.0000 0.7500 0.6614
vn 0.2817 0.8018 0.5269
vn -0.6678 0.7391 -0.0880
vn -0.4677 0.7500 0.4677
vn -0.3872 0.7544 0.5300
vn 0.2817 0.8018 0.5269
vn 0.0000 0.7500 0.6614
vn 0.5098 0.7862 -0.3492
vn -0.6614 0.7500 0.0000
vn -0.4677 0.7500 0.4677
vn -0.6678 0.7391 -0.0880
vn 0.5105 0.6855 0.5191
vn 0.9277 -0.2354 0.2896
vn 0.6511 0.7024 -0.2874
vn -0.1334 0.8915 0.4329
vn -0.1424 0.8227 0.5503
vn -0.2467 0.6037 0.7581
vn -0.3688 0.9169 -0.1527
vn -0.1628 0.8915 -0.4227
vn -0.5181 0.6811 -0.5173
vn 0.5105 0.6855 0.5191
vn 0.3393 0.8631 0.3739
vn 0.0016 0.6743 0.7384
vn -0.4082 0.9108 0.0615
vn -0.3688 0.9169 -0.1527
vn -0.6733 0.6833 -0.2823
vn -0.4082 0.9108 0.0615
vn -0.6733 0.6833 -0.2823
vn -0.5241 0.8516 -0.0079
vn -0.5181 0.6811 -0.5173
vn -0.3264 -0.2528 -0.9108
vn -0.6992 -0.4801 -0.5297
vn -0.6733 0.6833 -0.2823
vn -0.6992 -0.4801 -0.5297
vn -0.4157 -0.7954 -0.4411
vn 0.4444 0.8245 -0.3501
vn 0.5407 0.8281 0.1480
vn 0.6511 0.7024 -0.2874
vn -0.5241 0.8516 -0.0079
vn -0.6286 -0.1715 0.7585
vn -0.1424 0.8227 0.5503
vn -0.4633 0.6303 -0.6229
vn -0.4325 0.6503 0.6245
vn 0.5098 0.7862 -0.3492
vn -0.6733 0.6833 -0.2823
vn -0.9734 -0.1728 -0.1505
vn -0.5241 0.8516 -0.0079
vn 0.6552 -0.3905 0.6466
vn 0.6311 -0.7749 -0.0350
vn 0.4050 -0.4098 -0.8173
vn -0.8509 -0.4726 -0.2294
vn -0.7286 -0.2729 -0.6282
vn -0.6396 -0.7662 -0.0615
vn -0.6286 -0.1715 0.7585
vn -0.8509 -0.4726 -0.2294
vn -0.6608 -0.7327 0.1626
vn 0.4577 -0.3356 0.8233
vn -0.6608 -0.7327 0.1626
vn 0.6287 -0.4492 0.6347
vn 0.6287 -0.4492 0.6347
vn 0.5384 -0.5240 0.6599
vn 0.6387 -0.2912 0.7121
vn 0.6552 -0.3905 0.6466
vn 0.6387 -0.2912 0.7121
vn 0.6311 -0.7749 -0.0350
vn 0.4050 -0.4098 -0.8173
vn 0.3265 -0.6235 -0.7104
vn -0.0844 -0.0535 -0.9950
vn -0.0844 -0.0535 -0.9950
vn 0.3265 -0.6235 -0.7104
vn -0.3152 0.6079 -0.7287
vn 0.3265 -0.6235 -0.7104
vn 0.6539 -0.7016 -0.2831
vn 0.4746 0.6245 -0.6202
vn 0.6626 -0.6502 0.3717
vn 0.7652 0.6308 0.1283
vn 0.6311 -0.7749 -0.0350
vn 0.5384 -0.5240 0.6599
vn 0.3016 0.7359 0.6061
vn 0.6626 -0.6502 0.3717
vn 0.1785 -0.6146 0.7683
vn -0.1848 0.6896 0.7002
vn 0.5384 -0.5240 0.6599
vn -0.6608 -0.7327 0.1626
vn -0.6396 -0.7662 -0.0615
vn -0.4325 0.6503 0.6245
vn -0.6396 -0.7662 -0.0615
vn -0.6404 -0.6250 -0.4463
vn -0.8247 0.5579 0.0929
vn -0.6404 -0.6250 -0.4463
vn -0.4204 -0.5018 -0.7559
vn -0.4625 0.7400 -0.4883
vn -0.4204 -0.5018 -0.7559
vn -0.0844 -0.0535 -0.9950
vn -0.3152 0.6079 -0.7287
vn 0.6311 -0.7749 -0.0350
vn 0.7652 0.6308 0.1283
vn 0.6539 -0.7016 -0.2831
vn 0.1785 -0.6146 0.7683
vn -0.6608 -0.7327 0.1626
vn -0.4325 0.6503 0.6245
vn -0.5181 0.6811 -0.5173
vn -0.6992 -0.4801 -0.5297
vn -0.6733 0.6833 -0.2823
vn 0.5098 0.7862 -0.3492
vn -0.6614 0.7500 0.0000
vn -0.4633 0.6303 -0.6229
vn -0.1424 0.8227 0.5503
vn -0.6286 -0.1715 0.7585
vn 0.2460 -0.1592 0.9561
vn -0.1424 0.8227 0.5503
vn -0.1334 0.8915 0.4329
vn -0.4082 0.9108 0.0615
vn -0.1424 0.8227 0.5503
vn -0.4082 0.9108 0.0615
vn -0.5241 0.8516 -0.0079
vn -0.5181 0.6811 -0.5173
vn 0.0022 0.6699 -0.7424
vn -0.3264 -0.2528 -0.9108
vn -0.3872 0.7544 0.5300
vn 0.4746 0.6245 -0.6202
vn 0.6833 0.6742 -0.2802
vn 0.3016 0.7359 0.6061
vn -0.1848 0.6896 0.7002
vn -0.4633 0.6303 -0.6229
vn -0.3264 -0.2528 -0.9108
vn -0.9342 -0.3516 -0.0592
vn -0.6992 -0.4801 -0.5297
vn 0.2817 0.8018 0.5269
vn -0.4625 0.7400 -0.4883
vn -0.3152 0.6079 -0.7287
vn 0.1856 0.8566 -0.4815
vn 0.4444 0.8245 -0.3501
vn 0.6511 0.7024 -0.2874
vn -0.6678 0.7391 -0.0880
vn 0.7652 0.6308 0.1283
vn 0.3016 0.7359 0.6061
vn -0.4633 0.6303 -0.6229
vn -0.1848 0.6896 0.7002
vn -0.4325 0.6503 0.6245
vn -0.8247 0.5579 0.0929
vn -0.4625 0.7400 -0.4883
vn 0.2817 0.8018 0.5269
vn -0.6678 0.7391 -0.0880
vn 0.6833 0.6742 -0.2802
vn 0.7652 0.6308 0.1283
vn 0.6511 0.7024 -0.2874
vn 0.4050 -0.4098 -0.8173
vn 0.1682 -0.3742 -0.9119
vn 0.9277 -0.2354 0.2896
vn 0.4050 -0.4098 -0.8173
vn 0.6511 0.7024 -0.2874
vn 0.5105 0.6855 0.5191
vn 0.6552 -0.3905 0.6466
vn 0.9277 -0.2354 0.2896
vn 0.4577 -0.3356 0.8233
vn 0.6552 -0.3905 0.6466
vn 0.5105 0.6855 0.5191
vn 0.2460 -0.1592 0.9561
vn 0.4577 -0.3356 0.8233
vn 0.0016 0.6743 0.7384
vn -0.6733 0.6833 -0.2823
vn -0.4157 -0.7954 -0.4411
vn -0.5743 -0.4841 -0.6601
vn -0.9342 -0.3516 -0.0592
vn -0.3264 -0.2528 -0.9108
vn -0.5938 -0.4707 -0.6525
vn 0.0022 0.6699 -0.7424
vn 0.1682 -0.3742 -0.9119
vn -0.3264 -0.2528 -0.9108
vn -0.3872 0.7544 0.5300
vn -0.3152 0.6079 -0.7287
vn 0.4746 0.6245 -0.6202
vn -0.3264 -0.2528 -0.9108
vn 0.0305 -0.5283 -0.8485
vn -0.5938 -0.4707 -0.6525
vn -0.9342 -0.3516 -0.0592
vn -0.5938 -0.4707 -0.6525
vn -0.7286 -0.2729 -0.6282
vn -0.5743 -0.4841 -0.6601
vn -0.7286 -0.2729 -0.6282
vn -0.8509 -0.4726 -0.2294
vn -0.9734 -0.1728 -0.1505
vn -0.8509 -0.4726 -0.2294
vn -0.6286 -0.1715 0.7585
vn 0.6287 -0.4492 0.6347
vn 0.6387 -0.2912 0.7121
vn 0.6552 -0.3905 0.6466
vn 0.5384 -0.5240 0.6599
vn 0.6626 -0.6502 0.3717
vn 0.6311 -0.7749 -0.0350
vn 0.4050 -0.4098 -0.8173
vn -0.0844 -0.0535 -0.9950
vn 0.0305 -0.5283 -0.8485
vn -0.6614 0.7500 0.0000
vn 0.5098 0.7862 -0.3492
vn 0.0000 0.7500 0.6614
vn -0.6614 0.7500 0.0000
vn -0.6678 0.7391 -0.0880
vn -0.4633 0.6303 -0.6229
vn -0.4677 0.7500 0.4677
vn 0.0000 0.7500 0.6614
vn -0.3872 0.7544 0.5300
vn -0.1628 0.8915 -0.4227
vn 0.0022 0.6699 -0.7424
vn -0.5181 0.6811 -0.5173
vn 0.3393 0.8631 0.3739
vn -0.1334 0.8915 0.4329
vn 0.0016 0.6743 0.7384
vn -0.1628 0.8915 -0.4227
vn 0.1856 0.8566 -0.4815
vn 0.0022 0.6699 -0.7424
vn 0.5407 0.8281 0.1480
vn 0.3393 0.8631 0.3739
vn 0.5105 0.6855 0.5191
vn -0.1334 0.8915 0.4329
vn -0.2467 0.6037 0.7581
vn 0.0016 0.6743 0.7384
vn -0.3688 0.9169 -0.1527
vn -0.5181 0.6811 -0.5173
vn -0.6733 0.6833 -0.2823
vn 0.5407 0.8281 0.1480
vn 0.5105 0.6855 0.5191
vn 0.6511 0.7024 -0.2874
vn 0.5098 0.7862 -0.3492
vn -0.4325 0.6503 0.6245
vn -0.8247 0.5579 0.0929
vn 0.6311 -0.7749 -0.0350
vn 0.6539 -0.7016 -0.2831
vn 0.4050 -0.4098 -0.8173
vn -0.0844 -0.0535 -0.9950
vn -0.4204 -0.5018 -0.7559
vn -0.5938 -0.4707 -0.6525
vn -0.5938 -0.4707 -0.6525
vn -0.4204 -0.5018 -0.7559
vn -0.6404 -0.6250 -0.4463
vn -0.7286 -0.2729 -0.6282
vn -0.6404 -0.6250 -0.4463
vn -0.6396 -0.7662 -0.0615
vn -0.8509 -0.4726 -0.2294
vn -0.6396 -0.7662 -0.0615
vn -0.6608 -0.7327 0.1626
vn -0.6608 -0.7327 0.1626
vn 0.1785 -0.6146 0.7683
vn 0.6287 -0.4492 0.6347
vn 0.1785 -0.6146 0.7683
vn 0.5384 -0.5240 0.6599
vn 0.6287 -0.4492 0.6347
vn 0.6387 -0.2912 0.7121
vn 0.5384 -0.5240 0.6599
vn 0.6311 -0.7749 -0.0350
vn 0.6539 -0.7016 -0.2831
vn 0.3265 -0.6235 -0.7104
vn 0.4050 -0.4098 -0.8173
vn 0.3265 -0.6235 -0.7104
vn 0.4746 0.6245 -0.6202
vn -0.3152 0.6079 -0.7287
vn 0.6539 -0.7016 -0.2831
vn 0.6833 0.6742 -0.2802
vn 0.4746 0.6245 -0.6202
vn 0.3016 0.7359 0.6061
vn 0.7652 0.6308 0.1283
vn 0.6626 -0.6502 0.3717
vn -0.1848 0.6896 0.7002
vn 0.3016 0.7359 0.6061
vn 0.5384 -0.5240 0.6599
vn -0.4325 0.6503 0.6245
vn -0.1848 0.6896 0.7002
vn 0.1785 -0.6146 0.7683
vn -0.8247 0.5579 0.0929
vn -0.4325 0.6503 0.6245
vn -0.6396 -0.7662 -0.0615
vn -0.6404 -0.6250 -0.4463
vn -0.4625 0.7400 -0.4883
vn -0.8247 0.5579 0.0929
vn -0.3152 0.6079 -0.7287
vn -0.4625 0.7400 -0.4883
vn -0.4204 -0.5018 -0.7559
vn 0.7652 0.6308 0.1283
vn 0.6833 0.6742 -0.2802
vn 0.6539 -0.7016 -0.2831
vn -0.6614 0.7500 0.0000
vn 0.0000 0.7500 0.6614
vn -0.4677 0.7500 0.4677
vn -0.6286 -0.1715 0.7585
vn 0.4577 -0.3356 0.8233
vn 0.2460 -0.1592 0.9561
vn 0.4577 -0.3356 0.8233
vn -0.6286 -0.1715 0.7585
vn -0.6608 -0.7327 0.1626
vt 0.6082 0.1692 
vt 0.5010 0.2135 
vt 0.5857 0.2675 
vt 0.6082 0.1692 
vt 0.6591 0.1369 
vt 0.6080 0.1045 
vt 0.5010 0.2135 
vt 0.4505 0.1374 
vt 0.4323 0.2354 
vt 0.1372 0.3094 
vt 0.1646 0.4042 
vt 0.2429 0.3035 
vt 0.2942 0.6613 
vt 0.3315 0.7813 
vt 0.3314 0.6611 
vt 0.5010 0.0602 
vt 0.4423 0.0444 
vt 0.4505 0.1374 
vt 0.6566 0.5522 
vt 0.5507 0.5527 
vt 0.6566 0.8439 
vt 0.4530 0.5543 
vt 0.3913 0.5519 
vt 0.3941 0.7793 
vt 0.3314 0.6611 
vt 0.3315 0.7813 
vt 0.3652 0.6564 
vt 0.0608 0.7000 
vt 0.0291 0.5012 
vt 0.0000 0.6084 
vt 0.8293 0.6540 
vt 0.7873 0.7595 
vt 0.8133 0.8357 
vt 0.8858 0.6183 
vt 0.8559 0.6515 
vt 0.9057 0.6766 
vt 0.6899 0.3648 
vt 0.6634 0.4718 
vt 0.6918 0.4410 
vt 0.7033 0.2775 
vt 0.6899 0.3648 
vt 0.7282 0.3919 
vt 0.9119 0.0000 
vt 0.8291 0.0000 
vt 0.8238 0.1033 
vt 0.9148 0.4616 
vt 0.8802 0.5408 
vt 0.9392 0.5651 
vt 0.5988 0.8676 
vt 0.5242 0.8856 
vt 0.5988 0.9480 
vt 0.9078 0.3532 
vt 0.9722 0.4258 
vt 0.9413 0.3541 
vt 0.3840 0.9738 
vt 0.3840 0.8654 
vt 0.3652 0.9687 
vt 0.7873 0.9515 
vt 0.8449 0.9499 
vt 0.7931 0.8982 
vt 0.8992 0.9078 
vt 0.8458 0.8357 
vt 0.8458 0.9077 
vt 0.7931 0.8982 
vt 0.8449 0.9499 
vt 0.8270 0.8361 
vt 0.8992 0.8359 
vt 0.8458 0.8357 
vt 0.8992 0.9078 
vt 0.4530 0.5543 
vt 0.5266 0.7774 
vt 0.5507 0.5527 
vt 0.2572 0.0547 
vt 0.1605 0.1296 
vt 0.1992 0.1335 
vt 0.0000 0.1942 
vt 0.0331 0.3253 
vt 0.0934 0.2513 
vt 0.2780 0.2037 
vt 0.3682 0.1768 
vt 0.2342 0.1455 
vt 0.0445 0.0305 
vt 0.0000 0.1942 
vt 0.0914 0.2142 
vt 0.0445 0.0305 
vt 0.0914 0.2142 
vt 0.1368 0.1398 
vt 0.0980 0.7002 
vt 0.0988 0.4832 
vt 0.0787 0.5467 
vt 0.0608 0.7000 
vt 0.0787 0.5467 
vt 0.0624 0.4791 
vt 0.3295 0.4090 
vt 0.3862 0.3381 
vt 0.2429 0.3035 
vt 0.7033 0.2775 
vt 0.7282 0.3919 
vt 0.7279 0.2776 
vt 0.6080 0.1045 
vt 0.5083 0.0047 
vt 0.5010 0.0602 
vt 0.9484 0.0956 
vt 0.9484 0.0000 
vt 0.9126 0.0805 
vt 0.4329 0.8668 
vt 0.4341 0.9419 
vt 0.4713 0.8715 
vt 0.7873 0.9137 
vt 0.7507 0.8172 
vt 0.6634 0.7687 
vt 0.7489 0.2355 
vt 0.7912 0.2137 
vt 0.7485 0.0409 
vt 0.7070 0.1243 
vt 0.7485 0.0409 
vt 0.6625 0.0566 
vt 0.9057 0.7614 
vt 1.0000 0.7267 
vt 0.9551 0.6815 
vt 0.9225 0.5949 
vt 0.9551 0.6815 
vt 0.9975 0.5931 
vt 0.8164 0.2281 
vt 0.8583 0.1847 
vt 0.8556 0.1416 
vt 0.8802 0.5920 
vt 0.8794 0.5419 
vt 0.8265 0.5890 
vt 0.8794 0.5419 
vt 0.8802 0.4360 
vt 0.8113 0.4837 
vt 0.9681 0.9111 
vt 0.9127 0.9733 
vt 0.9793 0.9595 
vt 0.9489 0.8076 
vt 0.9057 0.8704 
vt 0.9681 0.9111 
vt 0.9793 0.7614 
vt 0.9110 0.7739 
vt 0.9489 0.8076 
vt 0.8036 0.4090 
vt 0.8227 0.4329 
vt 0.9063 0.4041 
vt 0.3023 0.4090 
vt 0.3088 0.4952 
vt 0.3649 0.4641 
vt 0.3088 0.4952 
vt 0.3320 0.5612 
vt 0.3858 0.5672 
vt 0.3320 0.5612 
vt 0.3128 0.6497 
vt 0.3664 0.6564 
vt 0.4329 0.9446 
vt 0.4319 0.8765 
vt 0.3913 0.9446 
vt 0.8383 0.2818 
vt 0.8036 0.4090 
vt 0.9063 0.4041 
vt 0.0980 0.7002 
vt 0.0787 0.5467 
vt 0.0608 0.7000 
vt 0.2820 0.7763 
vt 0.1460 0.8674 
vt 0.2594 0.8900 
vt 0.7279 0.2776 
vt 0.7282 0.3919 
vt 0.7671 0.4067 
vt 0.1605 0.1296 
vt 0.2572 0.0547 
vt 0.0445 0.0305 
vt 0.1605 0.1296 
vt 0.0445 0.0305 
vt 0.1368 0.1398 
vt 0.0980 0.7002 
vt 0.1598 0.7010 
vt 0.0988 0.4832 
vt 0.5010 0.2135 
vt 0.5318 0.2775 
vt 0.5857 0.2675 
vt 0.6591 0.1369 
vt 0.6313 0.0359 
vt 0.6080 0.1045 
vt 0.8293 0.6540 
vt 0.8559 0.6515 
vt 0.8166 0.5969 
vt 0.4505 0.1374 
vt 0.3913 0.1362 
vt 0.4323 0.2354 
vt 0.1646 0.4042 
vt 0.3295 0.4090 
vt 0.2429 0.3035 
vt 0.6082 0.1692 
vt 0.6312 0.2366 
vt 0.6591 0.1369 
vt 0.6080 0.1045 
vt 0.6313 0.0359 
vt 0.5083 0.0047 
vt 0.4423 0.0444 
vt 0.3913 0.1362 
vt 0.4505 0.1374 
vt 0.6082 0.1692 
vt 0.5857 0.2675 
vt 0.6312 0.2366 
vt 0.5507 0.5527 
vt 0.5868 0.8622 
vt 0.6566 0.8439 
vt 0.5266 0.7774 
vt 0.5868 0.8622 
vt 0.5507 0.5527 
vt 0.4530 0.5543 
vt 0.4913 0.8668 
vt 0.5242 0.7779 
vt 0.3941 0.7793 
vt 0.4913 0.8668 
vt 0.4530 0.5543 
vt 0.3315 0.7813 
vt 0.3652 0.8845 
vt 0.3652 0.6564 
vt 0.0608 0.7000 
vt 0.0624 0.4791 
vt 0.0291 0.5012 
vt 0.8559 0.6515 
vt 0.8293 0.6540 
vt 0.8665 0.7913 
vt 0.1598 0.7010 
vt 0.1598 0.4090 
vt 0.0988 0.4832 
vt 0.5010 0.2135 
vt 0.4323 0.2354 
vt 0.5318 0.2775 
vt 0.8293 0.6540 
vt 0.8133 0.8357 
vt 0.8665 0.7913 
vt 0.8559 0.6515 
vt 0.8665 0.7913 
vt 0.9057 0.6766 
vt 0.6634 0.4718 
vt 0.6634 0.5334 
vt 0.6918 0.4410 
vt 0.6899 0.3648 
vt 0.6918 0.4410 
vt 0.7282 0.3919 
vt 0.8291 0.0000 
vt 0.7921 0.0645 
vt 0.8238 0.1033 
vt 0.5249 0.2775 
vt 0.4267 0.3184 
vt 0.4136 0.3710 
vt 0.9722 0.2858 
vt 0.9078 0.3532 
vt 0.9413 0.3541 
vt 0.1460 0.8674 
vt 0.2820 0.7763 
vt 0.1685 0.7537 
vt 0.9336 0.1388 
vt 0.8760 0.1680 
vt 0.9068 0.2299 
vt 0.5988 0.9342 
vt 0.6598 0.9341 
vt 0.6307 0.8738 
vt 0.0331 0.3253 
vt 0.1372 0.3094 
vt 0.0934 0.2513 
vt 0.3682 0.1768 
vt 0.2572 0.0547 
vt 0.2342 0.1455 
vt 0.0331 0.3253 
vt 0.1646 0.4042 
vt 0.1372 0.3094 
vt 0.3862 0.3381 
vt 0.3682 0.1768 
vt 0.2780 0.2037 
vt 0.2572 0.0547 
vt 0.1992 0.1335 
vt 0.2342 0.1455 
vt 0.0000 0.1942 
vt 0.0934 0.2513 
vt 0.0914 0.2142 
vt 0.3862 0.3381 
vt 0.2780 0.2037 
vt 0.2429 0.3035 
vt 0.5010 0.0602 
vt 0.5083 0.0047 
vt 0.4423 0.0444 
vt 0.4341 0.9419 
vt 0.4699 0.9419 
vt 0.4713 0.8715 
vt 0.7786 0.5931 
vt 0.7185 0.6431 
vt 0.7455 0.6668 
vt 0.7455 0.6668 
vt 0.7185 0.6431 
vt 0.7113 0.7140 
vt 0.7507 0.8172 
vt 0.7113 0.7140 
vt 0.6634 0.7687 
vt 0.7912 0.2137 
vt 0.7912 0.0230 
vt 0.7485 0.0409 
vt 0.7485 0.0409 
vt 0.6617 0.0000 
vt 0.6625 0.0566 
vt 0.9622 0.7614 
vt 1.0000 0.7267 
vt 0.9057 0.7614 
vt 0.9551 0.6815 
vt 1.0000 0.7267 
vt 0.9975 0.5931 
vt 0.8617 0.2760 
vt 0.8583 0.1847 
vt 0.8164 0.2281 
vt 0.8794 0.5419 
vt 0.8113 0.4837 
vt 0.8265 0.5890 
vt 0.8802 0.4360 
vt 0.8024 0.4329 
vt 0.8113 0.4837 
vt 0.9057 0.8704 
vt 0.9127 0.9733 
vt 0.9681 0.9111 
vt 0.9110 0.7739 
vt 0.9057 0.8704 
vt 0.9489 0.8076 
vt 0.9063 0.4041 
vt 0.9078 0.2775 
vt 0.8383 0.2818 
vt 0.3649 0.4641 
vt 0.3858 0.4256 
vt 0.3023 0.4090 
vt 0.3088 0.4952 
vt 0.3858 0.5672 
vt 0.3649 0.4641 
vt 0.3664 0.6564 
vt 0.3858 0.5672 
vt 0.3320 0.5612 
vt 0.4319 0.8765 
vt 0.3924 0.8668 
vt 0.3913 0.9446 
vt 0.1460 0.8674 
vt 0.1685 0.7537 
vt 0.1337 0.8059 
vt 0.7282 0.3919 
vt 0.8024 0.5101 
vt 0.7671 0.4067 
vt 0.7070 0.1243 
vt 0.7489 0.2355 
vt 0.7485 0.0409 
g Candle
usemtl Candle
f 2/3/3 3/2/2 1/1/1
f 4/6/6 5/5/5 1/4/4
f 6/9/9 7/8/8 3/7/7
f 9/12/12 10/11/11 8/10/10
f 12/15/15 13/14/14 11/13/13
f 7/18/18 15/17/17 14/16/16
f 16/21/21 9/20/20 8/19/19
f 18/24/24 19/23/23 17/22/22
f 19/27/27 13/26/26 12/25/25
f 21/30/30 22/29/29 20/28/28
f 24/33/33 16/32/32 23/31/31
f 25/36/36 26/35/35 22/34/34
f 27/39/39 22/38/38 21/37/37
f 29/42/42 21/41/41 28/40/40
f 30/45/45 31/44/44 18/43/43
f 33/48/48 30/47/47 32/46/46
f 24/51/51 33/50/50 16/49/49
f 24/54/54 35/53/53 34/52/52
f 35/57/57 25/56/56 36/55/55
f 7/60/60 37/59/59 3/58/58
f 3/63/63 38/62/62 1/61/61
f 14/66/66 37/65/65 7/64/64
f 1/69/69 38/68/68 39/67/67
f 9/72/72 32/71/71 17/70/70
f 12/75/75 11/74/74 40/73/73
f 42/78/78 43/77/77 41/76/76
f 19/81/81 44/80/80 17/79/79
f 20/84/84 41/83/83 45/82/82
f 28/87/87 20/86/86 45/85/85
f 46/90/90 23/89/89 42/88/88
f 26/93/93 46/92/92 20/91/91
f 9/96/96 48/95/95 47/94/94
f 11/99/99 29/98/98 28/97/97
f 14/102/102 49/101/101 4/100/100
f 28/105/105 21/104/104 20/103/103
f 33/108/108 50/107/107 30/106/106
f 51/111/111 25/110/110 27/109/109
f 52/114/114 27/113/113 29/112/112
f 31/117/117 52/116/116 18/115/115
f 53/120/120 54/119/119 31/118/118
f 50/123/123 53/122/122 30/121/121
f 34/126/126 55/125/125 33/124/124
f 6/129/129 55/128/128 34/127/127
f 56/132/132 57/131/131 55/130/130
f 50/135/135 59/134/134 58/133/133
f 58/138/138 5/137/137 54/136/136
f 54/141/141 61/140/140 60/139/139
f 49/144/144 51/143/143 52/142/142
f 15/147/147 36/146/146 51/145/145
f 62/150/150 63/149/149 36/148/148
f 6/153/153 34/152/152 63/151/151
f 57/156/156 59/155/155 50/154/154
f 49/159/159 52/158/158 60/157/157
f 20/162/162 46/161/161 42/160/160
f 4/165/165 39/164/164 14/163/163
f 13/168/168 29/167/167 11/166/166
f 45/171/171 40/170/170 11/169/169
f 28/174/174 45/173/173 11/172/172
f 23/177/177 8/176/176 42/175/175
f 2/180/180 56/179/179 3/178/178
f 4/183/183 61/182/182 5/181/181
f 46/186/186 26/185/185 23/184/184
f 6/189/189 62/188/188 7/187/187
f 9/192/192 47/191/191 10/190/190
f 5/195/195 59/194/194 1/193/193
f 49/198/198 61/197/197 4/196/196
f 7/201/201 62/200/200 15/199/199
f 59/204/204 2/203/203 1/202/202
f 16/207/207 33/206/206 9/205/205
f 9/210/210 33/209/209 32/208/208
f 32/213/213 30/212/212 17/211/211
f 17/216/216 30/215/215 18/214/214
f 19/219/219 18/218/218 13/217/217
f 22/222/222 26/221/221 20/220/220
f 35/225/225 23/224/224 26/223/223
f 23/228/228 16/227/227 8/226/226
f 56/231/231 6/230/230 3/229/229
f 35/234/234 24/233/233 23/232/232
f 25/237/237 35/236/236 26/235/235
f 27/240/240 25/239/239 22/238/238
f 29/243/243 27/242/242 21/241/241
f 30/246/246 53/245/245 31/244/244
f 50/249/249 58/248/248 54/247/247
f 24/252/252 34/251/251 33/250/250
f 37/255/255 14/254/254 39/253/253
f 4/258/258 1/257/257 39/256/256
f 3/261/261 37/260/260 38/259/259
f 42/264/264 8/263/263 43/262/262
f 19/267/267 40/266/266 44/265/265
f 8/270/270 10/269/269 43/268/268
f 17/273/273 44/272/272 48/271/271
f 19/276/276 12/275/275 40/274/274
f 20/279/279 42/278/278 41/277/277
f 9/282/282 17/281/281 48/280/280
f 15/285/285 49/284/284 14/283/283
f 33/288/288 57/287/287 50/286/286
f 35/291/291 63/290/290 34/289/289
f 36/294/294 63/293/293 35/292/292
f 51/297/297 36/296/296 25/295/295
f 52/300/300 51/299/299 27/298/298
f 31/303/303 60/302/302 52/301/301
f 31/306/306 54/305/305 60/304/304
f 50/309/309 54/308/308 53/307/307
f 33/312/312 55/311/311 57/310/310
f 6/315/315 56/314/314 55/313/313
f 56/318/318 2/317/317 57/316/316
f 58/321/321 59/320/320 5/319/319
f 54/324/324 5/323/323 61/322/322
f 60/327/327 61/326/326 49/325/325
f 51/330/330 49/329/329 15/328/328
f 15/333/333 62/332/332 36/331/331
f 63/336/336 62/335/335 6/334/334
f 57/339/339 2/338/338 59/337/337
f 38/342/342 37/341/341 39/340/340
f 13/345/345 18/344/344 29/343/343
f 52/348/348 29/347/347 18/346/346
