# Blender v2.78 (sub 0) OBJ File: 'Graveyard.blend'
# www.blender.org
mtllib Coffin.mtl
g CoffinLid
v -1.010302 0.845315 0.209414
v -1.010302 0.845315 -0.209414
v 1.010302 0.845315 0.239959
v 1.010302 0.845315 -0.239959
v 0.244865 0.845315 -0.374792
v 0.244865 0.845315 0.374792
v -0.999315 0.821942 0.205099
v -0.999315 0.821942 -0.205099
v 1.000685 0.821942 -0.235014
v 1.000685 0.821942 0.235014
v 0.239833 0.821942 0.367068
v 0.239833 0.821942 -0.367068
v 0.646238 0.845315 -0.136226
v 0.707931 0.845315 -0.136226
v 0.707931 0.845315 0.136226
v 0.646238 0.845315 0.136226
v 0.883276 0.845315 -0.038950
v 0.883276 0.845315 0.038950
v 0.357243 0.845315 -0.038950
v 0.357243 0.845315 0.038950
v 0.707931 0.845315 -0.038950
v 0.707931 0.845315 0.038950
v 0.646238 0.845315 -0.038950
v 0.646238 0.845315 0.038950
v 0.646238 0.861665 -0.136226
v 0.707931 0.861665 -0.136226
v 0.707931 0.861665 0.136226
v 0.646238 0.861665 0.136226
v 0.707931 0.861665 0.038950
v 0.646238 0.861665 0.038950
v 0.883276 0.861665 -0.038950
v 0.883276 0.861665 0.038950
v 0.357243 0.861665 -0.038950
v 0.357243 0.861665 0.038950
v 0.707931 0.861665 -0.038950
v 0.646238 0.861665 -0.038950
v 0.244865 0.810915 0.374792
v 0.239833 0.810915 0.367068
v 1.000685 0.810915 0.235014
v 1.010302 0.810915 0.239959
v 1.010302 0.810915 -0.239959
v 1.000685 0.810915 -0.235014
v 0.239833 0.810915 -0.367068
v 0.244865 0.810915 -0.374792
v -0.999315 0.810915 -0.205099
v -0.999315 0.810915 0.205099
v -1.010302 0.810915 -0.209414
v -1.010302 0.810915 0.209414
vt 0.0078 0.7102
vt 0.0078 0.8286
vt 0.0046 0.8286
vt 0.0046 0.7102
vt 0.3801 0.0127
vt 0.3819 0.0029
vt 0.6028 0.0419
vt 0.6011 0.0517
vt 0.3693 0.8722
vt 0.5890 0.8340
vt 0.5895 0.8372
vt 0.3698 0.8753
vt 0.3801 0.2291
vt 0.0177 0.1812
vt 0.0177 0.0603
vt 0.4960 0.1097
vt 0.4125 0.1096
vt 0.4960 0.0816
vt 0.6028 0.2000
vt 0.3818 0.2388
vt 0.6011 0.1902
vt 0.0078 0.1812
vt 0.0078 0.0603
vt 0.6110 0.1902
vt 0.6110 0.0517
vt 0.0165 0.0504
vt 0.3788 0.0028
vt 0.5890 0.6983
vt 0.3693 0.6602
vt 0.3698 0.6571
vt 0.5895 0.6952
vt 0.3655 0.6634
vt 0.0074 0.7070
vt 0.3651 0.6602
vt 0.4960 0.1602
vt 0.5138 0.1602
vt 0.5644 0.1322
vt 0.5644 0.1097
vt 0.5138 0.0816
vt 0.5138 0.1097
vt 0.5976 0.4225
vt 0.5976 0.3391
vt 0.6024 0.3391
vt 0.6024 0.4225
vt 0.5976 0.6483
vt 0.5976 0.6202
vt 0.6024 0.6202
vt 0.6024 0.6483
vt 0.5976 0.5696
vt 0.5976 0.5471
vt 0.6024 0.5471
vt 0.6024 0.5696
vt 0.5138 0.1322
vt 0.4125 0.1321
vt 0.4960 0.1321
vt 0.5976 0.4965
vt 0.5976 0.4684
vt 0.6024 0.4684
vt 0.6024 0.4965
vt 0.6026 0.2372
vt 0.5847 0.2372
vt 0.5847 0.2091
vt 0.6026 0.2091
vt 0.6026 0.2877
vt 0.5847 0.2877
vt 0.5847 0.2597
vt 0.6026 0.2597
vt 0.6532 0.2597
vt 0.6532 0.2372
vt 0.5013 0.2597
vt 0.5013 0.2372
vt 0.5976 0.4506
vt 0.6024 0.4506
vt 0.5976 0.6942
vt 0.5976 0.6661
vt 0.6024 0.6661
vt 0.6024 0.6942
vt 0.5976 0.7776
vt 0.6024 0.7776
vt 0.5976 0.3166
vt 0.6024 0.3166
vt 0.3655 0.8753
vt 0.0192 0.0484
vt 0.3769 0.0010
vt 0.0046 0.1799
vt 0.0046 0.0615
vt 0.3813 0.0003
vt 0.6007 0.0396
vt 0.6006 0.2023
vt 0.3812 0.2414
vt 0.6138 0.0531
vt 0.6138 0.1888
vt 0.3768 0.2407
vt 0.0191 0.1931
vt 0.0164 0.1910
vt 0.3788 0.2389
vt 0.3651 0.8785
vt 0.0074 0.8317
vt 0.5921 0.6983
vt 0.5921 0.8340
vn 1.0000 0.0000 0.0000
vn 0.1735 0.0000 0.9848
vn -0.1710 0.0000 -0.9853
vn 0.0000 1.0000 0.0000
vn 0.1735 0.0000 -0.9848
vn -1.0000 0.0000 0.0000
vn -0.1306 0.0000 0.9914
vn -0.1710 0.0000 0.9853
vn 0.1296 0.0000 0.9916
vn 0.0000 0.0000 -1.0000
vn 0.0000 0.0000 1.0000
vn 0.0000 -1.0000 0.0000
vn 0.1296 0.0000 -0.9916
vn -0.1306 0.0000 -0.9914
usemtl Coffin
s off
f 8/1/1 7/2/1 46/3/1 45/4/1
f 6/5/2 37/6/2 40/7/2 3/8/2
f 11/9/3 10/10/3 39/11/3 38/12/3
f 5/13/4 2/14/4 1/15/4 6/5/4
f 24/16/4 20/17/4 6/5/4 16/18/4
f 41/19/5 44/20/5 5/13/5 4/21/5
f 2/14/6 47/22/6 48/23/6 1/15/6
f 41/24/1 4/21/1 3/8/1 40/25/1
f 1/15/7 48/26/7 37/27/7 6/5/7
f 9/28/8 12/29/8 43/30/8 42/31/8
f 12/32/9 8/1/9 45/33/9 43/34/9
f 5/13/4 13/35/4 14/36/4 4/21/4
f 4/21/4 17/37/4 18/38/4 3/8/4
f 3/8/4 15/39/4 16/18/4 6/5/4
f 18/38/4 22/40/4 15/39/4 3/8/4
f 23/41/10 19/42/10 33/43/10 36/44/10
f 15/45/1 22/46/1 29/47/1 27/48/1
f 18/49/1 17/50/1 31/51/1 32/52/1
f 4/21/4 14/36/4 21/53/4 17/37/4
f 22/46/11 18/49/11 32/52/11 29/47/11
f 13/35/4 5/13/4 19/54/4 23/55/4
f 21/56/1 14/57/1 26/58/1 35/59/1
f 29/60/4 30/61/4 28/62/4 27/63/4
f 26/64/4 25/65/4 36/66/4 35/67/4
f 35/67/4 36/66/4 30/61/4 29/60/4
f 31/68/4 35/67/4 29/60/4 32/69/4
f 36/66/4 33/70/4 34/71/4 30/61/4
f 14/57/10 13/72/10 25/73/10 26/58/10
f 24/74/6 16/75/6 28/76/6 30/77/6
f 13/72/6 23/41/6 36/44/6 25/73/6
f 20/78/11 24/74/11 30/77/11 34/79/11
f 19/42/6 20/80/6 34/81/6 33/43/6
f 17/50/10 21/56/10 35/59/10 31/51/10
f 16/75/11 15/45/11 27/48/11 28/76/11
f 20/17/4 19/54/4 5/13/4 6/5/4
f 10/10/12 11/9/12 12/29/12 9/28/12
f 8/1/12 12/32/12 11/82/12 7/2/12
f 46/83/12 38/84/12 37/27/12 48/26/12
f 45/85/12 46/86/12 48/23/12 47/22/12
f 38/87/12 39/88/12 40/7/12 37/6/12
f 42/89/12 43/90/12 44/20/12 41/19/12
f 39/91/12 42/92/12 41/24/12 40/25/12
f 43/93/12 45/94/12 47/95/12 44/96/12
f 7/2/13 11/82/13 38/97/13 46/98/13
f 10/10/6 9/28/6 42/99/6 39/100/6
f 2/14/14 5/13/14 44/96/14 47/95/14
g Coffin
v -1.000000 0.000000 0.205099
v -1.000000 0.000000 -0.205099
v 1.000000 0.000000 0.235014
v 1.000000 0.000000 -0.235014
v 0.239148 0.000000 -0.367068
v 0.239148 0.000000 0.367068
v -1.000000 0.368732 0.205099
v -1.000000 0.368732 -0.205099
v 1.000000 0.368732 -0.235014
v 1.000000 0.368732 0.235014
v 0.239148 0.368732 0.367068
v 0.239148 0.368732 -0.367068
v -0.986844 0.368732 0.198423
v -0.986844 0.368732 -0.198423
v 0.989273 0.368732 -0.227364
v 0.989273 0.368732 0.227364
v 0.231364 0.368732 0.355120
v 0.231364 0.368732 -0.355120
v -0.986844 0.011137 0.198423
v -0.986844 0.011137 -0.198423
v 0.989273 0.011137 -0.227364
v 0.989273 0.011137 0.227364
v 0.231364 0.011137 0.355120
v 0.231364 0.011137 -0.355120
vt 0.3623 0.2420
vt 0.5820 0.2802
vt 0.5820 0.4159
vt 0.3623 0.4540
vt 0.0046 0.2888
vt 0.0046 0.4072
vt 0.9731 0.5954
vt 0.8666 0.5954
vt 0.8666 0.2346
vt 0.9731 0.2346
vt 0.7547 0.1440
vt 0.8611 0.1440
vt 0.8611 0.3669
vt 0.7547 0.3669
vt 0.8611 0.7277
vt 0.7547 0.7277
vt 0.7547 0.0083
vt 0.8611 0.0083
vt 0.8666 0.0117
vt 0.9731 0.0117
vt 0.9731 0.7139
vt 0.8666 0.7139
vt 0.2512 0.9973
vt 0.0288 0.9964
vt 0.0315 0.9937
vt 0.2534 0.9938
vt 0.7358 0.2730
vt 0.7366 0.4954
vt 0.7331 0.4975
vt 0.7331 0.2756
vt 0.6115 0.9961
vt 0.6079 0.9937
vt 0.7355 0.8556
vt 0.7331 0.8521
vt 0.7328 0.1074
vt 0.6144 0.1073
vt 0.6163 0.1035
vt 0.7309 0.1036
vt 0.6167 0.1131
vt 0.7524 0.1131
vt 0.7502 0.1162
vt 0.6189 0.1162
vt 0.6299 0.4975
vt 0.6299 0.2757
vt 0.2534 0.8906
vt 0.6079 0.8905
vt 0.6299 0.8521
vt 0.6164 0.0003
vt 0.7309 0.0003
vt 0.7502 0.2194
vt 0.6189 0.2194
vt 0.0315 0.8905
vt 0.5751 0.4915
vt 0.5751 0.6228
vt 0.3563 0.6596
vt 0.3563 0.4546
vt 0.0046 0.6144
vt 0.0046 0.4998
vn 0.0000 -1.0000 0.0000
vn -0.1296 0.0000 -0.9916
vn 0.1710 0.0000 0.9853
vn -0.1296 0.0000 0.9916
vn 1.0000 0.0000 0.0000
vn 0.1710 0.0000 -0.9853
vn -1.0000 0.0000 0.0000
vn 0.0000 1.0000 0.0000
vn -0.1662 0.0000 0.9861
vn 0.1276 0.0000 -0.9918
vn 0.1276 0.0000 0.9918
vn -0.1662 0.0000 -0.9861
usemtl Coffin
s off
f 53/101/15 52/102/15 51/103/15 54/104/15
f 50/105/15 53/101/15 54/104/15 49/106/15
f 50/107/16 56/108/16 60/109/16 53/110/16
f 51/111/17 58/112/17 59/113/17 54/114/17
f 54/114/18 59/113/18 55/115/18 49/116/18
f 52/117/19 57/118/19 58/112/19 51/111/19
f 53/110/20 60/109/20 57/119/20 52/120/20
f 49/121/21 55/122/21 56/108/21 50/107/21
f 59/123/22 58/124/22 64/125/22 65/126/22
f 57/127/22 60/128/22 66/129/22 63/130/22
f 55/131/22 59/123/22 65/126/22 61/132/22
f 60/128/22 56/133/22 62/134/22 66/129/22
f 56/135/22 55/136/22 61/137/22 62/138/22
f 58/139/22 57/140/22 63/141/22 64/142/22
f 63/130/23 66/129/23 72/143/23 69/144/23
f 61/132/24 65/126/24 71/145/24 67/146/24
f 66/129/25 62/134/25 68/147/25 72/143/25
f 62/138/19 61/137/19 67/148/19 68/149/19
f 64/142/21 63/141/21 69/150/21 70/151/21
f 65/126/26 64/125/26 70/152/26 71/145/26
f 70/153/22 69/154/22 72/155/22 71/156/22
f 68/157/22 67/158/22 71/156/22 72/155/22
