mtllib Fence01_LOD2.mtl
v -0.0314 0.0784 -0.0305
v -0.0222 0.2591 -0.0337
v 0.0548 0.0764 -0.0546
v 0.0072 0.6238 0.0376
v 0.0335 0.5329 0.0184
v 0.0246 0.7148 -0.0297
v 0.0128 0.3511 -0.0375
v 0.0319 0.0790 0.0304
v -0.0246 0.7148 0.0297
v 0.0396 0.8057 -0.0002
v 0.0375 0.3512 0.0128
v -0.0263 0.0615 0.0078
v 0.0257 0.8966 0.0315
v 0.0095 0.9875 -0.0407
v -0.0320 1.0781 0.0319
v -0.0314 0.8966 0.0257
v 0.0306 1.0784 0.0307
v -0.0257 0.8966 -0.0314
v -0.0335 0.5329 -0.0184
v -0.0359 0.4420 0.0142
v 0.0320 1.0781 -0.0317
v -0.0319 1.0781 -0.0316
v -0.0127 0.3512 0.0374
v 0.0184 0.5329 -0.0335
v -0.0297 0.7148 -0.0246
v 0.0690 0.0059 0.0703
v 0.0614 1.2040 0.0610
v 0.0610 1.3081 -0.0615
v 0.0478 1.3623 0.0476
v -0.0610 1.3081 0.0614
v -0.0608 1.3075 -0.0604
v -0.0640 1.4567 0.0642
v -0.0643 1.4566 -0.0639
v 0.0640 1.4567 -0.0643
v 0.0652 1.4568 0.0650
v -0.0157 1.6045 -0.0048
v -0.0034 1.6042 -0.0163
v 0.0058 1.6051 0.0150
v -0.0030 1.6045 0.0157
v 0.0053 1.6618 0.0197
v -0.0195 1.6620 0.0033
v 0.0043 1.7739 0.0450
v 0.0043 1.7075 0.0450
v -0.0047 1.8013 0.0216
v 0.0024 1.6771 -0.0725
v 0.0199 1.6617 -0.0049
v -0.0039 1.6530 -0.1233
v -0.0039 1.6613 -0.0178
v 0.0043 1.7391 0.0888
v -0.0039 1.7739 0.0451
v -0.0041 1.6812 -0.0221
v -0.0023 1.8251 -0.0101
v -0.0039 1.7391 -0.0888
v 0.0220 1.6810 0.0033
v 0.0629 1.6789 0.0034
v -0.0029 1.6818 0.0750
v 0.0053 1.6304 0.0598
v 0.1217 1.5977 -0.0051
v 0.1020 1.6704 -0.0048
v 0.0053 1.6537 0.1227
v 0.0053 1.5972 0.1218
v 0.0044 1.6809 -0.0220
v -0.0888 1.7393 0.0033
v -0.0601 1.6809 -0.0047
v -0.0480 1.6282 0.0034
v -0.1233 1.6530 -0.0046
v 0.0887 1.7392 -0.0049
v -0.0311 1.2865 0.7839
v 0.0324 1.2865 0.0609
v -0.0321 1.2865 0.0611
v 0.0334 1.2865 0.7837
v -0.0311 1.2261 0.7839
v -0.0321 1.2261 0.0611
v 0.0324 1.2261 0.0609
v 0.0334 1.2261 0.7837
vn -0.6553 0.0118 -0.7552
vn -0.2802 -0.0047 -0.9599
vn -0.9651 0.0098 -0.2618
vn 0.8022 -0.0013 0.5970
vn 0.9901 -0.0045 -0.1406
vn 0.3201 0.0013 0.9474
vn 0.1733 0.0095 -0.9848
vn 0.8123 0.0121 -0.5830
vn -0.4106 0.0072 -0.9118
vn 0.0522 -0.0041 0.9986
vn 0.7375 -0.0072 0.6753
vn -0.5238 -0.0016 0.8518
vn 0.9118 0.0072 -0.4106
vn 0.8713 0.0069 -0.4907
vn 0.6009 0.1514 0.7848
vn 0.6009 0.1514 0.7848
vn 0.5830 0.0121 0.8123
vn 0.9118 0.0072 -0.4106
vn 0.9888 -0.0095 0.1487
vn 0.7553 -0.0131 -0.6552
vn 0.7375 -0.0072 0.6753
vn -0.2341 -0.1339 0.9629
vn -0.1899 -0.1542 0.9696
vn -0.9981 -0.0098 -0.0604
vn -0.9981 -0.0098 -0.0604
vn -0.9888 -0.0095 -0.1487
vn -0.2341 -0.1339 0.9629
vn 0.7375 -0.0072 0.6753
vn 0.0522 -0.0041 0.9986
vn 0.9888 -0.0095 0.1487
vn -0.5238 -0.0016 0.8518
vn -0.9720 0.0016 0.2350
vn 0.0522 -0.0041 0.9986
vn -0.9720 0.0016 0.2350
vn -0.5238 -0.0016 0.8518
vn -0.9333 0.0041 -0.3590
vn -0.9333 0.0041 -0.3590
vn -0.4106 0.0072 -0.9118
vn -0.9720 0.0016 0.2350
vn 0.9629 -0.1339 0.2341
vn 0.9696 -0.1542 0.1899
vn -0.0604 -0.0098 0.9981
vn -0.0604 -0.0098 0.9981
vn -0.1487 -0.0095 0.9888
vn 0.9629 -0.1339 0.2341
vn 0.8123 0.0121 -0.5830
vn 0.1733 0.0095 -0.9848
vn 0.9458 0.0124 -0.3244
vn -0.4106 0.0072 -0.9118
vn -0.9333 0.0041 -0.3590
vn 0.1733 0.0095 -0.9848
vn 0.0604 -0.0098 -0.9981
vn 0.7378 -0.0069 -0.6749
vn -0.5438 -0.0126 -0.8391
vn 0.7378 -0.0069 -0.6749
vn 0.0604 -0.0098 -0.9981
vn 0.9901 -0.0045 -0.1406
vn 0.9901 -0.0045 -0.1406
vn 0.8022 -0.0013 0.5970
vn 0.7378 -0.0069 -0.6749
vn 0.2341 -0.1339 -0.9629
vn 0.1899 -0.1542 -0.9696
vn 0.7553 -0.0131 -0.6552
vn 0.7553 -0.0131 -0.6552
vn 0.9888 -0.0095 0.1487
vn 0.2341 -0.1339 -0.9629
vn 0.3201 0.0013 0.9474
vn -0.4405 0.0045 0.8977
vn 0.8022 -0.0013 0.5970
vn -0.4405 0.0045 0.8977
vn 0.3201 0.0013 0.9474
vn -0.8713 0.0069 0.4907
vn -0.8713 0.0069 0.4907
vn -0.9651 0.0098 -0.2618
vn -0.4405 0.0045 0.8977
vn -0.9651 0.0098 -0.2618
vn -0.8713 0.0069 0.4907
vn -0.6553 0.0118 -0.7552
vn -0.9629 -0.1339 -0.2341
vn -0.9696 -0.1542 -0.1899
vn 0.0604 -0.0098 -0.9981
vn 0.0604 -0.0098 -0.9981
vn -0.5438 -0.0126 -0.8391
vn -0.9629 -0.1339 -0.2341
vn -0.2350 0.0016 -0.9720
vn -0.3201 0.0013 -0.9474
vn 0.8713 0.0069 -0.4907
vn 0.8713 0.0069 -0.4907
vn 0.9118 0.0072 -0.4106
vn -0.2350 0.0016 -0.9720
vn -0.9986 -0.0041 0.0522
vn -0.9901 -0.0045 0.1406
vn -0.3201 0.0013 -0.9474
vn -0.3201 0.0013 -0.9474
vn -0.2350 0.0016 -0.9720
vn -0.9986 -0.0041 0.0522
vn -0.1487 -0.0095 0.9888
vn -0.0604 -0.0098 0.9981
vn -0.9901 -0.0045 0.1406
vn -0.9901 -0.0045 0.1406
vn -0.9986 -0.0041 0.0522
vn -0.1487 -0.0095 0.9888
vn 0.4106 0.0072 0.9118
vn 0.4907 0.0069 0.8713
vn -0.8517 0.1078 0.5129
vn -0.8517 0.1078 0.5129
vn -0.9458 0.0124 0.3244
vn 0.4106 0.0072 0.9118
vn 0.9720 0.0016 -0.2350
vn 0.9474 0.0013 -0.3201
vn 0.4907 0.0069 0.8713
vn 0.4907 0.0069 0.8713
vn 0.4106 0.0072 0.9118
vn 0.9720 0.0016 -0.2350
vn -0.0522 -0.0041 -0.9986
vn -0.1406 -0.0045 -0.9901
vn 0.9474 0.0013 -0.3201
vn 0.9474 0.0013 -0.3201
vn 0.9720 0.0016 -0.2350
vn -0.0522 -0.0041 -0.9986
vn -0.9888 -0.0095 -0.1487
vn -0.9981 -0.0098 -0.0604
vn -0.1406 -0.0045 -0.9901
vn -0.1406 -0.0045 -0.9901
vn -0.0522 -0.0041 -0.9986
vn -0.9888 -0.0095 -0.1487
vn 0.0000 1.0000 0.0000
vn 0.0000 1.0000 0.0000
vn 0.0000 1.0000 0.0000
vn 0.0000 1.0000 0.0000
vn 0.0000 1.0000 0.0000
vn 0.7891 0.5680 0.2337
vn 0.0027 -0.1095 0.9940
vn -0.1899 -0.1542 0.9696
vn -0.2341 -0.1339 0.9629
vn 0.9629 -0.1339 0.2341
vn 0.9940 -0.1095 -0.0027
vn 0.9696 -0.1542 0.1899
vn 1.0000 0.0000 -0.0027
vn 0.9696 -0.1542 0.1899
vn 0.9940 -0.1095 -0.0027
vn 0.9940 -0.1095 -0.0027
vn 0.9951 -0.0983 -0.0027
vn 1.0000 0.0000 -0.0027
vn -1.0000 0.0000 0.0027
vn -0.9696 -0.1542 -0.1899
vn -0.9629 -0.1339 -0.2341
vn -0.9629 -0.1339 -0.2341
vn -1.0000 0.0000 0.0027
vn -1.0000 0.0000 0.0027
vn -1.0000 0.0000 0.0027
vn -0.7068 0.0797 -0.7028
vn -0.7037 0.0797 0.7060
vn -0.7037 0.0797 0.7060
vn -1.0000 0.0000 0.0027
vn -1.0000 0.0000 0.0027
vn -0.0027 0.0000 -1.0000
vn 0.7031 0.0797 -0.7066
vn -0.7068 0.0797 -0.7028
vn -0.7068 0.0797 -0.7028
vn -0.0027 0.0000 -1.0000
vn -0.0027 0.0000 -1.0000
vn 0.9951 -0.0983 -0.0027
vn 0.7058 0.0797 0.7039
vn 0.7031 0.0797 -0.7066
vn 0.7031 0.0797 -0.7066
vn 1.0000 0.0000 -0.0027
vn 0.9951 -0.0983 -0.0027
vn 0.0027 0.0000 1.0000
vn -0.7037 0.0797 0.7060
vn 0.7058 0.0797 0.7039
vn 0.7058 0.0797 0.7039
vn 0.0019 -0.0985 0.9951
vn 0.0027 0.0000 1.0000
vn -0.7068 0.0797 -0.7028
vn -0.5911 0.2479 -0.7675
vn -0.7569 0.2533 -0.6024
vn 0.7031 0.0797 -0.7066
vn 0.9295 0.3280 -0.1689
vn 0.5913 0.2355 -0.7713
vn 0.9295 0.3280 -0.1689
vn 0.7031 0.0797 -0.7066
vn 0.7058 0.0797 0.7039
vn 0.6304 0.2438 0.7370
vn 0.7058 0.0797 0.7039
vn -0.7037 0.0797 0.7060
vn -0.7037 0.0797 0.7060
vn -0.5881 0.2413 0.7719
vn 0.6304 0.2438 0.7370
vn -0.5881 0.2413 0.7719
vn -0.6768 -0.0887 0.7308
vn -0.7350 -0.0726 0.6742
vn -0.7037 0.0797 0.7060
vn -0.7068 0.0797 -0.7028
vn -0.7569 0.2533 -0.6024
vn -0.7569 0.2533 -0.6024
vn -0.5881 0.2413 0.7719
vn -0.7037 0.0797 0.7060
vn 0.7671 -0.0603 0.6387
vn 1.0000 0.0000 -0.0010
vn 1.0000 0.0000 -0.0010
vn 1.0000 0.0000 -0.0010
vn 0.4708 0.4235 0.7739
vn 0.7671 -0.0603 0.6387
vn 0.5913 0.2355 -0.7713
vn 0.6575 -0.0665 -0.7505
vn 0.8655 0.3538 -0.3546
vn 0.8655 0.3538 -0.3546
vn 1.0000 0.0000 -0.0001
vn 0.5913 0.2355 -0.7713
vn -0.0055 0.5010 -0.8654
vn 0.8655 0.3538 -0.3546
vn -0.6156 0.7231 -0.3134
vn -0.6156 0.7231 -0.3134
vn 0.8655 0.3538 -0.3546
vn 0.6575 -0.0665 -0.7505
vn 0.0037 0.5132 0.8582
vn 0.0730 0.7487 0.6588
vn 0.0024 0.7818 0.6235
vn 1.0000 0.0000 -0.0013
vn 1.0000 0.0000 -0.0010
vn 1.0000 0.0000 -0.0010
vn -0.4670 0.4234 0.7763
vn 0.0023 0.6980 0.7160
vn 0.0023 0.6981 0.7159
vn -1.0000 0.0000 0.0010
vn -0.4670 0.4234 0.7763
vn -1.0000 0.0000 0.0010
vn -0.5011 -0.2528 -0.8276
vn -0.9999 0.0085 0.0086
vn -0.6925 0.4188 -0.5874
vn -1.0000 0.0000 0.0013
vn -1.0000 0.0000 0.0010
vn -1.0000 0.0000 0.0010
vn -1.0000 0.0000 0.0010
vn -0.7350 -0.0726 0.6742
vn -0.6768 -0.0887 0.7308
vn 0.9999 -0.0107 -0.0007
vn 0.7671 -0.0603 0.6387
vn 0.4708 0.4235 0.7739
vn -0.4670 0.4234 0.7763
vn -1.0000 0.0000 0.0010
vn -0.6768 -0.0887 0.7308
vn -0.5911 0.2479 -0.7675
vn -0.7068 0.0797 -0.7028
vn 0.7031 0.0797 -0.7066
vn -0.3706 0.9288 0.0027
vn -0.0819 0.9966 0.0012
vn -0.3706 0.9288 0.0027
vn -0.5881 0.2413 0.7719
vn -0.7350 -0.0726 0.6742
vn -1.0000 0.0000 0.0000
vn -1.0000 0.0000 0.0000
vn -1.0000 0.0000 0.0000
vn -0.5881 0.2413 0.7719
vn 0.0789 -0.2627 -0.9616
vn -0.0001 0.0000 -1.0000
vn 0.6575 -0.0665 -0.7505
vn -0.0819 0.9966 0.0012
vn -0.3706 0.9288 0.0027
vn 0.4315 0.9021 -0.0023
vn 0.6575 -0.0665 -0.7505
vn 0.9295 0.3280 -0.1689
vn 0.0789 -0.2627 -0.9616
vn 0.6304 0.2438 0.7370
vn 0.7671 -0.0603 0.6387
vn 0.0005 0.0000 1.0000
vn 0.0005 0.0000 1.0000
vn 0.0007 0.0000 1.0000
vn 0.6304 0.2438 0.7370
vn 0.7671 -0.0603 0.6387
vn 0.6304 0.2438 0.7370
vn 1.0000 0.0000 0.0000
vn 1.0000 0.0000 0.0000
vn 1.0000 0.0000 0.0000
vn 0.7671 -0.0603 0.6387
vn -1.0000 0.0000 0.0000
vn -1.0000 0.0000 0.0000
vn -1.0000 0.0000 0.0000
vn -1.0000 0.0000 0.0000
vn -1.0000 0.0000 0.0000
vn -1.0000 0.0000 0.0000
vn -0.0001 0.9956 0.0930
vn 0.7671 -0.0603 0.6387
vn 1.0000 0.0000 0.0000
vn 1.0000 0.0000 0.0000
vn 1.0000 0.0000 0.0000
vn 1.0000 0.0000 0.0000
vn -0.6156 0.7231 -0.3134
vn -0.5911 0.2479 -0.7675
vn -0.9846 -0.1746 -0.0021
vn 0.0007 -0.9937 0.1118
vn 0.0023 -0.8632 0.5049
vn 0.0023 -0.8632 0.5049
vn -0.6156 0.7231 -0.3134
vn 0.6575 -0.0665 -0.7505
vn 0.4611 -0.2430 -0.8534
vn 0.4611 -0.2430 -0.8534
vn -0.5011 -0.2528 -0.8276
vn -0.6156 0.7231 -0.3134
vn 0.8167 0.4383 -0.3754
vn 1.0000 0.0000 -0.0013
vn 0.4611 -0.2430 -0.8534
vn -1.0000 0.0041 0.0043
vn -0.5011 -0.2528 -0.8276
vn 0.4611 -0.2430 -0.8534
vn -0.6768 -0.0887 0.7308
vn 0.0013 0.0000 1.0000
vn -0.4670 0.4234 0.7763
vn -0.7569 0.2533 -0.6024
vn -0.1434 0.0981 -0.9848
vn -0.0006 0.0000 -1.0000
vn -0.0006 0.0000 -1.0000
vn -1.0000 0.0000 -0.0024
vn -0.7569 0.2533 -0.6024
vn 0.0000 0.0000 0.0000
vn 0.0964 0.9952 0.0148
vn -0.6768 -0.0887 0.7308
vn -1.0000 0.0000 -0.0024
vn -0.5881 0.2413 0.7719
vn -0.7569 0.2533 -0.6024
vn 0.0000 0.0000 0.0000
vn -1.0000 0.0000 -0.0024
vn -0.0006 0.0000 -1.0000
vn -0.7733 0.4240 -0.4713
vn -0.0013 0.0000 -1.0000
vn -0.5011 -0.2528 -0.8276
vn -0.7161 -0.6980 0.0035
vn -0.6768 -0.0887 0.7308
vn -0.5011 -0.2528 -0.8276
vn -0.1434 0.0981 -0.9848
vn -0.6156 0.7231 -0.3134
vn -0.5011 -0.2528 -0.8276
vn 0.6575 -0.0665 -0.7505
vn 0.7671 -0.0603 0.6387
vn 0.9999 -0.0107 -0.0007
vn 0.0110 0.0133 -0.9999
vn 0.4708 0.4235 0.7739
vn 0.8167 0.4383 -0.3754
vn 0.0110 0.0133 -0.9999
vn 0.8167 0.4383 -0.3754
vn -0.0010 0.0000 -1.0000
vn 0.0110 0.0133 -0.9999
vn 0.9999 -0.0107 -0.0007
vn 0.4708 0.4235 0.7739
vn 0.9999 -0.0107 -0.0007
vn 0.4611 -0.2430 -0.8534
vn 0.6575 -0.0665 -0.7505
vn 0.5913 0.2355 -0.7713
vn 0.9295 0.3280 -0.1689
vn 0.6575 -0.0665 -0.7505
vn 0.0027 -0.1095 0.9940
vn -0.2341 -0.1339 0.9629
vn 0.0027 0.0000 1.0000
vn 0.0027 0.0000 1.0000
vn 0.0019 -0.0985 0.9951
vn 0.0027 -0.1095 0.9940
vn -0.0027 0.0000 -1.0000
vn 0.1899 -0.1542 -0.9696
vn 0.2341 -0.1339 -0.9629
vn 0.2341 -0.1339 -0.9629
vn -0.0027 0.0000 -1.0000
vn -0.0027 0.0000 -1.0000
vn -0.6768 -0.0887 0.7308
vn -0.5881 0.2413 0.7719
vn -1.0000 0.0000 -0.0024
vn -1.0000 0.0000 -0.0024
vn 0.0000 0.0000 0.0000
vn -0.6768 -0.0887 0.7308
vn 0.8167 0.4383 -0.3754
vn 0.4611 -0.2430 -0.8534
vn 0.9999 -0.0107 -0.0007
vn 0.0005 0.0000 1.0000
vn 0.0001 0.0000 1.0000
vn 0.0001 0.0000 1.0000
vn -0.6156 0.7231 -0.3134
vn -0.1434 0.0981 -0.9848
vn -0.7569 0.2533 -0.6024
vn -0.7569 0.2533 -0.6024
vn -0.5911 0.2479 -0.7675
vn -0.6156 0.7231 -0.3134
vn -0.6925 0.4188 -0.5874
vn -0.7733 0.4240 -0.4713
vn -0.5011 -0.2528 -0.8276
vn 0.0000 1.0000 0.0000
vn 0.0000 1.0000 0.0000
vn 0.0000 1.0000 0.0000
vn 0.0000 1.0000 0.0000
vn 0.0000 1.0000 0.0000
vn 0.0000 1.0000 0.0000
vn -1.0000 0.0000 0.0014
vn -1.0000 0.0000 0.0014
vn -1.0000 0.0000 0.0014
vn -1.0000 0.0000 0.0014
vn -1.0000 0.0000 0.0014
vn -1.0000 0.0000 0.0014
vn 1.0000 0.0000 -0.0014
vn 1.0000 0.0000 -0.0014
vn 1.0000 0.0000 -0.0014
vn 1.0000 0.0000 -0.0014
vn 1.0000 0.0000 -0.0014
vn 1.0000 0.0000 -0.0014
vn 0.0000 -1.0000 0.0000
vn 0.0000 -1.0000 0.0000
vn 0.0000 -1.0000 0.0000
vn 0.0000 -1.0000 0.0000
vn 0.0000 -1.0000 0.0000
vn 0.0000 -1.0000 0.0000
vt 0.1171 0.0255 
vt 0.0638 0.0123 
vt 0.0680 0.1845 
vt 0.0621 0.5280 
vt 0.1066 0.6277 
vt 0.1119 0.4559 
vt 0.0680 0.1845 
vt 0.0102 0.0004 
vt 0.0194 0.2578 
vt 0.0117 0.5996 
vt 0.0562 0.6997 
vt 0.0621 0.5280 
vt 0.1650 0.2979 
vt 0.2131 0.3125 
vt 0.2229 0.0551 
vt 0.2229 0.0551 
vt 0.1701 0.0397 
vt 0.1650 0.2979 
vt 0.0040 0.7706 
vt 0.0512 0.8715 
vt 0.0562 0.6997 
vt 0.1158 0.9751 
vt 0.1692 0.9879 
vt 0.1527 0.8130 
vt 0.1527 0.8130 
vt 0.1029 0.7997 
vt 0.1158 0.9751 
vt 0.0562 0.6997 
vt 0.0117 0.5996 
vt 0.0040 0.7706 
vt 0.0621 0.5280 
vt 0.0176 0.4288 
vt 0.0117 0.5996 
vt 0.0176 0.4288 
vt 0.0621 0.5280 
vt 0.0668 0.3564 
vt 0.0668 0.3564 
vt 0.0194 0.2578 
vt 0.0176 0.4288 
vt 0.1692 0.9879 
vt 0.2229 0.9996 
vt 0.2027 0.8254 
vt 0.2027 0.8254 
vt 0.1527 0.8130 
vt 0.1692 0.9879 
vt 0.0102 0.0004 
vt 0.0680 0.1845 
vt 0.0638 0.0123 
vt 0.0194 0.2578 
vt 0.0668 0.3564 
vt 0.0680 0.1845 
vt 0.1029 0.7997 
vt 0.0562 0.6997 
vt 0.0512 0.8715 
vt 0.0562 0.6997 
vt 0.1029 0.7997 
vt 0.1066 0.6277 
vt 0.1066 0.6277 
vt 0.0621 0.5280 
vt 0.0562 0.6997 
vt 0.0100 0.9459 
vt 0.0627 0.9610 
vt 0.0512 0.8715 
vt 0.0512 0.8715 
vt 0.0040 0.7706 
vt 0.0100 0.9459 
vt 0.1119 0.4559 
vt 0.0668 0.3564 
vt 0.0621 0.5280 
vt 0.0668 0.3564 
vt 0.1119 0.4559 
vt 0.1166 0.2839 
vt 0.1166 0.2839 
vt 0.0680 0.1845 
vt 0.0668 0.3564 
vt 0.0680 0.1845 
vt 0.1166 0.2839 
vt 0.1171 0.0255 
vt 0.0627 0.9610 
vt 0.1158 0.9751 
vt 0.1029 0.7997 
vt 0.1029 0.7997 
vt 0.0512 0.8715 
vt 0.0627 0.9610 
vt 0.1591 0.4696 
vt 0.2061 0.4834 
vt 0.2131 0.3125 
vt 0.2131 0.3125 
vt 0.1650 0.2979 
vt 0.1591 0.4696 
vt 0.1543 0.6412 
vt 0.2019 0.6543 
vt 0.2061 0.4834 
vt 0.2061 0.4834 
vt 0.1591 0.4696 
vt 0.1543 0.6412 
vt 0.1527 0.8130 
vt 0.2027 0.8254 
vt 0.2019 0.6543 
vt 0.2019 0.6543 
vt 0.1543 0.6412 
vt 0.1527 0.8130 
vt 0.1166 0.2839 
vt 0.1650 0.2979 
vt 0.1701 0.0397 
vt 0.1701 0.0397 
vt 0.1171 0.0255 
vt 0.1166 0.2839 
vt 0.1119 0.4559 
vt 0.1591 0.4696 
vt 0.1650 0.2979 
vt 0.1650 0.2979 
vt 0.1166 0.2839 
vt 0.1119 0.4559 
vt 0.1066 0.6277 
vt 0.1543 0.6412 
vt 0.1591 0.4696 
vt 0.1591 0.4696 
vt 0.1119 0.4559 
vt 0.1066 0.6277 
vt 0.1029 0.7997 
vt 0.1527 0.8130 
vt 0.1543 0.6412 
vt 0.1543 0.6412 
vt 0.1066 0.6277 
vt 0.1029 0.7997 
vt 0.6751 0.3457 
vt 0.7114 0.2323 
vt 0.6200 0.3457 
vt 0.5747 0.6505 
vt 0.6110 0.7638 
vt 0.6890 0.7409 
vt 0.3341 0.7620 
vt 0.3064 0.6447 
vt 0.2514 0.6447 
vt 0.3627 0.6447 
vt 0.3349 0.7620 
vt 0.4177 0.6447 
vt 0.4454 0.8567 
vt 0.4177 0.6447 
vt 0.3349 0.7620 
vt 0.3349 0.7620 
vt 0.3349 0.8567 
vt 0.4454 0.8567 
vt 0.6942 0.2124 
vt 0.6665 0.0004 
vt 0.6114 0.0004 
vt 0.6114 0.0004 
vt 0.5837 0.2124 
vt 0.6942 0.2124 
vt 0.4911 0.1843 
vt 0.3916 0.2624 
vt 0.4444 0.3292 
vt 0.4444 0.3292 
vt 0.5419 0.2659 
vt 0.4911 0.1843 
vt 0.4268 0.0972 
vt 0.3246 0.1997 
vt 0.3916 0.2624 
vt 0.3916 0.2624 
vt 0.4911 0.1843 
vt 0.4268 0.0972 
vt 0.2962 0.0623 
vt 0.2246 0.1421 
vt 0.3246 0.1997 
vt 0.3246 0.1997 
vt 0.4268 0.0972 
vt 0.2962 0.0623 
vt 0.5419 0.2659 
vt 0.4444 0.3292 
vt 0.4765 0.4167 
vt 0.4765 0.4167 
vt 0.5424 0.3657 
vt 0.5419 0.2659 
vt 0.3916 0.2624 
vt 0.2850 0.3331 
vt 0.3072 0.3578 
vt 0.3246 0.1997 
vt 0.2427 0.3105 
vt 0.2850 0.3331 
vt 0.2427 0.3105 
vt 0.3246 0.1997 
vt 0.2246 0.1421 
vt 0.3418 0.4037 
vt 0.4765 0.4167 
vt 0.4444 0.3292 
vt 0.4444 0.3292 
vt 0.3400 0.3973 
vt 0.3418 0.4037 
vt 0.8140 0.3966 
vt 0.8301 0.3438 
vt 0.8087 0.3449 
vt 0.4444 0.3292 
vt 0.3916 0.2624 
vt 0.3072 0.3578 
vt 0.3072 0.3578 
vt 0.3400 0.3973 
vt 0.4444 0.3292 
vt 0.8994 0.6496 
vt 0.8783 0.6737 
vt 0.8783 0.7343 
vt 0.8783 0.7343 
vt 0.8939 0.7633 
vt 0.8994 0.6496 
vt 0.2379 0.8805 
vt 0.2237 0.9332 
vt 0.2914 0.9445 
vt 0.2914 0.9445 
vt 0.3364 0.9221 
vt 0.2379 0.8805 
vt 0.5523 0.8010 
vt 0.5156 0.7646 
vt 0.4622 0.7724 
vt 0.4622 0.7724 
vt 0.5156 0.7646 
vt 0.4639 0.7646 
vt 0.8386 0.7025 
vt 0.8730 0.7395 
vt 0.8783 0.7343 
vt 0.8386 0.7025 
vt 0.8783 0.7343 
vt 0.8783 0.6737 
vt 0.8939 0.7633 
vt 0.8783 0.7343 
vt 0.8730 0.7395 
vt 0.8507 0.0244 
vt 0.8298 0.1088 
vt 0.8507 0.0847 
vt 0.9476 0.4223 
vt 0.8868 0.4753 
vt 0.9421 0.5361 
vt 0.8904 0.0531 
vt 0.8507 0.0244 
vt 0.8507 0.0847 
vt 0.8708 0.9008 
vt 0.8792 0.8832 
vt 0.8504 0.8813 
vt 0.8296 0.1096 
vt 0.8063 0.1096 
vt 0.8063 0.2179 
vt 0.8298 0.1088 
vt 0.8507 0.0244 
vt 0.8063 0.0004 
vt 0.2850 0.3331 
vt 0.3916 0.2624 
vt 0.3246 0.1997 
vt 0.7254 0.7731 
vt 0.7690 0.7646 
vt 0.7253 0.7654 
vt 0.8140 0.3966 
vt 0.8087 0.3449 
vt 0.7582 0.3283 
vt 0.7582 0.3283 
vt 0.7733 0.3744 
vt 0.8140 0.3966 
vt 0.8020 0.8569 
vt 0.7980 0.7892 
vt 0.7254 0.7731 
vt 0.7690 0.7646 
vt 0.7254 0.7731 
vt 0.7980 0.7892 
vt 0.7254 0.7731 
vt 0.7032 0.8206 
vt 0.8020 0.8569 
vt 0.5861 0.8713 
vt 0.5861 0.9232 
vt 0.6454 0.9365 
vt 0.6454 0.9365 
vt 0.6966 0.8609 
vt 0.5861 0.8713 
vt 0.6813 0.8523 
vt 0.7024 0.8040 
vt 0.6553 0.8130 
vt 0.6553 0.8130 
vt 0.5942 0.8185 
vt 0.6813 0.8523 
vt 0.7582 0.3283 
vt 0.7156 0.3550 
vt 0.7180 0.4061 
vt 0.7180 0.4061 
vt 0.7733 0.3744 
vt 0.7582 0.3283 
vt 0.6257 0.8601 
vt 0.6813 0.8523 
vt 0.5942 0.8185 
vt 0.6030 0.7695 
vt 0.5942 0.8185 
vt 0.6553 0.8130 
vt 0.4622 0.7724 
vt 0.4462 0.8220 
vt 0.5523 0.8010 
vt 0.6553 0.8130 
vt 0.7024 0.8040 
vt 0.7009 0.7969 
vt 0.9327 0.8738 
vt 0.9064 0.8809 
vt 0.9307 0.8935 
vt 0.9307 0.8935 
vt 0.9378 0.8913 
vt 0.9327 0.8738 
vt 0.8509 0.3275 
vt 0.9114 0.2718 
vt 0.8509 0.2191 
vt 0.8868 0.4753 
vt 0.9476 0.4223 
vt 0.9421 0.4175 
vt 0.9679 0.6496 
vt 0.9071 0.7025 
vt 0.9679 0.7584 
vt 0.5481 0.9244 
vt 0.5454 0.8730 
vt 0.5068 0.8560 
vt 0.5068 0.8560 
vt 0.5187 0.9030 
vt 0.5481 0.9244 
vt 0.7122 0.2815 
vt 0.7608 0.3275 
vt 0.8026 0.3190 
vt 0.7909 0.2808 
vt 0.8277 0.2732 
vt 0.8267 0.2664 
vt 0.4503 0.8814 
vt 0.5187 0.9030 
vt 0.5068 0.8560 
vt 0.8412 0.8730 
vt 0.9017 0.8173 
vt 0.8185 0.7646 
vt 0.9071 0.7025 
vt 0.9679 0.6496 
vt 0.9623 0.6447 
vt 0.8504 0.8813 
vt 0.8266 0.8739 
vt 0.8185 0.8903 
vt 0.9064 0.8809 
vt 0.8792 0.8832 
vt 0.9015 0.8993 
vt 0.8980 0.0582 
vt 0.9533 0.1190 
vt 0.9589 0.1141 
vt 0.8980 0.0582 
vt 0.9589 0.1141 
vt 0.9533 0.0004 
vt 0.8901 0.1623 
vt 0.8296 0.1096 
vt 0.8063 0.2179 
vt 0.9015 0.8993 
vt 0.9307 0.8935 
vt 0.9064 0.8809 
vt 0.2379 0.8805 
vt 0.2237 0.8812 
vt 0.2237 0.9332 
vt 0.3341 0.7620 
vt 0.2514 0.6447 
vt 0.2237 0.8567 
vt 0.2237 0.8567 
vt 0.3341 0.8567 
vt 0.3341 0.7620 
vt 0.8055 0.2124 
vt 0.7777 0.0004 
vt 0.7227 0.0004 
vt 0.7227 0.0004 
vt 0.6950 0.2124 
vt 0.8055 0.2124 
vt 0.8026 0.3190 
vt 0.8277 0.2732 
vt 0.7909 0.2808 
vt 0.7909 0.2808 
vt 0.7122 0.2815 
vt 0.8026 0.3190 
vt 0.8509 0.3275 
vt 0.8509 0.2191 
vt 0.8285 0.2192 
vt 0.6454 0.9365 
vt 0.6807 0.9278 
vt 0.6966 0.8609 
vt 0.5626 0.8726 
vt 0.5454 0.8730 
vt 0.5481 0.9244 
vt 0.5481 0.9244 
vt 0.5626 0.9241 
vt 0.5626 0.8726 
vt 0.8185 0.8730 
vt 0.8412 0.8730 
vt 0.8185 0.7646 
vt 0.2237 0.4760 
vt 0.8790 0.4760 
vt 0.8791 0.4175 
vt 0.8791 0.4175 
vt 0.2238 0.4175 
vt 0.2237 0.4760 
vt 0.2237 0.5307 
vt 0.8790 0.5307 
vt 0.8790 0.4760 
vt 0.8790 0.4760 
vt 0.2237 0.4760 
vt 0.2237 0.5307 
vt 0.2238 0.6439 
vt 0.8791 0.6439 
vt 0.8791 0.5892 
vt 0.8791 0.5892 
vt 0.2238 0.5892 
vt 0.2238 0.6439 
vt 0.2238 0.5892 
vt 0.8791 0.5892 
vt 0.8790 0.5307 
vt 0.8790 0.5307 
vt 0.2237 0.5307 
vt 0.2238 0.5892 
g Fence01
usemtl Fence01
f 2/3/3 3/2/2 1/1/1
f 5/6/6 6/5/5 4/4/4
f 7/9/9 8/8/8 2/7/7
f 4/12/12 10/11/11 9/10/10
f 8/15/15 7/14/14 11/13/13
f 11/18/18 12/17/17 8/16/16
f 10/21/21 14/20/20 13/19/19
f 16/24/24 17/23/23 15/22/22
f 15/27/27 18/26/26 16/25/25
f 13/30/30 9/29/29 10/28/28
f 9/33/33 19/32/32 4/31/31
f 20/36/36 4/35/35 19/34/34
f 19/39/39 7/38/38 20/37/37
f 13/42/42 21/41/41 17/40/40
f 17/45/45 16/44/44 13/43/43
f 3/48/48 2/47/47 8/46/46
f 2/51/51 20/50/50 7/49/49
f 14/54/54 10/53/53 18/52/52
f 6/57/57 18/56/56 10/55/55
f 10/60/60 4/59/59 6/58/58
f 14/63/63 22/62/62 21/61/61
f 21/66/66 13/65/65 14/64/64
f 4/69/69 20/68/68 5/67/67
f 23/72/72 5/71/71 20/70/70
f 20/75/75 2/74/74 23/73/73
f 1/78/78 23/77/77 2/76/76
f 18/81/81 15/80/80 22/79/79
f 22/84/84 14/83/83 18/82/82
f 7/87/87 19/86/86 24/85/85
f 24/90/90 11/89/89 7/88/88
f 19/93/93 9/92/92 25/91/91
f 25/96/96 24/95/95 19/94/94
f 9/99/99 13/98/98 16/97/97
f 16/102/102 25/101/101 9/100/100
f 12/105/105 11/104/104 23/103/103
f 23/108/108 1/107/107 12/106/106
f 11/111/111 24/110/110 5/109/109
f 5/114/114 23/113/113 11/112/112
f 24/117/117 25/116/116 6/115/115
f 6/120/120 5/119/119 24/118/118
f 25/123/123 16/122/122 18/121/121
f 18/126/126 6/125/125 25/124/124
f 12/129/129 26/128/128 8/127/127
f 3/132/132 8/131/131 26/130/130
f 15/135/135 17/134/134 27/133/133
f 21/138/138 27/137/137 17/136/136
f 27/141/141 21/140/140 28/139/139
f 28/144/144 29/143/143 27/142/142
f 22/147/147 15/146/146 30/145/145
f 30/150/150 31/149/149 22/148/148
f 32/153/153 33/152/152 31/151/151
f 31/156/156 30/155/155 32/154/154
f 33/159/159 34/158/158 28/157/157
f 28/162/162 31/161/161 33/160/160
f 34/165/165 35/164/164 29/163/163
f 29/168/168 28/167/167 34/166/166
f 35/171/171 32/170/170 30/169/169
f 30/174/174 29/173/173 35/172/172
f 36/177/177 37/176/176 33/175/175
f 37/180/180 38/179/179 34/178/178
f 35/183/183 34/182/182 38/181/181
f 32/186/186 35/185/185 38/184/184
f 38/189/189 39/188/188 32/187/187
f 40/192/192 41/191/191 39/190/190
f 36/195/195 33/194/194 32/193/193
f 32/198/198 39/197/197 36/196/196
f 42/201/201 43/200/200 40/199/199
f 40/204/204 44/203/203 42/202/202
f 45/207/207 46/206/206 37/205/205
f 37/210/210 47/209/209 45/208/208
f 48/213/213 45/212/212 47/211/211
f 46/216/216 45/215/215 48/214/214
f 42/219/219 50/218/218 49/217/217
f 43/222/222 42/221/221 49/220/220
f 50/225/225 42/224/224 44/223/223
f 50/228/228 44/227/227 43/226/226
f 52/231/231 53/230/230 51/229/229
f 50/234/234 43/233/233 49/232/232
f 41/237/237 40/236/236 43/235/235
f 44/240/240 40/239/239 54/238/238
f 41/243/243 43/242/242 44/241/241
f 34/246/246 33/245/245 37/244/244
f 40/249/249 55/248/248 46/247/247
f 56/252/252 40/251/251 39/250/250
f 39/255/255 57/254/254 56/253/253
f 46/258/258 59/257/257 58/256/256
f 59/261/261 46/260/260 55/259/259
f 58/264/264 38/263/263 46/262/262
f 55/267/267 40/266/266 38/265/265
f 38/270/270 58/269/269 55/268/268
f 57/273/273 38/272/272 40/271/271
f 40/276/276 60/275/275 57/274/274
f 61/279/279 60/278/278 56/277/277
f 56/282/282 57/281/281 61/280/280
f 60/285/285 40/284/284 56/283/283
f 57/288/288 60/287/287 61/286/286
f 47/291/291 37/290/290 48/289/289
f 39/294/294 38/293/293 57/292/292
f 62/297/297 46/296/296 48/295/295
f 48/300/300 51/299/299 62/298/298
f 62/303/303 53/302/302 52/301/301
f 62/306/306 51/305/305 53/304/304
f 44/309/309 63/308/308 41/307/307
f 64/312/312 41/311/311 36/310/310
f 36/315/315 65/314/314 64/313/313
f 41/318/318 64/317/317 66/316/316
f 36/321/321 39/320/320 65/319/319
f 64/324/324 65/323/323 66/322/322
f 51/327/327 63/326/326 44/325/325
f 51/330/330 41/329/329 63/328/328
f 51/333/333 48/332/332 41/331/331
f 54/336/336 40/335/335 46/334/334
f 52/339/339 44/338/338 67/337/337
f 54/342/342 52/341/341 67/340/340
f 44/345/345 54/344/344 67/343/343
f 46/348/348 62/347/347 54/346/346
f 46/351/351 38/350/350 37/349/349
f 30/354/354 15/353/353 27/352/352
f 27/357/357 29/356/356 30/355/355
f 21/360/360 22/359/359 31/358/358
f 31/363/363 28/362/362 21/361/361
f 65/366/366 39/365/365 41/364/364
f 41/369/369 66/368/368 65/367/367
f 54/372/372 62/371/371 52/370/370
f 58/375/375 59/374/374 55/373/373
f 36/378/378 41/377/377 48/376/376
f 48/381/381 37/380/380 36/379/379
f 51/384/384 44/383/383 52/382/382
f 69/387/387 70/386/386 68/385/385
f 68/390/390 71/389/389 69/388/388
f 70/393/393 73/392/392 72/391/391
f 72/396/396 68/395/395 70/394/394
f 74/399/399 69/398/398 71/397/397
f 71/402/402 75/401/401 74/400/400
f 73/405/405 74/404/404 75/403/403
f 75/408/408 72/407/407 73/406/406
