# Blender v2.78 (sub 0) OBJ File: 'Graveyard.blend'
# www.blender.org
mtllib Grave06.mtl
g Grave06
v -0.836062 0.000000 1.157666
v -0.694207 0.047208 1.006109
v -0.836062 0.000000 -1.157667
v -0.694207 0.047208 -1.157667
v 0.836061 0.000000 1.157666
v 0.694206 0.047208 1.006109
v 0.836061 0.000000 -1.157667
v 0.694206 0.047208 -1.157667
v -0.836062 0.047208 1.157666
v -0.836062 0.047208 -1.157667
v 0.836061 0.047208 -1.157667
v 0.836061 0.047208 1.157666
v -0.546875 0.241852 0.858777
v -0.546875 0.241852 -1.157667
v 0.546874 0.241852 -1.157667
v 0.546874 0.241852 0.858777
v -0.694207 0.241852 1.006109
v -0.694207 0.241852 -1.157667
v 0.694206 0.241852 -1.157667
v 0.694206 0.241852 1.006109
v -0.546875 0.426624 0.858777
v -0.546875 0.426624 -1.157667
v 0.546874 0.426624 -1.157667
v 0.546874 0.426624 0.858777
vt 0.1347 0.7969
vt 0.1347 0.7821
vt 0.8653 0.7821
vt 0.8653 0.7969
vt 0.9999 0.1347
vt 0.9850 0.1795
vt 0.9850 0.1347
vt 0.8653 0.0001
vt 0.8653 0.0150
vt 0.1347 0.0150
vt 0.1347 0.0001
vt 0.0001 0.1347
vt 0.0150 0.1347
vt 0.0150 0.6623
vt 0.0001 0.6623
vt 0.0628 0.6176
vt 0.0628 0.1795
vt 0.1242 0.1795
vt 0.1242 0.6176
vt 0.1825 0.7373
vt 0.8653 0.7373
vt 0.9236 0.2260
vt 0.9236 0.1795
vt 0.8653 0.0597
vt 0.1825 0.0597
vt 0.8653 0.6294
vt 0.2290 0.6294
vt 0.2290 0.5711
vt 0.8653 0.5711
vt 0.9850 0.6623
vt 0.9850 0.6176
vt 0.9999 0.6623
vt 0.8653 0.1212
vt 0.1825 0.1212
vt 0.1825 0.6759
vt 0.8653 0.6759
vt 0.9236 0.5711
vt 0.9236 0.6176
vt 0.8653 0.1677
vt 0.2290 0.1677
vt 0.1707 0.2260
vt 0.1707 0.5711
vt 0.8653 0.2260
vt 0.2290 0.2260
vn -1.0000 0.0000 0.0000
vn 0.0000 0.0000 -1.0000
vn 1.0000 0.0000 0.0000
vn 0.0000 0.0000 1.0000
vn 0.0000 1.0000 0.0000
usemtl Grave06
s off
f 1/1/1 9/2/1 10/3/1 3/4/1
f 7/5/2 8/6/2 11/7/2
f 7/8/3 11/9/3 12/10/3 5/11/3
f 5/12/4 12/13/4 9/14/4 1/15/4
f 2/16/4 6/17/4 20/18/4 17/19/4
f 2/20/5 4/21/5 10/3/5 9/2/5
f 8/6/2 15/22/2 19/23/2
f 8/24/5 6/25/5 12/10/5 11/9/5
f 6/17/5 2/16/5 9/14/5 12/13/5
f 14/26/1 13/27/1 21/28/1 22/29/1
f 10/30/2 4/31/2 3/32/2
f 6/25/3 8/24/3 19/33/3 20/34/3
f 4/21/1 2/20/1 17/35/1 18/36/1
f 13/27/5 14/26/5 18/36/5 17/35/5
f 14/37/2 4/31/2 18/38/2
f 15/39/5 16/40/5 20/34/5 19/33/5
f 16/41/5 13/42/5 17/19/5 20/18/5
f 23/43/5 22/29/5 21/28/5 24/44/5
f 13/42/4 16/41/4 24/44/4 21/28/4
f 15/22/2 14/37/2 22/29/2 23/43/2
f 16/40/3 15/39/3 23/43/3 24/44/3
f 8/6/2 7/5/2 3/32/2 4/31/2
f 15/22/2 8/6/2 4/31/2 14/37/2
