# Blender v2.78 (sub 0) OBJ File: 'Graveyard.blend'
# www.blender.org
mtllib Grave04.mtl
g Grave04
v -0.594055 0.111408 -0.964931
v -0.594055 0.111408 -0.056953
v -0.594055 0.111408 0.036547
v -0.594055 0.000000 0.036547
v -0.594055 0.000000 -0.056953
v -0.661963 0.000000 -1.010203
v 0.661963 0.111408 -1.010203
v -0.661963 0.111408 1.010203
v -0.661963 0.111408 -1.010203
v -0.639327 0.111408 -0.056953
v -0.639327 0.111408 0.036547
v -0.639327 0.000000 0.036547
v -0.639327 0.000000 -0.056953
v 0.594055 0.111408 -0.056953
v 0.594055 0.111408 -0.964931
v -0.594055 0.133942 -0.056953
v -0.639327 0.133942 -0.056953
v -0.594055 0.133942 0.036547
v -0.639327 0.133942 0.036547
v -0.644364 0.133942 0.046950
v -0.644364 0.133942 -0.067356
v -0.589018 0.133942 0.046950
v -0.589018 0.133942 -0.067356
v -0.644364 0.167194 0.046950
v -0.644364 0.167194 -0.067356
v -0.589018 0.167194 0.046950
v -0.589018 0.167194 -0.067356
v -0.639327 0.000000 0.944525
v -0.594055 0.000000 0.944525
v -0.661963 0.111408 -0.964931
v -0.594055 0.000000 -0.964931
v -0.661963 0.111408 0.944525
v -0.661963 0.000000 -0.964931
v -0.639327 0.111408 -0.964931
v 0.661963 0.111408 1.010203
v -0.639327 0.000000 -0.964931
v -0.594055 0.111408 0.944525
v -0.661963 0.000000 1.010203
v -0.639327 0.111408 0.944525
v -0.661963 0.000000 0.944525
v 0.594055 0.000000 0.036547
v 0.661963 0.000000 -1.010203
v 0.594055 0.000000 -0.056953
v 0.594055 0.111408 0.036547
v 0.639327 0.111408 -0.056953
v 0.639327 0.111408 0.036547
v 0.639327 0.000000 0.036547
v 0.639327 0.000000 -0.056953
v 0.594055 0.133942 -0.056953
v 0.639327 0.133942 -0.056953
v 0.594055 0.133942 0.036547
v 0.639327 0.133942 0.036547
v 0.644364 0.133942 0.046950
v 0.644364 0.133942 -0.067356
v 0.589018 0.133942 0.046950
v 0.589018 0.133942 -0.067356
v 0.644364 0.167194 0.046950
v 0.644364 0.167194 -0.067356
v 0.589018 0.167194 0.046950
v 0.589018 0.167194 -0.067356
v 0.639327 0.000000 0.944525
v 0.594055 0.000000 0.944525
v 0.661963 0.111408 -0.964931
v 0.594055 0.000000 -0.964931
v 0.661963 0.111408 0.944525
v 0.661963 0.000000 -0.964931
v 0.639327 0.111408 -0.964931
v 0.639327 0.000000 -0.964931
v 0.594055 0.111408 0.944525
v 0.661963 0.000000 1.010203
v 0.639327 0.111408 0.944525
v 0.661963 0.000000 0.944525
vt 0.0002 0.4916
vt 0.0585 0.4916
vt 0.0585 0.5153
vt 0.0002 0.5153
vt 0.1293 0.6084
vt 0.1293 0.6321
vt 0.1175 0.6321
vt 0.1175 0.6084
vt 0.0892 0.6666
vt 0.0403 0.6666
vt 0.0403 0.6548
vt 0.0892 0.6548
vt 0.8099 0.4916
vt 0.8099 0.5153
vt 0.7516 0.5153
vt 0.7516 0.4916
vt 0.0002 0.6321
vt 0.0002 0.6084
vt 0.0120 0.6084
vt 0.0120 0.6321
vt 0.0174 0.6058
vt 0.0174 0.6347
vt 0.0703 0.4916
vt 0.0940 0.4916
vt 0.4755 0.2815
vt 0.4755 0.2232
vt 0.5245 0.2232
vt 0.5245 0.2815
vt 0.2588 0.6321
vt 0.2470 0.6321
vt 0.2470 0.6084
vt 0.2588 0.6084
vt 0.0585 0.2819
vt 0.7516 0.2819
vt 0.7516 0.3402
vt 0.0585 0.3402
vt 0.0403 0.5739
vt 0.0892 0.5739
vt 0.0892 0.5857
vt 0.0403 0.5857
vt 0.7516 0.5736
vt 0.0585 0.5736
vt 0.0940 0.4329
vt 0.0940 0.3746
vt 0.7160 0.3746
vt 0.7160 0.4329
vt 0.5245 0.1412
vt 0.5245 0.1995
vt 0.4755 0.1995
vt 0.4755 0.1412
vt 0.1697 0.6666
vt 0.1697 0.6548
vt 0.2187 0.6548
vt 0.2187 0.6666
vt 0.1121 0.6058
vt 0.1121 0.6347
vt 0.0947 0.6347
vt 0.0947 0.6058
vt 0.0348 0.6521
vt 0.0947 0.6521
vt 0.0947 0.5883
vt 0.0348 0.5883
vt 0.0348 0.6058
vt 0.0348 0.6347
vt 0.0703 0.3746
vt 0.9998 0.1995
vt 0.9998 0.2232
vt 0.0585 0.4332
vt 0.0703 0.4332
vt 0.9998 0.2815
vt 0.0002 0.2232
vt 0.0002 0.1995
vt 0.4755 0.0003
vt 0.5245 0.0003
vt 0.5245 0.0587
vt 0.4755 0.0587
vt 0.0002 0.2815
vt 0.0002 0.1412
vt 0.0002 0.3402
vt 0.0585 0.3746
vt 0.0002 0.3746
vt 0.7397 0.4916
vt 0.0703 0.4329
vt 0.0585 0.4329
vt 0.1296 0.6084
vt 0.1414 0.6084
vt 0.1414 0.6321
vt 0.1296 0.6321
vt 0.2187 0.5739
vt 0.2187 0.5857
vt 0.1697 0.5857
vt 0.1697 0.5739
vt 0.7160 0.4916
vt 0.1469 0.6058
vt 0.1469 0.6347
vt 0.9998 0.1412
vt 0.5244 0.1407
vt 0.4755 0.1407
vt 0.4755 0.0824
vt 0.5245 0.0824
vt 0.2415 0.6347
vt 0.2241 0.6347
vt 0.2241 0.6058
vt 0.2415 0.6058
vt 0.2241 0.5883
vt 0.1643 0.5883
vt 0.1643 0.6521
vt 0.2241 0.6521
vt 0.1643 0.6347
vt 0.1643 0.6058
vt 0.7397 0.3746
vt 0.9998 0.0588
vt 0.9998 0.0825
vt 0.7397 0.4332
vt 0.7516 0.4332
vt 0.9998 0.0005
vt 0.0002 0.0822
vt 0.0002 0.0585
vt 0.0002 0.0002
vt 0.0002 0.1405
vt 0.8099 0.3402
vt 0.8099 0.3746
vt 0.7516 0.3746
vt 0.7516 0.4329
vt 0.7397 0.4329
vt 0.7160 0.4332
vt 0.0940 0.4332
vt 0.9998 0.1409
vn -1.0000 0.0000 0.0000
vn 0.0000 0.0000 -1.0000
vn 1.0000 0.0000 0.0000
vn 0.0000 0.0000 1.0000
vn 0.0000 -1.0000 0.0000
vn 0.0000 1.0000 0.0000
usemtl Grave04
s off
f 33/1/1 30/2/1 9/3/1 6/4/1
f 2/5/2 10/6/2 17/7/2 16/8/2
f 10/9/1 11/10/1 19/11/1 17/12/1
f 66/13/3 42/14/3 7/15/3 63/16/3
f 11/17/4 3/18/4 18/19/4 19/20/4
f 19/20/5 18/19/5 22/21/5 20/22/5
f 9/3/6 34/23/6 1/24/6
f 9/3/6 30/2/6 34/23/6
f 12/25/1 11/26/1 10/27/1 13/28/1
f 14/29/2 49/30/2 50/31/2 45/32/2
f 38/33/4 70/34/4 35/35/4 8/36/4
f 3/37/3 2/38/3 16/39/3 18/40/3
f 42/41/2 6/42/2 9/3/2 7/15/2
f 29/43/2 37/44/2 69/45/2 62/46/2
f 5/47/3 2/48/3 3/49/3 4/50/3
f 44/51/1 51/52/1 49/53/1 14/54/1
f 23/55/2 21/56/2 25/57/2 27/58/2
f 17/12/5 19/11/5 20/59/5 21/60/5
f 16/8/5 17/7/5 21/56/5 23/55/5
f 18/40/5 16/39/5 23/61/5 22/62/5
f 26/63/6 27/58/6 25/57/6 24/64/6
f 22/62/3 23/61/3 27/58/3 26/63/3
f 20/22/4 22/21/4 26/63/4 24/64/4
f 21/60/1 20/59/1 24/64/1 25/57/1
f 37/44/6 39/65/6 8/36/6
f 10/27/6 2/48/6 1/66/6 34/67/6
f 34/23/4 30/2/4 33/68/4 36/69/4
f 10/27/1 34/67/1 36/70/1 13/28/1
f 3/49/6 11/26/6 39/71/6 37/72/6
f 47/73/3 48/74/3 45/75/3 46/76/3
f 11/26/1 12/25/1 28/77/1 39/71/1
f 4/50/3 3/49/3 37/72/3 29/78/3
f 38/79/1 8/36/1 32/80/1 40/81/1
f 8/36/6 39/65/6 32/80/6
f 7/15/6 67/82/6 63/16/6
f 39/65/2 28/83/2 40/84/2 32/80/2
f 46/85/4 52/86/4 51/87/4 44/88/4
f 45/89/3 50/90/3 52/91/3 46/92/3
f 7/15/6 15/93/6 67/82/6
f 52/86/5 53/94/5 55/95/5 51/87/5
f 5/47/3 31/96/3 1/66/3 2/48/3
f 43/97/1 41/98/1 44/99/1 14/100/1
f 8/36/6 35/35/6 69/45/6 37/44/6
f 56/101/2 60/102/2 58/103/2 54/104/2
f 50/90/5 54/105/5 53/106/5 52/91/5
f 49/30/5 56/101/5 54/104/5 50/31/5
f 51/52/5 55/107/5 56/108/5 49/53/5
f 59/109/6 57/110/6 58/103/6 60/102/6
f 55/107/1 59/109/1 60/102/1 56/108/1
f 53/94/4 57/110/4 59/109/4 55/95/4
f 54/105/3 58/103/3 57/110/3 53/106/3
f 69/45/6 35/35/6 71/111/6
f 45/75/6 67/112/6 15/113/6 14/100/6
f 67/82/4 68/114/4 66/115/4 63/16/4
f 45/75/3 48/74/3 68/116/3 67/112/3
f 44/99/6 69/117/6 71/118/6 46/76/6
f 46/76/3 71/118/3 61/119/3 47/73/3
f 41/98/1 62/120/1 69/117/1 44/99/1
f 70/121/3 72/122/3 65/123/3 35/35/3
f 35/35/6 65/123/6 71/111/6
f 71/111/2 65/123/2 72/124/2 61/125/2
f 64/126/4 15/93/4 1/24/4 31/127/4
f 43/97/1 14/100/1 15/113/1 64/128/1
f 15/93/6 7/15/6 9/3/6 1/24/6
