# Blender v2.78 (sub 0) OBJ File: 'Graveyard.blend'
# www.blender.org
mtllib Grave02.mtl
g Grave02
v -0.594055 0.000000 0.954728
v -0.594055 0.111408 0.954728
v -0.594055 0.000000 -0.954728
v -0.594055 0.111408 -0.954728
v 0.594055 0.000000 0.954728
v 0.594055 0.111408 0.954728
v 0.594055 0.000000 -0.954728
v 0.594055 0.111408 -0.954728
v -0.639327 0.000000 -1.000000
v -0.639327 0.000000 1.000000
v -0.639327 0.111408 1.000000
v -0.639327 0.111408 -1.000000
v 0.639327 0.000000 -1.000000
v 0.639327 0.111408 -1.000000
v 0.639327 0.000000 1.000000
v 0.639327 0.111408 1.000000
vt 0.0001 0.2684
vt 0.0001 0.2127
vt 0.9999 0.2127
vt 0.9999 0.2684
vt 0.0001 0.4027
vt 0.0002 0.3470
vt 0.6393 0.3472
vt 0.6393 0.4029
vt 0.9999 0.0001
vt 0.9999 0.0558
vt 0.0001 0.0558
vt 0.0001 0.0001
vt 0.6393 0.4032
vt 0.6393 0.4588
vt 0.0001 0.4588
vt 0.0001 0.4032
vt 0.0228 0.1341
vt 0.0228 0.0785
vt 0.9772 0.0784
vt 0.9772 0.1341
vt 0.0228 0.5372
vt 0.0228 0.4815
vt 0.6167 0.4815
vt 0.6167 0.5372
vt 0.0228 0.1901
vt 0.9772 0.1901
vt 0.0228 0.3244
vt 0.6167 0.3246
vt 0.6167 0.2689
vt 0.0228 0.2687
vt 0.9772 0.1344
vt 0.0228 0.1344
vn -1.0000 0.0000 0.0000
vn 0.0000 0.0000 -1.0000
vn 1.0000 0.0000 0.0000
vn 0.0000 0.0000 1.0000
vn 0.0000 1.0000 0.0000
usemtl Grave02
s off
f 10/1/1 11/2/1 12/3/1 9/4/1
f 9/5/2 12/6/2 14/7/2 13/8/2
f 13/9/3 14/10/3 16/11/3 15/12/3
f 15/13/4 16/14/4 11/15/4 10/16/4
f 5/17/1 6/18/1 8/19/1 7/20/1
f 1/21/2 2/22/2 6/23/2 5/24/2
f 2/25/5 4/26/5 12/3/5 11/2/5
f 4/27/5 8/28/5 14/7/5 12/6/5
f 8/19/5 6/18/5 16/11/5 14/10/5
f 6/23/5 2/22/5 11/15/5 16/14/5
f 7/29/4 8/28/4 4/27/4 3/30/4
f 3/31/3 4/26/3 2/25/3 1/32/3
