# Blender v2.78 (sub 0) OBJ File: 'Graveyard.blend'
# www.blender.org
mtllib Pillar.mtl
g Pillar02
v -0.493301 0.000000 1.660273
v -0.575630 3.607980 1.742602
v -0.493301 0.000000 0.673670
v -0.575630 3.607980 0.591341
v 0.493301 0.000000 1.660273
v 0.575630 3.607980 1.742602
v 0.493301 0.000000 0.673670
v 0.575630 3.607980 0.591341
v -0.493301 3.343559 1.660273
v -0.493301 3.343559 0.673670
v 0.493301 3.343559 0.673670
v 0.493301 3.343559 1.660273
v -0.575630 3.343559 1.742602
v -0.575630 3.343559 0.591341
v 0.575630 3.343559 0.591341
v 0.575630 3.343559 1.742602
vt 0.8056 0.2758
vt 0.6582 0.2759
vt 0.6459 0.2635
vt 0.8180 0.2635
vt 0.8180 0.2240
vt 0.6459 0.2240
vt 0.6459 0.0520
vt 0.8180 0.0520
vt 0.5941 0.2117
vt 0.5941 0.0643
vt 0.6064 0.0520
vt 0.6064 0.2240
vt 0.8698 0.0643
vt 0.8698 0.2117
vt 0.8575 0.2240
vt 0.8575 0.0520
vt 0.1476 0.9998
vt 0.1476 0.5002
vt 0.2950 0.5002
vt 0.2950 0.9998
vt 0.8180 0.0125
vt 0.6459 0.0125
vt 0.0002 0.9998
vt 0.0002 0.5002
vt 0.4425 0.5002
vt 0.4425 0.9998
vt 0.6582 0.0002
vt 0.8056 0.0002
vt 0.5899 0.9998
vt 0.5899 0.5002
vn 0.0000 -1.0000 -0.0000
vn 0.0000 1.0000 0.0000
vn 0.0000 0.0000 -1.0000
vn -1.0000 0.0000 0.0000
vn 1.0000 0.0000 0.0000
vn 0.0000 0.0000 1.0000
usemtl Pillar
s off
f 11/1/1 10/2/1 14/3/1 15/4/1
f 8/5/2 4/6/2 2/7/2 6/8/2
f 10/9/1 9/10/1 13/11/1 14/12/1
f 12/13/1 11/14/1 15/15/1 16/16/1
f 11/17/3 7/18/3 3/19/3 10/20/3
f 13/11/4 2/7/4 4/6/4 14/12/4
f 15/15/5 8/5/5 6/8/5 16/16/5
f 16/21/6 6/8/6 2/7/6 13/22/6
f 14/3/3 4/6/3 8/5/3 15/4/3
f 12/23/5 5/24/5 7/18/5 11/17/5
f 3/19/4 1/25/4 9/26/4 10/20/4
f 9/27/1 12/28/1 16/21/1 13/22/1
f 12/29/6 9/26/6 1/25/6 5/30/6
g Pillar01
v 0.001982 2.425120 -0.650445
v 0.002417 2.387989 -0.646908
v 0.004363 2.425120 -0.648854
v 0.003412 2.387989 -0.645419
v 0.005955 2.425120 -0.646472
v 0.003761 2.387989 -0.643663
v 0.006513 2.425120 -0.643663
v 0.003412 2.387989 -0.641907
v 0.005955 2.425120 -0.640854
v -0.000827 2.425120 -0.636322
v -0.000827 2.387989 -0.639075
v 0.001982 2.425120 -0.636881
v 0.000929 2.387989 -0.639424
v 0.004363 2.425120 -0.638473
v 0.002417 2.387989 -0.640419
v 0.000929 2.387989 -0.647902
v -0.000827 2.425120 -0.651004
v -0.000827 2.387989 -0.648252
v -0.003636 2.425120 -0.650445
v -0.002583 2.387989 -0.647902
v -0.006018 2.425120 -0.648854
v -0.004072 2.387989 -0.646908
v -0.007609 2.425120 -0.646472
v -0.005066 2.387989 -0.645419
v -0.008168 2.425120 -0.643663
v -0.005416 2.387989 -0.643663
v -0.007609 2.425120 -0.640854
v -0.005066 2.387989 -0.641907
v -0.006018 2.425120 -0.638473
v -0.004072 2.387989 -0.640419
v -0.003636 2.425120 -0.636881
v -0.002583 2.387989 -0.639424
v 0.004363 2.387989 -0.638473
v 0.001982 2.387989 -0.636881
v -0.000827 2.387989 -0.636322
v 0.005955 2.387989 -0.640854
v 0.006513 2.387989 -0.643663
v 0.005955 2.387989 -0.646472
v 0.004363 2.387989 -0.648854
v 0.001982 2.387989 -0.650445
v -0.000827 2.387989 -0.651004
v -0.003636 2.387989 -0.650445
v -0.006018 2.387989 -0.648854
v -0.007609 2.387989 -0.646472
v -0.008168 2.387989 -0.643663
v -0.007609 2.387989 -0.640854
v -0.006018 2.387989 -0.638473
v -0.003636 2.387989 -0.636881
v 0.002417 2.385459 -0.640419
v 0.000929 2.385459 -0.639424
v -0.000827 2.385459 -0.639075
v 0.003412 2.385459 -0.641907
v 0.003761 2.385459 -0.643663
v 0.003412 2.385459 -0.645419
v 0.002417 2.385459 -0.646908
v 0.000929 2.385459 -0.647902
v -0.000827 2.385459 -0.648252
v -0.002583 2.385459 -0.647902
v -0.004072 2.385459 -0.646908
v -0.005066 2.385459 -0.645419
v -0.005416 2.385459 -0.643663
v -0.005066 2.385459 -0.641907
v -0.004072 2.385459 -0.640419
v -0.002583 2.385459 -0.639424
v -0.000827 2.425120 -0.643663
v 0.001982 0.898179 -0.650445
v 0.002417 0.861049 -0.646908
v 0.004363 0.898179 -0.648854
v 0.003412 0.861049 -0.645419
v 0.005955 0.898179 -0.646472
v 0.003761 0.861049 -0.643663
v 0.006513 0.898179 -0.643663
v 0.003412 0.861049 -0.641907
v 0.005955 0.898179 -0.640854
v -0.000827 0.898179 -0.636322
v -0.000827 0.861049 -0.639075
v 0.001982 0.898179 -0.636881
v 0.000929 0.861049 -0.639424
v 0.004363 0.898179 -0.638473
v 0.002417 0.861049 -0.640419
v 0.000929 0.861049 -0.647902
v -0.000827 0.898179 -0.651004
v -0.000827 0.861049 -0.648252
v -0.003637 0.898179 -0.650445
v -0.002583 0.861049 -0.647902
v -0.006018 0.898179 -0.648854
v -0.004072 0.861049 -0.646908
v -0.007609 0.898179 -0.646472
v -0.005066 0.861049 -0.645419
v -0.008168 0.898179 -0.643663
v -0.005416 0.861049 -0.643663
v -0.007609 0.898179 -0.640854
v -0.005066 0.861049 -0.641907
v -0.006018 0.898179 -0.638473
v -0.004072 0.861049 -0.640419
v -0.003636 0.898179 -0.636881
v -0.002583 0.861049 -0.639424
v 0.004363 0.861049 -0.638473
v 0.001982 0.861049 -0.636881
v -0.000827 0.861049 -0.636322
v 0.005955 0.861049 -0.640854
v 0.006513 0.861049 -0.643663
v 0.005955 0.861049 -0.646472
v 0.004363 0.861049 -0.648854
v 0.001982 0.861049 -0.650445
v -0.000827 0.861049 -0.651004
v -0.003637 0.861049 -0.650445
v -0.006018 0.861049 -0.648854
v -0.007609 0.861049 -0.646472
v -0.008168 0.861049 -0.643663
v -0.007609 0.861049 -0.640854
v -0.006018 0.861049 -0.638473
v -0.003636 0.861049 -0.636881
v 0.002417 0.858519 -0.640419
v 0.000929 0.858519 -0.639424
v -0.000827 0.858519 -0.639075
v 0.003412 0.858519 -0.641907
v 0.003761 0.858519 -0.643663
v 0.003412 0.858519 -0.645419
v 0.002417 0.858519 -0.646908
v 0.000929 0.858519 -0.647902
v -0.000827 0.858519 -0.648252
v -0.002583 0.858519 -0.647902
v -0.004072 0.858519 -0.646908
v -0.005066 0.858519 -0.645419
v -0.005416 0.858519 -0.643663
v -0.005066 0.858519 -0.641907
v -0.004072 0.858519 -0.640419
v -0.002583 0.858519 -0.639424
v -0.000827 0.898179 -0.643663
v -0.493301 0.000000 -0.673671
v -0.575630 3.607980 -0.591341
v -0.493301 0.000000 -1.660273
v -0.575630 3.607980 -1.742602
v 0.493301 0.000000 -0.673671
v 0.575630 3.607980 -0.591341
v 0.493301 0.000000 -1.660273
v 0.575630 3.607980 -1.742602
v -0.493301 3.343559 -0.673671
v -0.493301 3.343559 -1.660273
v 0.493301 3.343559 -1.660273
v 0.493301 3.343559 -0.673671
v -0.575630 3.343559 -0.591341
v -0.575630 3.343559 -1.742602
v 0.575630 3.343559 -1.742602
v 0.575630 3.343559 -0.591341
v 0.027469 3.343559 -0.673671
v -0.024975 3.343559 -0.673671
v -0.024975 0.000000 -0.673671
v 0.027469 0.000000 -0.673671
v 0.027469 2.345012 -0.673671
v -0.024975 2.345012 -0.673671
v 0.027469 2.439121 -0.673671
v -0.024975 2.439121 -0.673671
v 0.027469 0.921266 -0.673671
v -0.024975 0.921266 -0.673671
v 0.027469 0.832448 -0.673671
v -0.024975 0.832448 -0.673671
v 0.027469 2.345012 -0.651072
v -0.024975 2.345012 -0.651072
v 0.027469 2.439121 -0.651072
v -0.024975 2.439121 -0.651072
v 0.027469 0.921266 -0.651072
v -0.024975 0.921266 -0.651072
v 0.027469 0.832448 -0.651072
v -0.024975 0.832448 -0.651072
v 0.027469 2.345012 -0.660855
v -0.024975 2.345012 -0.660855
v 0.027469 0.921266 -0.660855
v -0.024975 0.921266 -0.660855
v -0.024975 0.000000 -0.660855
v 0.027469 0.000000 -0.660855
v 0.027469 0.832448 -0.660855
v -0.024975 0.832448 -0.660855
v 0.027469 3.343559 -0.660855
v -0.024975 3.343559 -0.660855
v 0.027469 2.439121 -0.660855
v -0.024975 2.439121 -0.660855
vt 0.5975 0.3215
vt 0.5975 0.3160
vt 0.5979 0.3160
vt 0.5979 0.3215
vt 0.5984 0.3160
vt 0.5984 0.3215
vt 0.5988 0.3160
vt 0.5988 0.3215
vt 0.5992 0.3160
vt 0.5992 0.3215
vt 0.5997 0.3160
vt 0.5997 0.3215
vt 0.6001 0.3160
vt 0.6001 0.3215
vt 0.6005 0.3160
vt 0.6005 0.3215
vt 0.6009 0.3160
vt 0.6009 0.3215
vt 0.5941 0.3215
vt 0.5941 0.3160
vt 0.5945 0.3160
vt 0.5945 0.3215
vt 0.5949 0.3160
vt 0.5949 0.3215
vt 0.5954 0.3160
vt 0.5954 0.3215
vt 0.5958 0.3160
vt 0.5958 0.3215
vt 0.5962 0.3160
vt 0.5962 0.3215
vt 0.5967 0.3160
vt 0.5967 0.3215
vt 0.5956 0.3319
vt 0.5959 0.3321
vt 0.5956 0.3324
vt 0.5954 0.3323
vt 0.5971 0.3160
vt 0.5971 0.3215
vt 0.5946 0.3270
vt 0.5950 0.3268
vt 0.5952 0.3279
vt 0.5957 0.3233
vt 0.5958 0.3231
vt 0.5962 0.3231
vt 0.5961 0.3235
vt 0.5955 0.3235
vt 0.5958 0.3238
vt 0.5958 0.3228
vt 0.5962 0.3227
vt 0.5957 0.3225
vt 0.5961 0.3223
vt 0.5955 0.3224
vt 0.5958 0.3220
vt 0.5953 0.3223
vt 0.5954 0.3218
vt 0.5950 0.3223
vt 0.5950 0.3218
vt 0.5948 0.3224
vt 0.5946 0.3220
vt 0.5946 0.3225
vt 0.5943 0.3223
vt 0.5945 0.3228
vt 0.5941 0.3227
vt 0.5945 0.3231
vt 0.5941 0.3231
vt 0.5946 0.3233
vt 0.5943 0.3235
vt 0.5948 0.3235
vt 0.5946 0.3238
vt 0.5950 0.3236
vt 0.5950 0.3240
vt 0.5953 0.3236
vt 0.5954 0.3240
vt 0.5962 0.3277
vt 0.5962 0.3281
vt 0.5947 0.3337
vt 0.5943 0.3335
vt 0.5946 0.3332
vt 0.5948 0.3333
vt 0.5952 0.3318
vt 0.5952 0.3322
vt 0.5951 0.3337
vt 0.5951 0.3334
vt 0.5948 0.3319
vt 0.5949 0.3323
vt 0.5960 0.3332
vt 0.5958 0.3335
vt 0.5955 0.3332
vt 0.5957 0.3330
vt 0.5954 0.3337
vt 0.5953 0.3333
vt 0.5945 0.3321
vt 0.5947 0.3324
vt 0.5942 0.3324
vt 0.5946 0.3326
vt 0.5961 0.3329
vt 0.5957 0.3328
vt 0.5941 0.3327
vt 0.5945 0.3328
vt 0.5961 0.3324
vt 0.5957 0.3326
vt 0.5941 0.3331
vt 0.5945 0.3330
vt 0.5950 0.3290
vt 0.5946 0.3288
vt 0.5943 0.3273
vt 0.5958 0.3270
vt 0.5961 0.3273
vt 0.5958 0.3288
vt 0.5954 0.3290
vt 0.5954 0.3268
vt 0.5941 0.3281
vt 0.5941 0.3277
vt 0.5961 0.3285
vt 0.5943 0.3285
vt 0.5975 0.3156
vt 0.5975 0.3101
vt 0.5979 0.3101
vt 0.5979 0.3156
vt 0.5984 0.3101
vt 0.5984 0.3156
vt 0.5988 0.3101
vt 0.5988 0.3156
vt 0.5992 0.3101
vt 0.5992 0.3156
vt 0.5997 0.3101
vt 0.5997 0.3156
vt 0.6001 0.3101
vt 0.6001 0.3156
vt 0.6005 0.3101
vt 0.6005 0.3156
vt 0.6009 0.3101
vt 0.6009 0.3156
vt 0.5941 0.3156
vt 0.5941 0.3101
vt 0.5945 0.3101
vt 0.5945 0.3156
vt 0.5949 0.3101
vt 0.5949 0.3156
vt 0.5954 0.3101
vt 0.5954 0.3156
vt 0.5958 0.3101
vt 0.5958 0.3156
vt 0.5962 0.3101
vt 0.5962 0.3156
vt 0.5967 0.3101
vt 0.5967 0.3156
vt 0.5960 0.3345
vt 0.5962 0.3348
vt 0.5958 0.3349
vt 0.5957 0.3347
vt 0.5971 0.3101
vt 0.5971 0.3156
vt 0.5958 0.3295
vt 0.5961 0.3298
vt 0.5952 0.3304
vt 0.5950 0.3261
vt 0.5953 0.3261
vt 0.5954 0.3265
vt 0.5950 0.3265
vt 0.5948 0.3260
vt 0.5946 0.3263
vt 0.5955 0.3260
vt 0.5958 0.3263
vt 0.5957 0.3258
vt 0.5961 0.3260
vt 0.5958 0.3256
vt 0.5962 0.3256
vt 0.5958 0.3253
vt 0.5962 0.3252
vt 0.5957 0.3250
vt 0.5961 0.3248
vt 0.5955 0.3249
vt 0.5958 0.3245
vt 0.5953 0.3247
vt 0.5954 0.3243
vt 0.5950 0.3247
vt 0.5950 0.3243
vt 0.5948 0.3249
vt 0.5946 0.3245
vt 0.5946 0.3250
vt 0.5943 0.3248
vt 0.5945 0.3253
vt 0.5941 0.3252
vt 0.5945 0.3256
vt 0.5941 0.3256
vt 0.5946 0.3258
vt 0.5943 0.3260
vt 0.5958 0.3313
vt 0.5954 0.3315
vt 0.5943 0.3356
vt 0.5941 0.3352
vt 0.5945 0.3351
vt 0.5946 0.3353
vt 0.5957 0.3342
vt 0.5955 0.3346
vt 0.5946 0.3358
vt 0.5948 0.3355
vt 0.5953 0.3341
vt 0.5952 0.3345
vt 0.5957 0.3358
vt 0.5954 0.3360
vt 0.5953 0.3355
vt 0.5955 0.3355
vt 0.5950 0.3360
vt 0.5950 0.3355
vt 0.5949 0.3341
vt 0.5950 0.3345
vt 0.5945 0.3342
vt 0.5947 0.3346
vt 0.5960 0.3356
vt 0.5957 0.3353
vt 0.5943 0.3345
vt 0.5945 0.3347
vt 0.5962 0.3352
vt 0.5959 0.3351
vt 0.5941 0.3348
vt 0.5944 0.3349
vt 0.5941 0.3306
vt 0.5941 0.3302
vt 0.5954 0.3293
vt 0.5962 0.3306
vt 0.5961 0.3310
vt 0.5946 0.3313
vt 0.5943 0.3310
vt 0.5962 0.3302
vt 0.5946 0.3295
vt 0.5950 0.3293
vt 0.5950 0.3315
vt 0.5943 0.3298
vt 0.8777 0.5760
vt 0.8777 0.7235
vt 0.8654 0.7358
vt 0.8654 0.5637
vt 0.8259 0.5637
vt 0.8259 0.7358
vt 0.6538 0.7358
vt 0.6538 0.5637
vt 0.8136 0.7876
vt 0.6661 0.7876
vt 0.6538 0.7753
vt 0.8259 0.7753
vt 0.6661 0.5119
vt 0.8136 0.5119
vt 0.8259 0.5242
vt 0.6538 0.5242
vt 0.1476 0.4998
vt 0.1476 0.0002
vt 0.2950 0.0002
vt 0.2950 0.4998
vt 0.5125 0.3647
vt 0.5125 0.4998
vt 0.4425 0.4998
vt 0.6143 0.5637
vt 0.6143 0.7358
vt 0.6039 0.6457
vt 0.6020 0.6457
vt 0.6020 0.5760
vt 0.5125 0.1378
vt 0.5125 0.3506
vt 0.4425 0.0002
vt 0.5125 0.1246
vt 0.0002 0.4998
vt 0.0002 0.0002
vt 0.5125 0.0002
vt 0.5937 0.0002
vt 0.5241 0.1246
vt 0.5241 0.0002
vt 0.5222 0.1246
vt 0.5222 0.0002
vt 0.5241 0.1378
vt 0.5241 0.3647
vt 0.5241 0.4998
vt 0.5222 0.4998
vt 0.5222 0.3647
vt 0.5937 0.4998
vt 0.5241 0.3506
vt 0.6087 0.2950
vt 0.6087 0.3083
vt 0.6068 0.3083
vt 0.6053 0.3097
vt 0.5975 0.3097
vt 0.5975 0.3083
vt 0.6053 0.3083
vt 0.5144 0.3647
vt 0.5144 0.4998
vt 0.6053 0.2950
vt 0.5975 0.2950
vt 0.6053 0.2777
vt 0.6053 0.2917
vt 0.5975 0.2917
vt 0.5975 0.2777
vt 0.5941 0.3083
vt 0.5941 0.2950
vt 0.5960 0.3083
vt 0.5144 0.1246
vt 0.5144 0.0002
vt 0.5975 0.2762
vt 0.6053 0.2762
vt 0.5975 0.2932
vt 0.6053 0.2932
vt 0.5222 0.1378
vt 0.5222 0.3506
vt 0.5144 0.3506
vt 0.5144 0.1378
vt 0.6068 0.2950
vt 0.5975 0.2935
vt 0.6053 0.2935
vt 0.5960 0.2950
vt 0.6039 0.6535
vt 0.6020 0.7235
vt 0.6020 0.6535
vt 0.6068 0.2917
vt 0.6068 0.2777
vt 0.6087 0.2777
vt 0.6087 0.2917
vt 0.5960 0.2917
vt 0.5960 0.2777
vt 0.5941 0.2777
vt 0.5941 0.2917
vn 0.1951 0.0000 0.9808
vn 0.5556 0.0000 0.8315
vn 0.8315 0.0000 0.5556
vn 0.9808 0.0000 0.1951
vn 0.9808 0.0000 -0.1951
vn 0.8315 0.0000 -0.5556
vn 0.5556 0.0000 -0.8315
vn 0.1951 0.0000 -0.9808
vn -0.1951 0.0000 -0.9808
vn -0.5556 0.0000 -0.8315
vn -0.8315 0.0000 -0.5556
vn -0.9808 0.0000 -0.1951
vn -0.9808 0.0000 0.1951
vn -0.8315 0.0000 0.5556
vn 0.8314 0.0000 -0.5556
vn -0.5556 0.0000 0.8315
vn -0.1951 0.0000 0.9808
vn 0.0000 1.0000 0.0000
vn 0.0000 -1.0000 0.0001
vn 0.0000 -1.0000 0.0000
vn 0.0000 -1.0000 -0.0001
vn -0.8314 0.0000 0.5556
vn 0.5556 0.0000 0.8314
vn 0.8314 0.0000 0.5556
vn -0.8314 0.0000 -0.5556
vn -0.5555 0.0000 0.8315
vn 0.0000 0.0000 -1.0000
vn 0.0000 0.0000 1.0000
vn -1.0000 0.0000 0.0000
vn 1.0000 0.0000 0.0000
usemtl Pillar
s off
f 26/31/7 51/32/7 50/33/7 28/34/7
f 28/34/8 50/33/8 49/35/8 30/36/8
f 30/36/9 49/35/9 52/37/9 25/38/9
f 25/38/10 52/37/10 53/39/10 23/40/10
f 23/40/11 53/39/11 54/41/11 21/42/11
f 21/42/12 54/41/12 55/43/12 19/44/12
f 19/44/13 55/43/13 56/45/13 17/46/13
f 17/46/14 56/45/14 57/47/14 33/48/14
f 33/49/15 57/50/15 58/51/15 35/52/15
f 35/52/16 58/51/16 59/53/16 37/54/16
f 37/54/17 59/53/17 60/55/17 39/56/17
f 39/56/18 60/55/18 61/57/18 41/58/18
f 41/58/19 61/57/19 62/59/19 43/60/19
f 43/60/20 62/59/20 63/61/20 45/62/20
f 18/63/21 20/64/21 70/65/21 71/66/21
f 45/62/22 63/61/22 64/67/22 47/68/22
f 47/68/23 64/67/23 51/32/23 26/31/23
f 26/69/24 28/70/24 81/71/24
f 29/72/25 31/73/25 49/74/25 50/75/25
f 27/76/26 29/72/26 50/75/26 51/77/26
f 31/73/26 24/78/26 52/79/26 49/74/26
f 24/78/26 22/80/26 53/81/26 52/79/26
f 22/80/26 20/82/26 54/83/26 53/81/26
f 20/82/26 18/84/26 55/85/26 54/83/26
f 18/84/27 32/86/27 56/87/27 55/85/27
f 32/86/26 34/88/26 57/89/26 56/87/26
f 34/88/26 36/90/26 58/91/26 57/89/26
f 36/90/27 38/92/27 59/93/27 58/91/27
f 38/92/26 40/94/26 60/95/26 59/93/26
f 40/94/26 42/96/26 61/97/26 60/95/26
f 42/96/26 44/98/26 62/99/26 61/97/26
f 44/98/26 46/100/26 63/101/26 62/99/26
f 46/100/25 48/102/25 64/103/25 63/101/25
f 48/102/26 27/76/26 51/77/26 64/103/26
f 21/104/24 19/105/24 81/71/24
f 46/106/28 44/107/28 78/108/28 79/109/28
f 32/110/13 18/63/13 71/66/13 72/111/13
f 48/112/22 46/106/22 79/109/22 80/113/22
f 34/114/14 32/110/14 72/111/14 73/115/14
f 31/116/29 29/117/29 66/118/29 65/119/29
f 27/120/23 48/112/23 80/113/23 67/121/23
f 36/122/15 34/114/15 73/115/15 74/123/15
f 29/117/7 27/120/7 67/121/7 66/118/7
f 38/124/16 36/122/16 74/123/16 75/125/16
f 24/126/30 31/116/30 65/119/30 68/127/30
f 40/128/31 38/124/31 75/125/31 76/129/31
f 22/130/10 24/126/10 68/127/10 69/131/10
f 42/132/18 40/128/18 76/129/18 77/133/18
f 20/64/11 22/130/11 69/131/11 70/65/11
f 44/107/19 42/132/19 77/133/19 78/108/19
f 37/134/24 39/135/24 81/71/24
f 47/136/24 26/69/24 81/71/24
f 25/137/24 23/138/24 81/71/24
f 33/139/24 35/140/24 81/71/24
f 28/70/24 30/141/24 81/71/24
f 43/142/24 45/143/24 81/71/24
f 19/105/24 17/144/24 81/71/24
f 39/135/24 41/145/24 81/71/24
f 23/138/24 21/104/24 81/71/24
f 35/140/24 37/134/24 81/71/24
f 45/143/24 47/136/24 81/71/24
f 30/141/24 25/137/24 81/71/24
f 17/144/24 33/139/24 81/71/24
f 41/145/24 43/142/24 81/71/24
f 91/146/7 116/147/7 115/148/7 93/149/7
f 93/149/8 115/148/8 114/150/8 95/151/8
f 95/151/9 114/150/9 117/152/9 90/153/9
f 90/153/10 117/152/10 118/154/10 88/155/10
f 88/155/11 118/154/11 119/156/11 86/157/11
f 86/157/12 119/156/12 120/158/12 84/159/12
f 84/159/13 120/158/13 121/160/13 82/161/13
f 82/161/14 121/160/14 122/162/14 98/163/14
f 98/164/15 122/165/15 123/166/15 100/167/15
f 100/167/16 123/166/16 124/168/16 102/169/16
f 102/169/17 124/168/17 125/170/17 104/171/17
f 104/171/18 125/170/18 126/172/18 106/173/18
f 106/173/19 126/172/19 127/174/19 108/175/19
f 108/175/20 127/174/20 128/176/20 110/177/20
f 83/178/12 85/179/12 135/180/12 136/181/12
f 110/177/32 128/176/32 129/182/32 112/183/32
f 112/183/23 129/182/23 116/147/23 91/146/23
f 91/184/24 93/185/24 146/186/24
f 94/187/26 96/188/26 114/189/26 115/190/26
f 92/191/26 94/187/26 115/190/26 116/192/26
f 96/188/26 89/193/26 117/194/26 114/189/26
f 89/193/26 87/195/26 118/196/26 117/194/26
f 87/195/26 85/197/26 119/198/26 118/196/26
f 85/197/26 83/199/26 120/200/26 119/198/26
f 83/199/26 97/201/26 121/202/26 120/200/26
f 97/201/26 99/203/26 122/204/26 121/202/26
f 99/203/26 101/205/26 123/206/26 122/204/26
f 101/205/26 103/207/26 124/208/26 123/206/26
f 103/207/26 105/209/26 125/210/26 124/208/26
f 105/209/26 107/211/26 126/212/26 125/210/26
f 107/211/26 109/213/26 127/214/26 126/212/26
f 109/213/26 111/215/26 128/216/26 127/214/26
f 111/215/26 113/217/26 129/218/26 128/216/26
f 113/217/26 92/191/26 116/192/26 129/218/26
f 86/219/24 84/220/24 146/186/24
f 111/221/20 109/222/20 143/223/20 144/224/20
f 97/225/13 83/178/13 136/181/13 137/226/13
f 113/227/22 111/221/22 144/224/22 145/228/22
f 99/229/14 97/225/14 137/226/14 138/230/14
f 96/231/8 94/232/8 131/233/8 130/234/8
f 92/235/23 113/227/23 145/228/23 132/236/23
f 101/237/15 99/229/15 138/230/15 139/238/15
f 94/232/7 92/235/7 132/236/7 131/233/7
f 103/239/16 101/237/16 139/238/16 140/240/16
f 89/241/9 96/231/9 130/234/9 133/242/9
f 105/243/17 103/239/17 140/240/17 141/244/17
f 87/245/10 89/241/10 133/242/10 134/246/10
f 107/247/18 105/243/18 141/244/18 142/248/18
f 85/179/11 87/245/11 134/246/11 135/180/11
f 109/222/19 107/247/19 142/248/19 143/223/19
f 102/249/24 104/250/24 146/186/24
f 112/251/24 91/184/24 146/186/24
f 90/252/24 88/253/24 146/186/24
f 98/254/24 100/255/24 146/186/24
f 93/185/24 95/256/24 146/186/24
f 108/257/24 110/258/24 146/186/24
f 84/220/24 82/259/24 146/186/24
f 104/250/24 106/260/24 146/186/24
f 88/253/24 86/219/24 146/186/24
f 100/255/24 102/249/24 146/186/24
f 110/258/24 112/251/24 146/186/24
f 95/256/24 90/252/24 146/186/24
f 82/259/24 98/254/24 146/186/24
f 106/260/24 108/257/24 146/186/24
f 157/261/26 156/262/26 160/263/26 161/264/26
f 154/265/24 150/266/24 148/267/24 152/268/24
f 156/269/26 155/270/26 159/271/26 160/272/26
f 158/273/26 157/274/26 161/275/26 162/276/26
f 157/277/33 153/278/33 149/279/33 156/280/33
f 170/281/34 164/282/34 155/283/34
f 159/271/35 148/267/35 150/266/35 160/272/35
f 161/275/36 154/265/36 152/268/36 162/276/36
f 162/284/34 152/268/34 148/267/34 159/285/34
f 160/263/33 150/266/33 154/265/33 161/264/33
f 191/286/26 163/287/26 158/288/26
f 172/289/34 168/290/34 155/283/34 147/291/34
f 168/290/34 170/281/34 155/283/34
f 174/292/34 172/289/34 147/291/34
f 158/293/36 151/294/36 153/278/36 157/277/36
f 165/295/34 174/292/34 147/291/34
f 151/296/34 173/297/34 166/298/34
f 166/298/36 173/297/36 189/299/36 188/300/36
f 151/296/34 171/301/34 173/297/34
f 169/302/36 163/303/36 191/304/36 193/305/36
f 158/306/34 169/302/34 167/307/34
f 173/308/36 171/309/36 185/310/36
f 151/296/34 158/306/34 167/307/34 171/301/34
f 185/311/24 186/312/24 180/313/24 179/314/24
f 158/306/34 163/303/34 169/302/34
f 164/282/35 170/281/35 194/315/35 192/316/35
f 181/317/34 179/314/34 180/313/34 182/318/34
f 175/319/34 177/320/34 178/321/34 176/322/34
f 172/323/35 174/324/35 186/325/35
f 188/300/34 189/299/34 190/326/34 187/327/34
f 176/322/26 184/328/26 183/329/26 175/319/26
f 194/330/24 178/321/24 177/320/24 193/331/24
f 193/305/34 191/304/34 192/316/34 194/315/34
f 185/332/34 183/333/34 184/334/34 186/335/34
f 168/290/35 172/289/35 186/335/35 184/334/35
f 171/301/36 167/307/36 183/333/36 185/332/36
f 185/310/36 189/336/36 173/308/36
f 182/318/26 190/337/26 189/338/26 181/317/26
f 174/292/35 165/295/35 187/327/35 190/326/35
f 174/324/35 190/339/35 186/325/35
f 192/340/26 155/341/26 164/342/26
f 182/318/35 180/313/35 186/325/35 190/339/35
f 185/310/36 179/314/36 181/317/36 189/336/36
f 159/285/26 155/341/26 192/340/26
f 193/343/36 177/320/36 175/319/36 183/344/36
f 167/345/36 169/346/36 193/343/36 183/344/36
f 194/347/35 184/348/35 176/322/35 178/321/35
f 168/349/35 184/348/35 194/347/35 170/350/35
f 162/284/26 159/285/26 192/340/26 191/286/26
f 158/288/26 162/284/26 191/286/26
f 149/279/35 147/291/35 155/283/35 156/280/35
