# Blender v2.78 (sub 0) OBJ File: 'Graveyard.blend'
# www.blender.org
mtllib Planks.mtl
g Plank02
v 0.001353 0.000069 -0.084308
v 0.002247 1.092122 -0.096260
v 0.001353 -0.003745 0.077732
v 0.002247 1.099962 0.089684
v -0.018196 0.000069 -0.084308
v -0.019090 1.092122 -0.096260
v -0.018196 -0.003745 0.077732
v -0.019090 1.099962 0.089684
v -0.002324 0.270899 -0.088514
v 0.002329 0.545542 -0.093421
v 0.009151 0.820185 -0.091333
v 0.009151 0.820185 0.084757
v 0.002329 0.545542 0.086845
v -0.002324 0.270899 0.081938
v -0.022904 0.820185 0.084757
v -0.019173 0.545542 0.086845
v -0.025382 0.270899 0.081938
v -0.022904 0.820185 -0.091333
v -0.019173 0.545542 -0.093421
v -0.025382 0.270899 -0.088514
v 0.001353 -0.003745 -0.033658
v 0.001353 -0.003745 -0.052020
v 0.002247 1.096981 -0.064564
v 0.002247 1.099133 -0.038417
v -0.018196 -0.003745 -0.052020
v -0.018196 -0.003745 -0.033658
v -0.019090 1.099133 -0.038417
v -0.019090 1.096981 -0.064564
v 0.001353 0.000949 -0.045686
v 0.002247 1.097409 -0.049577
v -0.018196 0.000949 -0.045686
v -0.019090 1.097409 -0.049577
v 0.002247 1.099672 0.010079
v 0.002247 1.099967 0.025634
v 0.002247 1.100748 0.044036
v -0.018196 -0.003745 0.012150
v -0.018196 0.003745 0.022037
v -0.018196 -0.003745 0.045121
v 0.001353 -0.003745 0.045121
v 0.001353 0.003745 0.022037
v 0.001353 -0.003745 0.012150
v -0.019090 1.100748 0.044036
v -0.019090 1.099967 0.025634
v -0.019090 1.099672 0.010079
v 0.001353 -0.002158 -0.010754
v -0.019090 1.096394 -0.009641
v -0.025382 0.270899 -0.010149
v -0.019173 0.545542 -0.009827
v -0.022904 0.820185 -0.009964
v 0.002247 1.096394 -0.009641
v -0.018196 -0.002158 -0.010754
v -0.002324 0.270899 -0.010149
v 0.002329 0.545542 -0.009827
v 0.009151 0.820185 -0.009964
vt 0.5560 0.6993
vt 0.5905 0.9373
vt 0.5518 0.9367
vt 0.2046 0.7161
vt 0.1946 0.9543
vt 0.1765 0.9540
vt 0.1773 0.7157
vt 0.0275 0.7125
vt 0.0454 0.9487
vt 0.0184 0.9443
vt 0.0002 0.9439
vt 0.0002 0.7118
vt 0.0738 0.0015
vt 0.0747 0.0172
vt 0.0478 0.0196
vt 0.0467 0.0033
vt 0.0432 0.9668
vt 0.0157 0.9627
vt 0.0401 0.2466
vt 0.0207 0.2458
vt 0.0314 0.0186
vt 0.0308 0.4790
vt 0.0125 0.4786
vt 0.1017 0.4805
vt 0.1061 0.2480
vt 0.0967 0.7140
vt 0.2027 0.0167
vt 0.2033 0.2495
vt 0.1838 0.2494
vt 0.1861 0.0169
vt 0.2020 0.4825
vt 0.1837 0.4821
vt 0.5896 0.0002
vt 0.5584 0.2332
vt 0.5620 0.0002
vt 0.7054 0.6993
vt 0.6363 0.6993
vt 0.6362 0.4662
vt 0.7071 0.4662
vt 0.6994 0.0035
vt 0.7030 0.2332
vt 0.6720 0.0002
vt 0.6666 0.0042
vt 0.6564 0.0002
vt 0.1102 0.0180
vt 0.0912 0.0169
vt 0.0807 0.0190
vt 0.0919 0.9501
vt 0.0911 0.9687
vt 0.0665 0.9686
vt 0.0673 0.9508
vt 0.0580 0.9496
vt 0.0565 0.9680
vt 0.1105 0.0019
vt 0.0913 0.0012
vt 0.0803 0.0016
vt 0.7096 0.9300
vt 0.6827 0.9341
vt 0.6700 0.9345
vt 0.6605 0.9359
vt 0.1376 0.9537
vt 0.1220 0.9529
vt 0.1089 0.9523
vt 0.1857 0.0002
vt 0.1588 0.0167
vt 0.1580 0.0010
vt 0.1386 0.0206
vt 0.1384 0.0034
vt 0.1291 0.0173
vt 0.1292 0.0024
vt 0.1762 0.9723
vt 0.1371 0.9719
vt 0.1211 0.9710
vt 0.1078 0.9701
vt 0.5542 0.4662
vt 0.6365 0.2332
vt 0.6370 0.0016
vt 0.6176 0.0002
vt 0.6092 0.0066
vt 0.6361 0.9336
vt 0.6193 0.9364
vt 0.6062 0.9367
vn 0.9997 0.0247 0.0004
vn 0.0000 -0.0176 0.9998
vn -0.9999 0.0140 -0.0021
vn 0.0000 -0.0181 -0.9998
vn 0.0000 -0.9931 -0.1173
vn 0.0000 0.9885 -0.1515
vn 0.0000 -0.0155 -0.9999
vn 0.0000 -0.0179 -0.9998
vn 0.0000 0.0076 -1.0000
vn -0.9996 -0.0266 -0.0031
vn -0.9997 0.0226 0.0000
vn -0.9999 -0.0136 0.0000
vn 0.0000 -0.0153 0.9999
vn 0.0000 -0.0179 0.9998
vn 0.0000 0.0076 1.0000
vn 0.9999 0.0134 0.0000
vn 0.9997 -0.0248 0.0000
vn 0.9999 0.0136 0.0016
vn 0.9999 0.0145 0.0057
vn -0.9997 -0.0262 0.0004
vn -0.9996 -0.0238 0.0176
vn 0.0000 0.9955 0.0948
vn 0.0000 0.9996 -0.0285
vn 0.0000 -0.9976 0.0691
vn 0.0000 -0.8035 0.5953
vn -0.9999 0.0137 0.0003
vn -0.9999 0.0138 -0.0004
vn 0.9997 0.0253 -0.0039
vn 0.9997 0.0255 -0.0039
vn 0.9997 0.0250 -0.0007
vn -0.9999 0.0141 -0.0022
vn 0.0000 -0.9316 -0.3635
vn 0.0000 0.9883 -0.1527
vn -0.9995 -0.0284 -0.0111
vn 0.9999 0.0122 -0.0090
vn -0.9999 0.0136 0.0002
vn -0.9999 0.0135 -0.0006
vn -0.9999 0.0136 -0.0003
vn 0.0000 -1.0000 0.0000
vn 0.0000 -0.9512 -0.3086
vn 0.0000 -0.7971 0.6038
vn 0.0000 0.9999 0.0172
vn -0.0000 0.9991 -0.0424
vn -0.0000 0.9998 -0.0190
vn -0.9997 -0.0262 0.0000
vn -0.9997 -0.0251 -0.0081
vn -0.9992 -0.0324 0.0245
vn 0.9999 -0.0169 0.0000
vn 0.9999 0.0134 0.0002
vn 0.9998 0.0166 -0.0126
vn 0.9999 0.0128 0.0042
vn 0.9997 0.0247 -0.0007
vn 0.9997 0.0246 -0.0005
vn 0.9997 0.0245 -0.0010
vn 0.9997 0.0248 0.0006
vn 0.9999 0.0134 -0.0002
vn -0.9999 0.0137 -0.0004
vn 0.0000 -0.9976 -0.0691
vn 0.0000 0.9865 -0.1640
vn -0.9997 -0.0262 -0.0004
usemtl Plank
s off
f 12/1/1 35/2/1 4/3/1
f 12/4/2 4/5/2 8/6/2 15/7/2
f 18/8/3 28/9/3 6/10/3
f 18/8/4 6/10/4 2/11/4 11/12/4
f 22/13/5 25/14/5 5/15/5 1/16/5
f 28/9/6 23/17/6 2/18/6 6/10/6
f 5/15/7 20/19/7 9/20/7 1/21/7
f 20/19/8 19/22/8 10/23/8 9/20/8
f 19/22/9 18/8/9 11/12/9 10/23/9
f 25/14/10 20/19/10 5/15/10
f 48/24/11 19/22/11 20/19/11 47/25/11
f 18/8/12 19/22/12 48/24/12 49/26/12
f 3/27/13 14/28/13 17/29/13 7/30/13
f 14/28/14 13/31/14 16/32/14 17/29/14
f 13/31/15 12/4/15 15/7/15 16/32/15
f 39/33/16 14/34/16 3/35/16
f 11/36/17 54/37/17 53/38/17 10/39/17
f 1/40/18 9/41/18 22/42/18
f 29/43/19 9/41/19 21/44/19
f 51/45/20 47/25/20 20/19/20 26/46/20
f 31/47/21 20/19/21 25/14/21
f 46/48/22 50/49/22 24/50/22 27/51/22
f 32/52/23 30/53/23 23/17/23 28/9/23
f 45/54/24 51/45/24 26/46/24 21/55/24
f 29/56/25 31/47/25 25/14/25 22/13/25
f 49/26/26 46/48/26 27/51/26 18/8/26
f 18/8/27 32/52/27 28/9/27
f 11/36/28 2/57/28 23/58/28
f 11/36/29 30/59/29 24/60/29
f 11/36/30 23/58/30 30/59/30
f 18/8/31 27/51/31 32/52/31
f 21/55/32 26/46/32 31/47/32 29/56/32
f 27/51/33 24/50/33 30/53/33 32/52/33
f 26/46/34 20/19/34 31/47/34
f 22/42/35 9/41/35 29/43/35
f 15/7/36 8/6/36 42/61/36
f 15/7/37 42/61/37 43/62/37
f 15/7/38 43/62/38 44/63/38
f 3/64/39 7/30/39 38/65/39 39/66/39
f 39/66/40 38/65/40 37/67/40 40/68/40
f 40/68/41 37/67/41 36/69/41 41/70/41
f 8/6/42 4/71/42 35/72/42 42/61/42
f 42/61/43 35/72/43 34/73/43 43/62/43
f 43/62/44 34/73/44 33/74/44 44/63/44
f 7/30/45 17/29/45 38/65/45
f 38/65/46 17/29/46 37/67/46
f 37/67/47 17/29/47 36/69/47
f 16/32/11 48/24/11 47/25/11 17/29/11
f 15/7/12 49/26/12 48/24/12 16/32/12
f 12/1/17 13/75/17 53/38/17 54/37/17
f 53/38/48 13/75/48 14/34/48 52/76/48
f 45/77/49 52/76/49 14/34/49 41/78/49
f 41/78/50 14/34/50 40/79/50
f 40/79/51 14/34/51 39/33/51
f 54/37/52 50/80/52 33/81/52 12/1/52
f 12/1/53 33/81/53 34/82/53
f 12/1/54 34/82/54 35/2/54
f 11/36/55 24/60/55 50/80/55 54/37/55
f 21/44/56 9/41/56 52/76/56 45/77/56
f 10/39/48 53/38/48 52/76/48 9/41/48
f 15/7/57 44/63/57 46/48/57 49/26/57
f 41/70/58 36/69/58 51/45/58 45/54/58
f 44/63/59 33/74/59 50/49/59 46/48/59
f 36/69/60 17/29/60 47/25/60 51/45/60
g Plank03
v 0.001353 -0.001002 -0.554175
v 0.002247 0.998998 -0.553896
v 0.001353 -0.001002 -0.410009
v 0.002247 1.004877 -0.410287
v -0.018196 -0.001002 -0.554175
v -0.019090 0.998998 -0.553896
v -0.018196 -0.001002 -0.410009
v -0.019090 1.004877 -0.410287
v -0.002982 0.248998 -0.553588
v 0.001353 0.498998 -0.553896
v 0.004735 0.748998 -0.555744
v 0.004735 0.748998 -0.408439
v 0.001353 0.498998 -0.410287
v -0.002982 0.248998 -0.410595
v -0.018488 0.748998 -0.408439
v -0.018196 0.498998 -0.410287
v -0.024724 0.248998 -0.410595
v -0.018488 0.748998 -0.555744
v -0.018196 0.498998 -0.553896
v -0.024724 0.248998 -0.553588
v 0.001353 0.001002 -0.438842
v 0.001353 -0.001002 -0.467675
v 0.001353 -0.001002 -0.473567
v 0.001353 0.001002 -0.525341
v 0.002247 0.998846 -0.525174
v 0.002247 1.001350 -0.473511
v 0.002247 0.999376 -0.467731
v 0.002247 1.003701 -0.439009
v -0.018196 0.001002 -0.525341
v -0.018196 -0.001002 -0.473567
v -0.018196 -0.001002 -0.467675
v -0.018196 0.001002 -0.438842
v -0.019090 1.003701 -0.439009
v -0.019090 0.999376 -0.467731
v -0.019090 1.001350 -0.473511
v -0.019090 0.998846 -0.525174
v -0.024724 0.248998 -0.473450
v -0.018196 0.498998 -0.473511
v -0.018488 0.748998 -0.473881
v -0.002982 0.248998 -0.473450
v 0.001353 0.498998 -0.473511
v 0.004735 0.748998 -0.473881
vt 0.8748 0.6365
vt 0.9007 0.8526
vt 0.8764 0.8536
vt 0.8743 0.6530
vt 0.8707 0.8705
vt 0.8526 0.8703
vt 0.8546 0.6530
vt 0.7297 0.6526
vt 0.7548 0.8642
vt 0.7305 0.8641
vt 0.7124 0.8641
vt 0.7100 0.6525
vt 0.7575 0.0012
vt 0.7573 0.0179
vt 0.7328 0.0165
vt 0.7335 0.0002
vt 0.7542 0.8822
vt 0.7302 0.8819
vt 0.7328 0.2283
vt 0.7144 0.2282
vt 0.7162 0.0160
vt 0.7318 0.4404
vt 0.7152 0.4405
vt 0.8718 0.0162
vt 0.8724 0.2287
vt 0.8540 0.2286
vt 0.8552 0.0165
vt 0.8704 0.4409
vt 0.8538 0.4408
vt 0.9007 0.0019
vt 0.8767 0.2123
vt 0.8762 0.0002
vt 0.9982 0.4244
vt 0.9998 0.6365
vt 0.9303 0.6365
vt 0.9300 0.4244
vt 0.8764 0.4244
vt 0.9980 0.2123
vt 0.9300 0.2123
vt 0.9985 0.0002
vt 0.9740 0.0019
vt 0.9301 0.0002
vt 0.9251 0.0002
vt 0.8001 0.4406
vt 0.7991 0.6528
vt 0.8007 0.2285
vt 0.8306 0.0178
vt 0.8061 0.0166
vt 0.8013 0.0166
vt 0.8514 0.8886
vt 0.8268 0.8869
vt 0.8283 0.8690
vt 0.8022 0.8844
vt 0.8037 0.8659
vt 0.7974 0.8842
vt 0.7985 0.8665
vt 0.8546 0.0002
vt 0.8306 0.0011
vt 0.8063 0.0003
vt 0.8011 0.0003
vt 0.9982 0.8486
vt 0.9738 0.8485
vt 0.9300 0.8506
vt 0.9251 0.8489
vn 1.0000 0.0097 -0.0004
vn 0.0000 0.0072 1.0000
vn -1.0000 -0.0024 -0.0000
vn 0.0000 0.0074 -1.0000
vn 0.0000 -0.9976 0.0693
vn 0.0000 1.0000 0.0053
vn 0.0000 0.0023 -1.0000
vn 0.0000 -0.0012 -1.0000
vn 0.0000 -0.0074 -1.0000
vn -0.9997 -0.0261 0.0018
vn 0.0000 0.0023 1.0000
vn 0.0000 -0.0012 1.0000
vn 0.0000 -0.0074 1.0000
vn 0.9998 0.0173 0.0012
vn 0.9999 -0.0135 0.0000
vn 0.9998 -0.0173 0.0000
vn 0.9998 0.0173 -0.0012
vn 0.9998 0.0174 0.0003
vn 0.9998 0.0173 0.0000
vn 0.9998 0.0176 -0.0012
vn -1.0000 -0.0012 0.0000
vn -0.9997 0.0261 0.0000
vn -0.9997 -0.0261 -0.0018
vn -0.9996 -0.0265 0.0018
vn -0.9997 -0.0261 0.0000
vn -0.9997 -0.0262 -0.0004
vn 0.0000 0.9992 -0.0409
vn 0.0000 0.9889 -0.1489
vn 0.0000 0.9463 0.3232
vn 0.0000 0.9988 -0.0484
vn 0.0000 -0.9976 -0.0693
vn 0.0000 -1.0000 0.0000
vn 0.0000 -0.9993 -0.0387
vn -1.0000 -0.0024 0.0001
vn -1.0000 -0.0023 0.0003
vn -1.0000 -0.0024 -0.0001
vn 1.0000 0.0100 0.0001
vn 1.0000 0.0099 -0.0002
vn 1.0000 0.0099 0.0003
vn 1.0000 0.0096 -0.0014
usemtl Plank
s off
f 66/83/61 82/84/61 58/85/61
f 66/86/62 58/87/62 62/88/62 69/89/62
f 72/90/63 90/91/63 60/92/63
f 72/90/64 60/92/64 56/93/64 65/94/64
f 78/95/65 83/96/65 59/97/65 55/98/65
f 90/91/66 79/99/66 56/100/66 60/92/66
f 59/97/67 74/101/67 63/102/67 55/103/67
f 74/101/68 73/104/68 64/105/68 63/102/68
f 73/104/69 72/90/69 65/94/69 64/105/69
f 83/96/70 74/101/70 59/97/70
f 57/106/71 68/107/71 71/108/71 61/109/71
f 68/107/72 67/110/72 70/111/72 71/108/72
f 67/110/73 66/86/73 69/89/73 70/111/73
f 75/112/74 68/113/74 57/114/74
f 64/115/75 65/116/75 96/117/75 95/118/75
f 95/118/75 96/117/75 66/83/75 67/119/75
f 63/120/76 64/115/76 95/118/76 94/121/76
f 94/121/76 95/118/76 67/119/76 68/113/76
f 55/122/77 63/120/77 78/123/77
f 78/123/78 63/120/78 94/121/78 77/124/78
f 77/124/79 94/121/79 68/113/79 76/125/79
f 76/125/80 68/113/80 75/112/80
f 92/126/81 93/127/81 72/90/81 73/104/81
f 70/111/82 92/126/82 91/128/82 71/108/82
f 69/89/81 93/127/81 92/126/81 70/111/81
f 91/128/82 92/126/82 73/104/82 74/101/82
f 61/109/83 71/108/83 86/129/83
f 86/129/84 71/108/84 85/130/84
f 85/130/85 71/108/85 91/128/85 84/131/85
f 84/131/86 91/128/86 74/101/86 83/96/86
f 62/88/87 58/132/87 82/133/87 87/134/87
f 87/134/88 82/133/88 81/135/88 88/136/88
f 88/136/89 81/135/89 80/137/89 89/138/89
f 89/138/90 80/137/90 79/99/90 90/91/90
f 57/139/91 61/109/91 86/129/91 75/140/91
f 75/140/65 86/129/65 85/130/65 76/141/65
f 76/141/92 85/130/92 84/131/92 77/142/92
f 77/142/93 84/131/93 83/96/93 78/95/93
f 69/89/94 62/88/94 87/134/94
f 69/89/95 87/134/95 88/136/95
f 69/89/96 88/136/96 89/138/96 93/127/96
f 93/127/63 89/138/63 90/91/63 72/90/63
f 65/116/97 56/143/97 79/144/97
f 65/116/98 79/144/98 80/145/98 96/117/98
f 96/117/99 80/145/99 81/146/99 66/83/99
f 66/83/100 81/146/100 82/84/100
g Plank01
v -0.007531 -0.002731 0.441488
v -0.006637 1.095842 0.429537
v -0.007531 -0.002731 0.603529
v -0.006637 1.102300 0.615481
v -0.018196 -0.002731 0.441488
v -0.019090 1.095842 0.429537
v -0.018196 -0.002731 0.603529
v -0.019090 1.102300 0.615481
v -0.011208 0.271912 0.450145
v -0.006555 0.546555 0.445796
v 0.000267 0.821199 0.434464
v 0.000267 0.821199 0.610554
v -0.006555 0.546555 0.612642
v -0.011208 0.271912 0.607735
v -0.022904 0.821199 0.610554
v -0.019173 0.546555 0.612642
v -0.025382 0.271912 0.607735
v -0.022904 0.821199 0.434464
v -0.019173 0.546555 0.445796
v -0.025382 0.271912 0.450145
v -0.007531 -0.000442 0.544330
v -0.007531 -0.002731 0.528565
v -0.006637 1.097995 0.518870
v -0.006637 1.100147 0.545493
v -0.018196 -0.002731 0.528565
v -0.018196 -0.000442 0.544330
v -0.019090 1.100147 0.545493
v -0.019090 1.097995 0.518870
v -0.025382 0.271912 0.530659
v -0.019173 0.546555 0.530290
v -0.022904 0.821199 0.527882
v -0.011208 0.271912 0.530659
v -0.006555 0.546555 0.530290
v 0.000267 0.821199 0.527882
v -0.007531 0.002731 0.534375
v -0.006637 1.090491 0.536447
v -0.018196 0.002731 0.534375
v -0.019090 1.090491 0.536447
v -0.007531 -0.001571 0.492295
v -0.007531 0.000986 0.485027
v -0.007531 -0.002731 0.466665
v -0.019090 1.097456 0.487848
v -0.019090 1.096918 0.474204
v -0.019090 1.090578 0.462060
v -0.006637 1.090578 0.462060
v -0.006637 1.096918 0.474204
v -0.006637 1.097456 0.487848
v -0.018196 -0.002731 0.466665
v -0.018196 0.000986 0.485027
v -0.018196 -0.001571 0.492295
vt 0.4003 0.6992
vt 0.4530 0.9364
vt 0.3936 0.9376
vt 0.3931 0.7107
vt 0.3870 0.9460
vt 0.3766 0.9460
vt 0.3736 0.7107
vt 0.2246 0.7098
vt 0.2463 0.9382
vt 0.2187 0.9419
vt 0.2081 0.9417
vt 0.2050 0.7091
vt 0.2537 0.0008
vt 0.2531 0.0096
vt 0.2318 0.0094
vt 0.2320 0.0002
vt 0.2459 0.9488
vt 0.2198 0.9517
vt 0.2392 0.2430
vt 0.2272 0.2430
vt 0.2227 0.0095
vt 0.2348 0.4769
vt 0.2241 0.4766
vt 0.3800 0.0089
vt 0.3855 0.2432
vt 0.3734 0.2433
vt 0.3710 0.0093
vt 0.3874 0.4775
vt 0.3767 0.4774
vt 0.4641 0.0027
vt 0.4078 0.2332
vt 0.4139 0.0002
vt 0.4011 0.4661
vt 0.4732 0.2339
vt 0.4710 0.4669
vt 0.4705 0.6999
vt 0.5083 0.0022
vt 0.5415 0.2346
vt 0.4775 0.0009
vt 0.4725 0.0055
vt 0.3035 0.7102
vt 0.3066 0.4771
vt 0.3076 0.2431
vt 0.3206 0.0111
vt 0.3117 0.0127
vt 0.3058 0.0101
vt 0.3759 0.9565
vt 0.3171 0.9527
vt 0.3183 0.9438
vt 0.3092 0.9387
vt 0.3084 0.9494
vt 0.2943 0.9522
vt 0.2938 0.9427
vt 0.3706 0.0002
vt 0.3202 0.0024
vt 0.3120 0.0031
vt 0.3060 0.0020
vt 0.5497 0.7008
vt 0.5019 0.9347
vt 0.4756 0.9348
vt 0.4607 0.9283
vt 0.5514 0.9338
vt 0.5238 0.9291
vt 0.5135 0.9343
vt 0.5514 0.0017
vt 0.5300 0.0015
vt 0.5144 0.0045
vt 0.5426 0.4676
vt 0.2754 0.0110
vt 0.2689 0.0120
vt 0.2677 0.9524
vt 0.2682 0.9422
vt 0.2561 0.9512
vt 0.2571 0.9417
vt 0.2753 0.0023
vt 0.2692 0.0027
vn 0.9997 0.0246 -0.0008
vn 0.0000 -0.0175 0.9998
vn -0.9999 0.0139 0.0023
vn 0.0000 -0.0179 -0.9998
vn 0.0000 -1.0000 0.0000
vn 0.0000 0.9872 0.1598
vn 0.0000 0.0315 -0.9995
vn 0.0000 -0.0158 -0.9999
vn 0.0000 -0.0412 -0.9991
vn -0.9997 -0.0262 0.0000
vn 0.0000 -0.0153 0.9999
vn 0.0000 -0.0179 0.9998
vn 0.0000 0.0076 1.0000
vn 0.9999 0.0134 0.0005
vn 0.9999 -0.0169 0.0000
vn 0.9997 -0.0248 0.0000
vn 0.9999 0.0134 0.0001
vn 0.9999 0.0126 0.0040
vn -0.9999 -0.0136 0.0000
vn -0.9997 0.0226 0.0000
vn -0.9997 -0.0261 -0.0010
vn -0.9996 -0.0267 0.0018
vn 0.0000 0.9995 -0.0307
vn 0.0000 0.9197 0.3926
vn 0.0000 -0.9993 -0.0386
vn 0.0000 -0.7286 0.6850
vn -0.9999 0.0136 -0.0004
vn -0.9999 0.0141 0.0011
vn 0.9997 0.0250 -0.0001
vn 0.9996 0.0198 -0.0211
vn 0.9997 0.0256 0.0019
vn -0.9999 0.0109 -0.0117
vn 0.0000 -0.9528 -0.3037
vn 0.0000 0.6836 -0.7298
vn -0.9997 -0.0246 -0.0078
vn 0.9999 0.0136 -0.0009
vn 0.9997 0.0252 0.0041
vn 0.9995 0.0271 -0.0141
vn 0.9997 0.0252 -0.0010
vn 0.9999 0.0134 0.0000
vn 0.9999 0.0132 -0.0027
vn 0.9999 0.0142 0.0050
vn -0.9997 -0.0262 -0.0003
vn -0.9996 -0.0278 -0.0098
vn -0.9997 -0.0258 0.0052
vn 0.0000 0.9998 -0.0173
vn 0.0000 0.9992 -0.0394
vn 0.0000 0.8864 -0.4628
vn 0.0000 -0.9995 -0.0320
vn 0.0000 -0.9433 -0.3320
vn 0.0000 -0.9801 0.1984
vn -0.9999 0.0138 -0.0001
vn -0.9999 0.0139 -0.0005
vn -0.9999 0.0150 -0.0078
usemtl Plank
s off
f 108/147/101 120/148/101 100/149/101
f 108/150/102 100/151/102 104/152/102 111/153/102
f 114/154/103 140/155/103 102/156/103
f 114/154/104 102/156/104 98/157/104 107/158/104
f 137/159/105 144/160/105 101/161/105 97/162/105
f 140/155/106 141/163/106 98/164/106 102/156/106
f 101/161/107 116/165/107 105/166/107 97/167/107
f 116/165/108 115/168/108 106/169/108 105/166/108
f 115/168/109 114/154/109 107/158/109 106/169/109
f 144/160/110 116/165/110 101/161/110
f 99/170/111 110/171/111 113/172/111 103/173/111
f 110/171/112 109/174/112 112/175/112 113/172/112
f 109/174/113 108/150/113 111/153/113 112/175/113
f 117/176/114 110/177/114 99/178/114
f 109/179/115 110/177/115 128/180/115 129/181/115
f 129/181/116 130/182/116 108/147/116 109/179/116
f 135/183/117 105/184/117 128/180/117 118/185/117
f 131/186/118 110/177/118 117/176/118
f 111/153/119 127/187/119 126/188/119 112/175/119
f 112/175/120 126/188/120 125/189/120 113/172/120
f 103/173/121 113/172/121 122/190/121
f 133/191/122 113/172/122 125/189/122 121/192/122
f 104/152/123 100/193/123 120/194/123 123/195/123
f 134/196/124 132/197/124 119/198/124 124/199/124
f 99/200/125 103/173/125 122/190/125 117/201/125
f 131/202/126 133/191/126 121/192/126 118/203/126
f 111/153/127 104/152/127 123/195/127
f 111/153/128 134/196/128 124/199/128 127/187/128
f 107/204/129 143/205/129 119/206/129 130/182/129
f 108/147/130 132/207/130 120/148/130
f 130/182/131 119/206/131 132/207/131 108/147/131
f 111/153/132 123/195/132 134/196/132
f 117/201/133 122/190/133 133/191/133 131/202/133
f 123/195/134 120/194/134 132/197/134 134/196/134
f 122/190/135 113/172/135 133/191/135
f 118/185/136 128/180/136 110/177/136 131/186/136
f 107/204/137 98/208/137 141/209/137
f 107/204/138 141/209/138 142/210/138
f 107/204/139 142/210/139 143/205/139
f 97/211/140 105/184/140 137/212/140
f 137/212/141 105/184/141 136/213/141
f 136/213/142 105/184/142 135/183/142
f 106/214/115 129/181/115 128/180/115 105/184/115
f 107/204/116 130/182/116 129/181/116 106/214/116
f 115/168/119 126/188/119 127/187/119 114/154/119
f 126/188/120 115/168/120 116/165/120 125/189/120
f 121/192/143 125/189/143 116/165/143 146/215/143
f 146/215/144 116/165/144 145/216/144
f 145/216/145 116/165/145 144/160/145
f 124/199/146 119/198/146 143/217/146 138/218/146
f 138/218/147 143/217/147 142/219/147 139/220/147
f 139/220/148 142/219/148 141/163/148 140/155/148
f 118/203/149 121/192/149 146/215/149 135/221/149
f 135/221/150 146/215/150 145/216/150 136/222/150
f 136/222/151 145/216/151 144/160/151 137/159/151
f 127/187/152 124/199/152 138/218/152 114/154/152
f 114/154/153 138/218/153 139/220/153
f 114/154/154 139/220/154 140/155/154
