# Blender v2.78 (sub 0) OBJ File: 'Graveyard.blend'
# www.blender.org
mtllib Sand.mtl
g Sand
v -1.000696 0.000000 1.000000
v 0.842391 0.000000 0.844952
v -1.000696 0.000000 -1.000000
v 0.791892 0.000000 -0.790337
v -1.000696 0.000000 0.000000
v -0.000696 0.000000 0.993050
v 0.999304 0.000000 0.000000
v -0.000696 0.000000 -0.800663
v -0.000696 0.507518 0.000000
v -1.000696 0.000000 0.500000
v 0.405569 0.000000 0.891603
v 0.972275 0.000000 -0.475728
v -0.500696 0.000000 -0.880922
v -1.000696 0.000000 -0.500000
v -0.500696 0.000000 1.000000
v 0.968832 0.000000 0.473818
v 0.485645 0.000000 -0.844765
v -0.000696 0.337303 -0.495964
v -0.000696 0.420923 0.500000
v -0.500696 0.334732 0.000000
v 0.499304 0.357767 0.000000
v 0.499304 0.435884 0.500000
v -0.500696 0.097412 0.500000
v -0.500696 0.199180 -0.492194
v 0.520519 0.229174 -0.491525
v -1.000696 0.000000 0.750000
v 0.592391 0.000000 0.844952
v 0.882239 0.000000 -0.633222
v -0.750696 0.000000 -0.961180
v -1.000696 0.000000 -0.250000
v -0.250696 0.000000 1.000000
v 0.999304 0.000000 0.250000
v 0.266894 0.000000 -0.834799
v -0.000696 0.171252 -0.649652
v -0.000696 0.458970 0.250000
v -0.750696 0.171107 0.000000
v 0.249304 0.355308 0.000000
v -1.000696 0.000000 0.250000
v 0.218746 0.000000 0.938253
v 1.000696 0.000000 -0.250000
v -0.250696 0.000000 -0.800663
v -1.000696 0.000000 -0.750000
v -0.750696 0.000000 1.000000
v 0.905741 0.000000 0.659517
v 0.637809 0.000000 -0.836613
v -0.000696 0.425654 -0.250000
v -0.000696 0.209919 0.750000
v -0.250696 0.425654 0.000000
v 0.749304 0.076862 0.000000
v 0.499304 0.392225 0.250000
v 0.436322 0.105467 0.673922
v 0.249304 0.468070 0.500000
v 0.730793 0.214244 0.484519
v -0.500696 0.296106 0.250000
v -0.500696 0.072023 0.750000
v -0.750696 0.022441 0.500000
v -0.250696 0.309383 0.500000
v -0.500696 0.016333 -0.664305
v -0.500696 0.200093 -0.250000
v -0.750696 0.016333 -0.500000
v -0.250696 0.200093 -0.474680
v 0.519866 0.145129 -0.657291
v 0.499304 0.268768 -0.250000
v 0.249304 0.353325 -0.500000
v 0.756098 0.039826 -0.459984
v 0.754755 0.183929 -0.250000
v 0.249304 0.407435 -0.250000
v 0.263588 0.097602 -0.656814
v -0.250696 0.391744 -0.250000
v -0.750696 0.144554 -0.250000
v -0.750696 0.024676 -0.730457
v -0.250696 0.144554 0.750000
v -0.750696 0.010069 0.750000
v -0.750696 0.144554 0.250000
v 0.658085 0.062022 0.661906
v 0.249304 0.303963 0.726683
v 0.249304 0.438471 0.250000
v 0.749304 0.241113 0.250000
v -0.250696 0.391744 0.250000
v -0.250696 0.144554 -0.644892
v 0.680684 0.038141 -0.631055
vt 0.5240 0.8873
vt 0.5828 0.8965
vt 0.5531 0.9747
vt 0.5068 0.9926
vt 0.2554 0.8466
vt 0.3260 0.8565
vt 0.3192 0.9726
vt 0.2437 0.9553
vt 0.2959 0.4269
vt 0.3537 0.4429
vt 0.3477 0.5389
vt 0.2906 0.5297
vt 0.5311 0.4561
vt 0.6174 0.4580
vt 0.6222 0.5775
vt 0.5562 0.5749
vt 0.4085 0.4555
vt 0.4646 0.4599
vt 0.4661 0.5639
vt 0.4091 0.5573
vt 0.4203 0.2609
vt 0.4796 0.2323
vt 0.4601 0.3694
vt 0.4121 0.3628
vt 0.5313 0.2487
vt 0.5948 0.2684
vt 0.6097 0.3543
vt 0.5285 0.3549
vt 0.1607 0.3824
vt 0.2331 0.4089
vt 0.2281 0.5175
vt 0.1524 0.5009
vt 0.1710 0.1361
vt 0.2377 0.1587
vt 0.2262 0.2699
vt 0.1603 0.2521
vt 0.3030 0.1877
vt 0.3654 0.2143
vt 0.3605 0.3461
vt 0.3011 0.3180
vt 0.0966 0.8737
vt 0.1745 0.8645
vt 0.1640 0.9810
vt 0.0817 0.9999
vt 0.1377 0.6194
vt 0.2058 0.6382
vt 0.1974 0.7480
vt 0.1117 0.7533
vt 0.2840 0.6328
vt 0.3431 0.6419
vt 0.3356 0.7530
vt 0.2625 0.7589
vt 0.3985 0.8949
vt 0.4696 0.8802
vt 0.4619 0.9999
vt 0.3976 0.9974
vt 0.4007 0.6569
vt 0.4676 0.6785
vt 0.4667 0.7914
vt 0.3942 0.7601
vt 0.5351 0.6883
vt 0.6174 0.7011
vt 0.6102 0.8165
vt 0.5488 0.8059
vt 0.0576 0.5979
vt 0.0393 0.7225
vt 0.0705 0.4744
vt 0.0198 0.8530
vt 0.0001 0.9906
vt 0.2470 0.0389
vt 0.3118 0.0564
vt 0.3754 0.0746
vt 0.1050 0.1170
vt 0.0941 0.2347
vt 0.1159 0.0001
vt 0.1816 0.0194
vt 0.0846 0.3541
vt 0.4775 0.1294
vt 0.5236 0.1589
vt 0.5864 0.1803
vt 0.4295 0.1091
vn 0.3440 0.8993 -0.2698
vn 0.1600 0.9806 -0.1133
vn 0.1236 0.9811 -0.1486
vn 0.2597 0.9019 -0.3451
vn -0.1646 0.8036 -0.5719
vn -0.0601 0.7213 -0.6899
vn 0.0084 0.7379 -0.6749
vn -0.1051 0.8254 -0.5546
vn -0.3594 0.9032 0.2346
vn -0.0872 0.9925 0.0852
vn 0.0327 0.9983 -0.0474
vn -0.3366 0.9401 -0.0535
vn 0.6258 0.7719 -0.1123
vn 0.6093 0.7884 -0.0840
vn 0.5007 0.8648 -0.0381
vn 0.5502 0.8316 -0.0751
vn 0.1311 0.9857 -0.1054
vn 0.3868 0.9063 -0.1701
vn 0.4017 0.9028 -0.1538
vn 0.2473 0.9629 -0.1079
vn 0.1569 0.6814 0.7148
vn 0.3466 0.6664 0.6601
vn 0.4211 0.8308 0.3638
vn 0.0839 0.9380 0.3363
vn 0.2770 0.8160 0.5073
vn 0.3247 0.8645 0.3836
vn 0.5910 0.7563 0.2805
vn 0.5546 0.7371 0.3861
vn -0.4440 0.8643 0.2364
vn -0.4425 0.8472 0.2939
vn -0.4451 0.8919 -0.0794
vn -0.5008 0.8643 -0.0456
vn -0.1179 0.9905 0.0701
vn -0.2505 0.9374 0.2419
vn -0.3934 0.8554 0.3370
vn -0.2533 0.9451 0.2062
vn -0.2522 0.8437 0.4738
vn -0.1392 0.7541 0.6417
vn -0.2187 0.9043 0.3666
vn -0.3865 0.8269 0.4085
vn -0.0735 0.9904 -0.1167
vn -0.1446 0.9199 -0.3645
vn -0.0367 0.9758 -0.2155
vn -0.0067 0.9976 -0.0682
vn -0.4167 0.8872 -0.1981
vn -0.3965 0.8710 -0.2901
vn -0.2959 0.8715 -0.3911
vn -0.2596 0.9421 -0.2120
vn -0.3353 0.8780 -0.3415
vn -0.0496 0.9619 -0.2690
vn -0.1338 0.8242 -0.5503
vn -0.2721 0.8284 -0.4895
vn 0.0279 0.7394 -0.6727
vn 0.2662 0.8031 -0.5330
vn 0.1006 0.8512 -0.5151
vn -0.0233 0.8084 -0.5882
vn 0.2593 0.9554 -0.1416
vn 0.4574 0.8810 -0.1209
vn 0.4131 0.8147 -0.4069
vn 0.1698 0.8472 -0.5034
vn 0.5018 0.8588 -0.1032
vn 0.4465 0.8932 -0.0525
vn 0.3168 0.9215 -0.2245
vn 0.3948 0.8840 -0.2503
vn -0.4207 0.8959 -0.1428
vn -0.1928 0.9749 -0.1115
vn -0.5338 0.8456 0.0000
vn -0.0619 0.9979 -0.0186
vn -0.0432 0.9977 -0.0512
vn -0.1276 0.9516 0.2795
vn -0.1155 0.8643 0.4896
vn -0.0564 0.7458 0.6638
vn -0.0425 0.9988 0.0224
vn -0.1892 0.9737 0.1268
vn -0.0201 0.9996 0.0201
vn -0.0710 0.9933 0.0908
vn -0.4257 0.8944 0.1368
vn 0.3683 0.7364 0.5675
vn 0.1434 0.9300 0.3383
vn 0.1220 0.9709 0.2061
vn 0.2114 0.6556 0.7248
usemtl Sand
s 1
f 81/1/1 28/2/2 4/3/3 45/4/4
f 80/5/5 34/6/6 8/7/7 41/8/8
f 79/9/9 35/10/10 9/11/11 48/12/12
f 78/13/13 32/14/14 7/15/15 49/16/16
f 77/17/17 50/18/18 21/19/19 37/20/20
f 76/21/21 51/22/22 22/23/23 52/24/24
f 75/25/25 44/26/26 16/27/27 53/28/28
f 74/29/29 54/30/30 20/31/31 36/32/32
f 73/33/33 55/34/34 23/35/35 56/36/36
f 72/37/37 47/38/38 19/39/39 57/40/40
f 71/41/41 58/42/42 13/43/43 29/44/44
f 70/45/45 59/46/46 24/47/47 60/48/48
f 69/49/49 46/50/50 18/51/51 61/52/52
f 68/53/53 62/54/54 17/55/55 33/56/56
f 67/57/57 63/58/58 25/59/59 64/60/60
f 66/61/61 40/62/62 12/63/63 65/64/64
f 63/58/58 66/61/61 65/64/64 25/59/59
f 21/19/19 49/16/16 66/61/61 63/58/58
f 49/16/16 7/15/15 40/62/62 66/61/61
f 46/50/50 67/57/57 64/60/60 18/51/51
f 9/11/11 37/20/20 67/57/57 46/50/50
f 37/20/20 21/19/19 63/58/58 67/57/57
f 34/6/6 68/53/53 33/56/56 8/7/7
f 18/51/51 64/60/60 68/53/53 34/6/6
f 64/60/60 25/59/59 62/54/54 68/53/53
f 59/46/46 69/49/49 61/52/52 24/47/47
f 20/31/31 48/12/12 69/49/49 59/46/46
f 48/12/12 9/11/11 46/50/50 69/49/49
f 30/65/65 70/45/45 60/48/48 14/66/66
f 5/67/67 36/32/32 70/45/45 30/65/65
f 36/32/32 20/31/31 59/46/46 70/45/45
f 42/68/68 71/41/41 29/44/44 3/69/69
f 14/66/66 60/48/48 71/41/41 42/68/68
f 60/48/48 24/47/47 58/42/42 71/41/41
f 55/34/34 72/37/37 57/40/40 23/35/35
f 15/70/70 31/71/71 72/37/37 55/34/34
f 31/71/71 6/72/72 47/38/38 72/37/37
f 26/73/73 73/33/33 56/36/36 10/74/74
f 1/75/75 43/76/76 73/33/33 26/73/73
f 43/76/76 15/70/70 55/34/34 73/33/33
f 38/77/77 74/29/29 36/32/32 5/67/67
f 10/74/74 56/36/36 74/29/29 38/77/77
f 56/36/36 23/35/35 54/30/30 74/29/29
f 51/22/22 75/25/25 53/28/28 22/23/23
f 11/78/78 27/79/79 75/25/25 51/22/22
f 27/79/79 2/80/80 44/26/26 75/25/25
f 47/38/38 76/21/21 52/24/24 19/39/39
f 6/72/72 39/81/81 76/21/21 47/38/38
f 39/81/81 11/78/78 51/22/22 76/21/21
f 35/10/10 77/17/17 37/20/20 9/11/11
f 19/39/39 52/24/24 77/17/17 35/10/10
f 52/24/24 22/23/23 50/18/18 77/17/17
f 50/18/18 78/13/13 49/16/16 21/19/19
f 22/23/23 53/28/28 78/13/13 50/18/18
f 53/28/28 16/27/27 32/14/14 78/13/13
f 54/30/30 79/9/9 48/12/12 20/31/31
f 23/35/35 57/40/40 79/9/9 54/30/30
f 57/40/40 19/39/39 35/10/10 79/9/9
f 58/42/42 80/5/5 41/8/8 13/43/43
f 24/47/47 61/52/52 80/5/5 58/42/42
f 61/52/52 18/51/51 34/6/6 80/5/5
f 62/54/54 81/1/1 45/4/4 17/55/55
f 25/59/59 65/64/64 81/1/1 62/54/54
f 65/64/64 12/63/63 28/2/2 81/1/1
