# Blender v2.78 (sub 0) OBJ File: 'Graveyard.blend'
# www.blender.org
mtllib Tombstone02.mtl
g Tombstone02
v -0.386330 1.500000 0.090754
v -0.386330 1.500000 -0.090754
v 0.386330 1.500000 0.090754
v 0.386330 1.500000 -0.090754
v -0.467822 0.343277 0.090754
v -0.467822 0.343277 -0.090754
v 0.467822 0.343277 -0.090754
v 0.467822 0.343277 0.090754
v -0.538259 0.000000 -0.145732
v -0.538259 0.000000 0.145732
v 0.538259 0.000000 -0.145732
v 0.538259 0.000000 0.145732
v -0.466695 0.386590 0.090754
v -0.466695 0.386590 -0.090754
v 0.466695 0.386590 -0.090754
v 0.466695 0.386590 0.090754
v -0.467822 0.423497 0.090754
v -0.467822 0.423497 -0.090754
v 0.467822 0.423497 -0.090754
v 0.467822 0.423497 0.090754
v -0.414216 0.719041 0.090754
v -0.414216 1.141166 0.090754
v -0.414216 1.141166 -0.090754
v -0.414216 0.719041 -0.090754
v 0.414216 1.141166 -0.090754
v 0.414216 0.719041 -0.090754
v 0.414216 1.141166 0.090754
v 0.414216 0.719041 0.090754
v -0.467822 0.630553 -0.090754
v 0.467822 0.630553 -0.090754
v 0.467822 0.630553 0.090754
v -0.467822 0.630553 0.090754
v -0.467822 1.229654 0.090754
v -0.467822 1.229654 -0.090754
v 0.467822 1.229654 -0.090754
v 0.467822 1.229654 0.090754
v -0.467822 1.379207 0.090754
v -0.467822 1.379207 -0.090754
v 0.467822 1.379207 -0.090754
v 0.467822 1.379207 0.090754
v -0.439303 1.439604 0.090754
v -0.439303 1.439604 -0.090754
v 0.439303 1.439604 -0.090754
v 0.439303 1.439604 0.090754
v -0.198691 1.570828 0.090754
v -0.198691 1.570828 -0.090754
v 0.198691 1.570828 -0.090754
v 0.198691 1.570828 0.090754
v -0.082802 1.624579 0.090754
v -0.082802 1.624579 -0.090754
v 0.082802 1.624579 -0.090754
v 0.082802 1.624579 0.090754
v -0.538259 0.323576 -0.145732
v 0.538259 0.323576 -0.145732
v 0.538259 0.323576 0.145732
v -0.538259 0.323576 0.145732
v -0.439303 1.439604 0.090754
v -0.386330 1.500000 0.090754
v -0.466695 0.386590 -0.090754
v -0.467822 0.343277 -0.090754
v -0.467822 0.343277 -0.090754
v 0.466695 0.386590 -0.090754
v 0.467822 0.343277 -0.090754
v 0.467822 0.343277 -0.090754
v 0.466695 0.386590 0.090754
v 0.467822 0.343277 0.090754
v 0.467822 0.343277 0.090754
v -0.467822 0.343277 0.090754
v -0.467822 0.343277 0.090754
v -0.538259 0.323576 -0.145732
v -0.538259 0.323576 -0.145732
v -0.538259 0.000000 -0.145732
v 0.538259 0.323576 -0.145732
v 0.538259 0.323576 -0.145732
v 0.538259 0.000000 -0.145732
v 0.538259 0.323576 0.145732
v 0.538259 0.323576 0.145732
v 0.538259 0.000000 0.145732
v -0.466695 0.386590 0.090754
v -0.467822 0.423497 -0.090754
v 0.467822 0.423497 -0.090754
v 0.467822 0.423497 0.090754
v -0.467822 0.423497 0.090754
v -0.467822 0.630553 -0.090754
v -0.467822 0.630553 -0.090754
v 0.467822 0.630553 -0.090754
v 0.467822 0.630553 -0.090754
v 0.467822 0.630553 0.090754
v 0.467822 0.630553 0.090754
v -0.467822 0.630553 0.090754
v -0.467822 0.630553 0.090754
v -0.414216 0.719041 0.090754
v -0.414216 0.719041 0.090754
v -0.414216 1.141166 0.090754
v -0.414216 1.141166 0.090754
v -0.467822 1.229654 -0.090754
v -0.467822 1.229654 -0.090754
v -0.414216 1.141166 -0.090754
v -0.414216 1.141166 -0.090754
v -0.414216 0.719041 -0.090754
v -0.414216 0.719041 -0.090754
v 0.467822 1.229654 -0.090754
v 0.467822 1.229654 -0.090754
v 0.414216 1.141166 -0.090754
v 0.414216 1.141166 -0.090754
v 0.414216 0.719041 -0.090754
v 0.414216 0.719041 -0.090754
v 0.467822 1.229654 0.090754
v 0.467822 1.229654 0.090754
v 0.414216 1.141166 0.090754
v 0.414216 1.141166 0.090754
v 0.414216 0.719041 0.090754
v 0.414216 0.719041 0.090754
v -0.467822 1.229654 0.090754
v -0.467822 1.229654 0.090754
v -0.467822 1.379207 -0.090754
v 0.467822 1.379207 -0.090754
v 0.467822 1.379207 0.090754
v -0.467822 1.379207 0.090754
v -0.439303 1.439604 -0.090754
v 0.439303 1.439604 -0.090754
v 0.439303 1.439604 0.090754
v -0.386330 1.500000 -0.090754
v 0.386330 1.500000 -0.090754
v 0.386330 1.500000 0.090754
v 0.198691 1.570828 0.090754
v -0.198691 1.570828 0.090754
v 0.198691 1.570828 -0.090754
v -0.198691 1.570828 -0.090754
v -0.082802 1.624579 -0.090754
v 0.082802 1.624579 -0.090754
v 0.082802 1.624579 0.090754
v -0.082802 1.624579 0.090754
v -0.538259 0.000000 0.145732
v -0.538259 0.323576 0.145732
v -0.538259 0.323576 0.145732
vt 0.1346 0.7477
vt 0.1684 0.7477
vt 0.1684 0.8240
vt 0.1346 0.8240
vt 0.4437 0.4759
vt 0.4215 0.5014
vt 0.0968 0.5024
vt 0.0744 0.4771
vt 0.5477 0.8240
vt 0.5139 0.8240
vt 0.5139 0.7477
vt 0.5477 0.7477
vt 0.9110 0.4610
vt 0.8888 0.4864
vt 0.5640 0.4864
vt 0.5418 0.4610
vt 0.8099 0.5161
vt 0.6429 0.5161
vt 0.0298 0.5867
vt 0.4231 0.5867
vt 0.4527 0.6113
vt 0.0002 0.6113
vt 0.1227 0.9605
vt 0.0996 0.9912
vt 0.0233 0.9912
vt 0.0002 0.9605
vt 0.8186 0.7477
vt 0.8493 0.7708
vt 0.8493 0.8471
vt 0.8186 0.8702
vt 0.9230 0.0002
vt 0.9225 0.0184
vt 0.5303 0.0184
vt 0.5298 0.0002
vt 0.9823 0.5867
vt 0.9823 0.6049
vt 0.9060 0.6049
vt 0.9060 0.5867
vt 0.4542 0.0151
vt 0.4538 0.0333
vt 0.0615 0.0346
vt 0.0610 0.0164
vt 0.9998 0.0002
vt 0.9998 0.0184
vt 0.9235 0.0184
vt 0.9235 0.0002
vt 0.9230 0.0340
vt 0.5298 0.0340
vt 0.9823 0.6205
vt 0.9060 0.6205
vt 0.4543 0.0488
vt 0.0611 0.0501
vt 0.9998 0.0340
vt 0.9235 0.0340
vt 0.9230 0.1210
vt 0.9005 0.1582
vt 0.5523 0.1582
vt 0.5298 0.1210
vt 0.9005 0.3356
vt 0.5523 0.3356
vt 0.9823 0.7075
vt 0.9823 0.7510
vt 0.9060 0.7510
vt 0.9060 0.7075
vt 0.9823 0.7510
vt 0.9823 0.9284
vt 0.9060 0.9284
vt 0.9060 0.7510
vt 0.4546 0.1359
vt 0.4322 0.1731
vt 0.0840 0.1742
vt 0.0614 0.1371
vt 0.4327 0.3505
vt 0.0846 0.3516
vt 0.9998 0.1210
vt 0.9998 0.1645
vt 0.9235 0.1645
vt 0.9235 0.1210
vt 0.9998 0.1645
vt 0.9998 0.3419
vt 0.9235 0.3419
vt 0.9235 0.1645
vt 0.9998 0.1210
vt 0.9235 0.1210
vt 0.9823 0.7075
vt 0.9060 0.7075
vt 0.9230 0.3727
vt 0.5298 0.3727
vt 0.6821 0.8240
vt 0.6386 0.8240
vt 0.6386 0.7477
vt 0.6821 0.7477
vt 0.4554 0.3876
vt 0.0622 0.3889
vt 0.0002 0.7477
vt 0.0437 0.7477
vt 0.0437 0.8240
vt 0.0002 0.8240
vt 0.9230 0.4356
vt 0.5298 0.4356
vt 0.6386 0.8240
vt 0.5758 0.8240
vt 0.5758 0.7477
vt 0.6386 0.7477
vt 0.4556 0.4505
vt 0.0624 0.4518
vt 0.0437 0.7477
vt 0.1066 0.7477
vt 0.1066 0.8240
vt 0.0437 0.8240
vt 0.4297 0.7477
vt 0.4297 0.8240
vt 0.3760 0.8240
vt 0.3760 0.7477
vt 0.3427 0.5314
vt 0.1757 0.5319
vt 0.2527 0.7477
vt 0.2527 0.8240
vt 0.3064 0.8240
vt 0.3064 0.7477
vt 0.7612 0.5387
vt 0.6916 0.5387
vt 0.2941 0.5541
vt 0.2245 0.5544
vt 0.6826 0.7477
vt 0.8186 0.7477
vt 0.8186 0.8702
vt 0.6826 0.8702
vt 0.0002 0.7473
vt 0.0002 0.6113
vt 0.4527 0.6113
vt 0.4527 0.7473
vt 0.1227 0.8245
vt 0.1227 0.9605
vt 0.0002 0.9605
vt 0.0002 0.8245
vt 0.9056 0.5867
vt 0.9056 0.7227
vt 0.4531 0.7227
vt 0.4531 0.5867
vt 0.8759 0.7473
vt 0.4827 0.7473
vt 0.4531 0.7227
vt 0.9056 0.7227
vn -0.8361 0.5485 0.0000
vn -0.5694 0.8220 0.0000
vn 0.0000 0.0000 -1.0000
vn 0.8361 0.5485 0.0000
vn 0.5694 0.8220 0.0000
vn 0.0000 0.0000 1.0000
vn -0.1310 0.9746 -0.1814
vn 0.1310 0.9746 -0.1814
vn 0.1578 0.9763 -0.1477
vn -0.1578 0.9763 -0.1477
vn 0.1310 0.9746 0.1814
vn 0.1578 0.9763 0.1477
vn -0.1578 0.9763 0.1477
vn -0.1310 0.9746 0.1814
vn 0.9996 0.0260 0.0000
vn 1.0000 -0.0022 0.0000
vn -0.9996 0.0260 0.0000
vn -1.0000 -0.0022 0.0000
vn 0.9999 -0.0153 0.0000
vn -0.9999 -0.0153 0.0000
vn 0.8553 0.5181 0.0000
vn 1.0000 0.0000 0.0000
vn -0.8553 0.5181 0.0000
vn -1.0000 0.0000 0.0000
vn 0.8553 -0.5181 0.0000
vn -0.8553 -0.5181 0.0000
vn 0.9758 0.2188 0.0000
vn -0.9758 0.2188 0.0000
vn 0.3872 0.9220 0.0000
vn 0.2154 0.9765 0.0000
vn -0.3872 0.9220 0.0000
vn -0.2154 0.9765 0.0000
usemtl Tombstone02
s 1
f 57/1/1 58/2/2 123/3/2 42/4/1
f 120/5/3 2/6/3 124/7/3 43/8/3
f 121/9/4 4/10/5 125/11/5 44/12/4
f 122/13/6 3/14/6 1/15/6 41/16/6
f 1/15/6 3/14/6 48/17/6 45/18/6
f 61/19/7 64/20/8 74/21/9 71/22/10
f 74/23/9 64/24/8 67/25/11 77/26/12
f 135/27/13 69/28/14 61/29/7 71/30/10
f 66/31/6 65/32/6 79/33/6 68/34/6
f 63/35/15 62/36/16 16/37/16 8/38/15
f 60/39/3 59/40/3 15/41/3 7/42/3
f 5/43/17 13/44/18 14/45/18 6/46/17
f 65/32/6 82/47/6 83/48/6 79/33/6
f 62/36/16 81/49/19 20/50/19 16/37/16
f 59/40/3 80/51/3 19/52/3 15/41/3
f 13/44/18 17/53/20 18/54/20 14/45/18
f 89/55/6 112/56/6 92/57/6 90/58/6
f 112/56/6 110/59/6 94/60/6 92/57/6
f 87/61/21 107/62/21 113/63/21 31/64/21
f 106/65/22 105/66/22 111/67/22 28/68/22
f 85/69/3 100/70/3 26/71/3 86/72/3
f 100/70/3 98/73/3 25/74/3 26/71/3
f 32/75/23 93/76/23 101/77/23 29/78/23
f 21/79/24 95/80/24 99/81/24 24/82/24
f 17/53/20 91/83/24 84/84/24 18/54/20
f 80/51/3 85/69/3 86/72/3 19/52/3
f 81/49/19 30/85/22 88/86/22 20/50/19
f 82/47/6 89/55/6 90/58/6 83/48/6
f 110/59/6 108/87/6 114/88/6 94/60/6
f 104/89/25 102/90/25 109/91/25 27/92/25
f 98/73/3 96/93/3 35/94/3 25/74/3
f 22/95/26 115/96/26 97/97/26 23/98/26
f 108/87/6 118/99/6 119/100/6 114/88/6
f 103/101/22 117/102/27 40/103/27 36/104/22
f 96/93/3 116/105/3 39/106/3 35/94/3
f 33/107/24 37/108/28 38/109/28 34/110/24
f 118/99/6 122/13/6 41/16/6 119/100/6
f 117/102/27 121/9/4 44/12/4 40/103/27
f 116/105/3 120/5/3 43/8/3 39/106/3
f 37/108/28 57/1/1 42/4/1 38/109/28
f 126/111/29 47/112/29 131/113/30 132/114/30
f 125/11/5 4/10/5 47/112/29 126/111/29
f 124/7/3 2/6/3 46/115/3 128/116/3
f 123/3/2 58/2/2 127/117/31 129/118/31
f 131/113/30 130/119/32 133/120/32 132/114/30
f 129/118/31 127/117/31 133/120/32 130/119/32
f 45/18/6 48/17/6 52/121/6 49/122/6
f 128/116/3 46/115/3 50/123/3 51/124/3
f 134/125/24 136/126/24 70/127/24 72/128/24
f 9/129/3 53/130/3 73/131/3 75/132/3
f 11/133/22 54/134/22 76/135/22 78/136/22
f 12/137/6 55/138/6 56/139/6 10/140/6
f 67/141/11 69/142/14 135/143/13 77/144/12
