# Blender v2.78 (sub 0) OBJ File: 'Graveyard.blend'
# www.blender.org
mtllib Tombstone03.mtl
g Tombstone03
v -0.573148 0.133434 0.070240
v -0.523539 2.013699 0.070240
v -0.573148 0.133434 -0.070240
v -0.523539 2.013699 -0.070240
v 0.573148 0.133434 0.070240
v 0.523539 2.013699 0.070240
v 0.573148 0.133434 -0.070240
v 0.523539 2.013699 -0.070240
v -0.629544 0.133434 -0.123247
v -0.629544 0.133434 0.123247
v 0.629544 0.133434 -0.123247
v 0.629544 0.133434 0.123247
v -0.629544 0.000000 -0.123247
v -0.629544 0.000000 0.123247
v 0.629544 0.000000 -0.123247
v 0.629544 0.000000 0.123247
v 0.000000 0.000000 0.123247
v 0.000000 0.000000 -0.123247
v 0.000000 0.133434 0.123247
v 0.000000 0.133434 -0.123247
v 0.000000 2.299780 0.070240
v 0.000000 0.133434 0.070240
v 0.000000 2.299780 -0.070240
v 0.000000 0.133434 -0.070240
v -0.573148 0.133434 -0.070240
v -0.573148 0.133434 -0.070240
v -0.573148 0.133434 0.070240
v -0.573148 0.133434 0.070240
v -0.523539 2.013699 0.070240
v -0.523539 2.013699 0.070240
v -0.523539 2.013699 -0.070240
v -0.523539 2.013699 -0.070240
v 0.573148 0.133434 0.070240
v 0.573148 0.133434 0.070240
v 0.573148 0.133434 -0.070240
v 0.573148 0.133434 -0.070240
v 0.523539 2.013699 -0.070240
v 0.523539 2.013699 -0.070240
v 0.523539 2.013699 0.070240
v 0.523539 2.013699 0.070240
v -0.629544 0.133434 -0.123247
v -0.629544 0.133434 -0.123247
v -0.629544 0.133434 0.123247
v -0.629544 0.133434 0.123247
v 0.000000 0.133434 0.123247
v 0.629544 0.133434 0.123247
v 0.629544 0.133434 0.123247
v 0.629544 0.133434 -0.123247
v 0.629544 0.133434 -0.123247
v 0.000000 0.133434 -0.123247
v 0.000000 2.299780 0.070240
v 0.000000 2.299780 0.070240
v 0.000000 0.133434 0.070240
v 0.629544 0.000000 0.123247
v 0.629544 0.000000 -0.123247
v -0.629544 0.000000 0.123247
v -0.629544 0.000000 -0.123247
v 0.000000 2.299780 -0.070240
v 0.000000 2.299780 -0.070240
v 0.000000 0.133434 -0.070240
vt 0.6972 0.9139
vt 0.4858 0.9139
vt 0.4650 0.8944
vt 0.6972 0.8944
vt 0.0716 0.9843
vt 0.0197 0.9843
vt 0.0002 0.9635
vt 0.0911 0.9635
vt 0.0911 0.9635
vt 0.0002 0.9635
vt 0.0002 0.9143
vt 0.0911 0.9143
vt 0.7384 0.0002
vt 0.7384 0.7993
vt 0.5453 0.6938
vt 0.5270 0.0002
vt 0.6972 0.8944
vt 0.4650 0.8944
vt 0.4650 0.8451
vt 0.6972 0.8451
vt 0.9506 0.9361
vt 0.9506 0.8451
vt 0.9998 0.8451
vt 0.9998 0.9361
vt 0.2324 0.8647
vt 0.4646 0.8647
vt 0.4646 0.9139
vt 0.2324 0.9139
vt 0.9298 0.9165
vt 0.9298 0.8647
vt 0.9506 0.8451
vt 0.9506 0.9361
vt 0.2634 0.7993
vt 0.4565 0.6938
vt 0.4814 0.7393
vt 0.2883 0.8448
vt 0.0703 0.6938
vt 0.0185 0.6951
vt 0.0002 0.0015
vt 0.0520 0.0002
vt 0.2324 0.8451
vt 0.4438 0.8451
vt 0.4646 0.8647
vt 0.2324 0.8647
vt 0.2634 0.0002
vt 0.2634 0.7993
vt 0.0703 0.6938
vt 0.0520 0.0002
vt 0.9498 0.0002
vt 0.9315 0.6938
vt 0.9086 0.9139
vt 0.9294 0.8944
vt 0.0703 0.6938
vt 0.2634 0.7993
vt 0.2386 0.8448
vt 0.0454 0.7393
vt 0.4748 0.0002
vt 0.4565 0.6938
vt 0.5266 0.0015
vt 0.5083 0.6951
vt 0.4565 0.6938
vt 0.4748 0.0002
vt 0.9294 0.8944
vt 0.9294 0.8451
vt 0.0002 0.8647
vt 0.0002 0.9139
vt 0.0210 0.8451
vt 0.0002 0.8647
vn 0.0000 1.0000 0.0000
vn 1.0000 0.0000 0.0000
vn 0.0000 0.0000 1.0000
vn -1.0000 0.0000 0.0000
vn 0.0000 0.0000 -1.0000
vn -0.4795 0.8775 0.0000
vn 0.9996 0.0264 0.0000
vn 0.4795 0.8775 0.0000
vn -0.9996 0.0264 0.0000
usemtl Tombstone03
s 1
f 53/1/1 27/2/1 44/3/1 45/4/1
f 35/5/1 33/6/1 46/7/1 48/8/1
f 11/9/2 47/10/2 54/11/2 15/12/2
f 22/13/3 51/14/3 30/15/3 28/16/3
f 19/17/3 10/18/3 56/19/3 17/20/3
f 43/21/4 41/22/4 57/23/4 14/24/4
f 50/25/5 49/26/5 55/27/5 18/28/5
f 27/29/1 25/30/1 42/31/1 44/32/1
f 58/33/6 31/34/6 29/35/6 52/36/6
f 37/37/7 39/38/7 34/39/7 36/40/7
f 60/41/1 35/42/1 48/43/1 20/44/1
f 24/45/5 59/46/5 38/47/5 7/48/5
f 5/49/3 40/50/3 51/14/3 22/13/3
f 33/51/1 53/1/1 45/4/1 46/52/1
f 8/53/8 23/54/8 21/55/8 6/56/8
f 26/57/5 32/58/5 59/46/5 24/45/5
f 1/59/9 2/60/9 4/61/9 3/62/9
f 12/63/3 19/17/3 17/20/3 16/64/3
f 9/65/5 50/25/5 18/28/5 13/66/5
f 25/67/1 60/41/1 20/44/1 42/68/1
