# Blender v2.78 (sub 0) OBJ File: 'Graveyard.blend'
# www.blender.org
mtllib Tombstone06.mtl
g Tombstone06
v -0.443662 0.000000 0.443662
v -0.344435 0.169106 0.344435
v -0.443662 0.000000 -0.443662
v -0.344435 0.169106 -0.344435
v 0.443662 0.000000 0.443662
v 0.344435 0.169106 0.344435
v 0.443662 0.000000 -0.443662
v 0.344435 0.169106 -0.344435
v -0.443662 0.169106 0.443662
v -0.443662 0.169106 -0.443662
v 0.443662 0.169106 -0.443662
v 0.443662 0.169106 0.443662
v -0.247601 0.397112 0.247601
v -0.247601 0.397112 -0.247601
v 0.247601 0.397112 -0.247601
v 0.247601 0.397112 0.247601
v -0.344435 0.397112 0.344435
v -0.344435 0.397112 -0.344435
v 0.344435 0.397112 -0.344435
v 0.344435 0.397112 0.344435
v -0.123153 0.648124 0.123153
v -0.123153 0.648124 -0.123153
v 0.123153 0.648124 -0.123153
v 0.123153 0.648124 0.123153
v -0.247601 0.648124 0.247601
v -0.247601 0.648124 -0.247601
v 0.247601 0.648124 -0.247601
v 0.247601 0.648124 0.247601
v -0.123153 1.712163 0.123153
v -0.123153 1.712163 -0.123153
v 0.123153 1.712163 -0.123153
v 0.123153 1.712163 0.123153
v -0.123153 1.954355 0.123153
v -0.123153 1.954355 -0.123153
v 0.123153 1.954355 -0.123153
v 0.123153 1.954355 0.123153
v -0.123153 2.267711 0.123153
v -0.123153 2.267711 -0.123153
v 0.123153 2.267711 -0.123153
v 0.123153 2.267711 0.123153
v -0.439849 1.712163 0.123153
v -0.439849 1.712163 -0.123153
v 0.439849 1.712163 -0.123153
v 0.439849 1.712163 0.123153
v -0.439849 1.954355 0.123153
v -0.439849 1.954355 -0.123153
v 0.439849 1.954355 -0.123153
v 0.439849 1.954355 0.123153
vt 0.9998 0.0002
vt 0.9998 0.0478
vt 0.7502 0.0478
vt 0.7502 0.0002
vt 0.4998 0.0002
vt 0.4998 0.0478
vt 0.2502 0.0478
vt 0.2502 0.0002
vt 0.7498 0.0002
vt 0.7498 0.0478
vt 0.5002 0.0478
vt 0.5002 0.0002
vt 0.2498 0.0002
vt 0.2498 0.0478
vt 0.0002 0.0478
vt 0.0002 0.0002
vt 0.5281 0.0757
vt 0.7219 0.0757
vt 0.7219 0.1398
vt 0.5281 0.1398
vt 0.9719 0.0757
vt 0.7781 0.0757
vt 0.4719 0.0757
vt 0.2781 0.0757
vt 0.2219 0.0757
vt 0.0281 0.0757
vt 0.5553 0.1671
vt 0.6947 0.1671
vt 0.6947 0.2377
vt 0.5553 0.2377
vt 0.9719 0.1398
vt 0.7781 0.1398
vt 0.2219 0.1398
vt 0.0281 0.1398
vt 0.4719 0.1398
vt 0.2781 0.1398
vt 0.9447 0.1671
vt 0.8053 0.1671
vt 0.4447 0.1671
vt 0.3053 0.1671
vt 0.1947 0.1671
vt 0.0553 0.1671
vt 0.0904 0.2727
vt 0.1596 0.2727
vt 0.1596 0.5720
vt 0.0904 0.5720
vt 0.9447 0.2377
vt 0.8053 0.2377
vt 0.1947 0.2377
vt 0.0553 0.2377
vt 0.4447 0.2377
vt 0.3053 0.2377
vt 0.9096 0.2727
vt 0.8404 0.2727
vt 0.4096 0.2727
vt 0.3404 0.2727
vt 0.6596 0.2727
vt 0.5904 0.2727
vt 0.1596 0.6402
vt 0.2487 0.5720
vt 0.2487 0.6402
vt 0.4096 0.5720
vt 0.3404 0.5720
vt 0.6596 0.5720
vt 0.5904 0.5720
vt 0.9096 0.5720
vt 0.8404 0.5720
vt 0.0904 0.6402
vt 0.1596 0.7283
vt 0.0904 0.7283
vt 0.4096 0.6402
vt 0.4987 0.5720
vt 0.4987 0.6402
vt 0.3404 0.6402
vt 0.4040 0.7980
vt 0.3347 0.7980
vt 0.3347 0.7287
vt 0.4040 0.7287
vt 0.4096 0.7283
vt 0.3404 0.7283
vt 0.4921 0.7287
vt 0.4921 0.7980
vt 0.2465 0.7980
vt 0.2465 0.7287
vt 0.6494 0.7287
vt 0.6494 0.7980
vt 0.5812 0.7980
vt 0.5812 0.7287
vt 0.0893 0.7980
vt 0.0893 0.7287
vt 0.1574 0.7287
vt 0.1574 0.7980
vt 0.7385 0.7287
vt 0.7385 0.7980
vt 0.0002 0.7980
vt 0.0002 0.7287
vt 0.0013 0.6402
vt 0.0013 0.5720
vt 0.2513 0.6402
vt 0.2513 0.5720
vn -1.0000 0.0000 0.0000
vn 0.0000 0.0000 -1.0000
vn 1.0000 0.0000 0.0000
vn 0.0000 0.0000 1.0000
vn 0.0000 1.0000 0.0000
vn 0.0000 -1.0000 0.0000
usemtl Tombstone06
s off
f 1/1/1 9/2/1 10/3/1 3/4/1
f 3/5/2 10/6/2 11/7/2 7/8/2
f 7/9/3 11/10/3 12/11/3 5/12/3
f 5/13/4 12/14/4 9/15/4 1/16/4
f 6/17/3 8/18/3 19/19/3 20/20/3
f 2/21/5 4/22/5 10/3/5 9/2/5
f 4/23/5 8/24/5 11/7/5 10/6/5
f 8/18/5 6/17/5 12/11/5 11/10/5
f 6/25/5 2/26/5 9/15/5 12/14/5
f 16/27/3 15/28/3 27/29/3 28/30/3
f 4/22/1 2/21/1 17/31/1 18/32/1
f 2/26/4 6/25/4 20/33/4 17/34/4
f 8/24/2 4/23/2 18/35/2 19/36/2
f 13/37/5 14/38/5 18/32/5 17/31/5
f 14/39/5 15/40/5 19/36/5 18/35/5
f 15/28/5 16/27/5 20/20/5 19/19/5
f 16/41/5 13/42/5 17/34/5 20/33/5
f 21/43/4 24/44/4 32/45/4 29/46/4
f 14/38/1 13/37/1 25/47/1 26/48/1
f 13/42/4 16/41/4 28/49/4 25/50/4
f 15/40/2 14/39/2 26/51/2 27/52/2
f 21/53/5 22/54/5 26/48/5 25/47/5
f 22/55/5 23/56/5 27/52/5 26/51/5
f 23/57/5 24/58/5 28/30/5 27/29/5
f 24/44/5 21/43/5 25/50/5 28/49/5
f 36/59/4 32/45/4 44/60/4 48/61/4
f 23/56/2 22/55/2 30/62/2 31/63/2
f 24/58/3 23/57/3 31/64/3 32/65/3
f 22/54/1 21/53/1 29/66/1 30/67/1
f 33/68/4 36/59/4 40/69/4 37/70/4
f 34/71/2 30/62/2 42/72/2 46/73/2
f 29/46/4 32/45/4 36/59/4 33/68/4
f 31/63/2 30/62/2 34/71/2 35/74/2
f 39/75/5 38/76/5 37/77/5 40/78/5
f 35/74/2 34/71/2 38/79/2 39/80/2
f 36/81/3 35/82/3 39/75/3 40/78/3
f 34/83/1 33/84/1 37/77/1 38/76/1
f 44/85/3 43/86/3 47/87/3 48/88/3
f 42/89/1 41/90/1 45/91/1 46/92/1
f 32/93/6 31/94/6 43/86/6 44/85/6
f 30/95/6 29/96/6 41/90/6 42/89/6
f 29/46/4 33/68/4 45/97/4 41/98/4
f 31/63/2 35/74/2 47/99/2 43/100/2
f 35/82/5 36/81/5 48/88/5 47/87/5
f 33/84/5 34/83/5 46/92/5 45/91/5
