# Blender v2.78 (sub 0) OBJ File: 'Graveyard.blend'
# www.blender.org
mtllib Tombstone07.mtl
g Tombstone07
v -0.573148 0.510303 0.070240
v -0.523539 2.013699 0.070240
v -0.573148 0.510303 -0.070240
v -0.523539 2.013699 -0.070240
v 0.573148 0.510303 0.070240
v 0.523539 2.013699 0.070240
v 0.573148 0.510303 -0.070240
v 0.523539 2.013699 -0.070240
v -0.629544 0.510303 -0.123247
v -0.629544 0.510303 0.123247
v 0.629544 0.510303 -0.123247
v 0.629544 0.510303 0.123247
v -0.629544 0.294359 -0.123247
v -0.629544 0.294359 0.123247
v 0.629544 0.294359 -0.123247
v 0.629544 0.294359 0.123247
v 0.000000 0.294359 0.123247
v 0.000000 0.294359 -0.123247
v 0.000000 0.510303 0.123247
v 0.000000 0.510303 -0.123247
v 0.000000 2.299780 0.070240
v 0.000000 0.510303 0.070240
v 0.000000 2.299780 -0.070240
v 0.000000 0.510303 -0.070240
v -0.813945 0.000000 -0.273982
v -0.813945 0.000000 0.273982
v 0.813945 0.000000 -0.273982
v 0.813945 0.000000 0.273982
v 0.000000 0.000000 0.273982
v 0.000000 0.000000 -0.273982
v -0.813945 0.275690 -0.273982
v 0.000000 0.275690 -0.273982
v -0.813945 0.275690 0.273982
v 0.000000 0.275690 0.273982
v 0.813945 0.275690 0.273982
v 0.813945 0.275690 -0.273982
v -0.573148 0.510303 -0.070240
v -0.573148 0.510303 -0.070240
v -0.573148 0.510303 0.070240
v -0.573148 0.510303 0.070240
v -0.523539 2.013699 0.070240
v -0.523539 2.013699 0.070240
v -0.523539 2.013699 -0.070240
v -0.523539 2.013699 -0.070240
v 0.573148 0.510303 0.070240
v 0.573148 0.510303 0.070240
v 0.573148 0.510303 -0.070240
v 0.573148 0.510303 -0.070240
v 0.523539 2.013699 -0.070240
v 0.523539 2.013699 -0.070240
v 0.523539 2.013699 0.070240
v 0.523539 2.013699 0.070240
v -0.629544 0.294359 0.123247
v -0.629544 0.294359 0.123247
v 0.000000 0.294359 0.123247
v 0.629544 0.294359 -0.123247
v 0.629544 0.294359 -0.123247
v 0.000000 0.294359 -0.123247
v -0.629544 0.510303 -0.123247
v -0.629544 0.510303 -0.123247
v -0.629544 0.510303 0.123247
v -0.629544 0.510303 0.123247
v 0.000000 0.510303 0.123247
v 0.629544 0.510303 0.123247
v 0.629544 0.510303 0.123247
v 0.629544 0.510303 -0.123247
v 0.629544 0.510303 -0.123247
v 0.000000 0.510303 -0.123247
v -0.629544 0.294359 -0.123247
v -0.629544 0.294359 -0.123247
v 0.000000 2.299780 0.070240
v 0.000000 2.299780 0.070240
v 0.629544 0.294359 0.123247
v 0.629544 0.294359 0.123247
v 0.000000 0.510303 0.070240
v 0.000000 2.299780 -0.070240
v 0.000000 2.299780 -0.070240
v 0.000000 0.510303 -0.070240
v 0.813945 0.275690 -0.273982
v 0.813945 0.275690 -0.273982
v 0.813945 0.000000 -0.273982
v -0.813945 0.000000 -0.273982
v -0.813945 0.275690 -0.273982
v -0.813945 0.275690 -0.273982
v -0.813945 0.000000 0.273982
v -0.813945 0.275690 0.273982
v -0.813945 0.275690 0.273982
v 0.813945 0.000000 0.273982
v 0.813945 0.275690 0.273982
v 0.813945 0.275690 0.273982
v 0.000000 0.275690 -0.273982
v 0.000000 0.275690 0.273982
vt 0.2499 0.8015
vt 0.0741 0.8014
vt 0.0568 0.7851
vt 0.2500 0.7852
vt 0.8964 0.2253
vt 0.8533 0.2253
vt 0.8370 0.2080
vt 0.9127 0.2080
vt 0.9127 0.2080
vt 0.8370 0.2080
vt 0.8370 0.1417
vt 0.9127 0.1417
vt 0.6145 0.0002
vt 0.6145 0.5494
vt 0.4538 0.4616
vt 0.4386 0.0002
vt 0.2500 0.7852
vt 0.0568 0.7851
vt 0.0568 0.7188
vt 0.2500 0.7189
vt 0.8370 0.2430
vt 0.9127 0.2430
vt 0.9127 0.3092
vt 0.8370 0.3092
vt 0.7500 0.6039
vt 0.9432 0.6039
vt 0.9432 0.6701
vt 0.7500 0.6701
vt 0.8533 0.2257
vt 0.8964 0.2257
vt 0.9127 0.2430
vt 0.8370 0.2430
vt 0.2192 0.5494
vt 0.3799 0.4616
vt 0.4005 0.4994
vt 0.2399 0.5872
vt 0.0585 0.4616
vt 0.0154 0.4630
vt 0.0002 0.0016
vt 0.0433 0.0002
vt 0.7500 0.5876
vt 0.9259 0.5876
vt 0.9432 0.6039
vt 0.7500 0.6039
vt 0.2192 0.0002
vt 0.2192 0.5494
vt 0.0585 0.4616
vt 0.0433 0.0002
vt 0.7904 0.0002
vt 0.7751 0.4616
vt 0.4258 0.8015
vt 0.4432 0.7853
vt 0.0585 0.4616
vt 0.2192 0.5494
vt 0.1985 0.5872
vt 0.0378 0.4994
vt 0.3951 0.0002
vt 0.3799 0.4616
vt 0.4382 0.0016
vt 0.4229 0.4630
vt 0.3799 0.4616
vt 0.3951 0.0002
vt 0.4432 0.7853
vt 0.4432 0.7190
vt 0.5568 0.6039
vt 0.5568 0.6701
vt 0.5741 0.5876
vt 0.5568 0.6039
vt 0.5002 0.7168
vt 0.7500 0.7168
vt 0.7500 0.8014
vt 0.5002 0.8014
vt 0.7908 0.3661
vt 0.9589 0.3661
vt 0.9589 0.4507
vt 0.7908 0.4507
vt 0.2500 0.6723
vt 0.0002 0.6722
vt 0.0002 0.5876
vt 0.2500 0.5877
vt 0.4998 0.6724
vt 0.4998 0.5878
vt 0.9998 0.7168
vt 0.9998 0.8014
vt 0.9589 0.0848
vt 0.7908 0.0848
vt 0.7908 0.0002
vt 0.9589 0.0002
vt 0.9127 0.1417
vt 0.8370 0.1417
vt 0.7908 0.0848
vt 0.9589 0.0848
vt 0.7500 0.6701
vt 0.9432 0.6701
vt 0.9998 0.7168
vt 0.7500 0.7168
vt 0.4432 0.7190
vt 0.2500 0.7189
vt 0.2500 0.6723
vt 0.4998 0.6724
vt 0.0568 0.7188
vt 0.0002 0.6722
vt 0.8370 0.3092
vt 0.9127 0.3092
vt 0.9589 0.3661
vt 0.7908 0.3661
vt 0.5568 0.6701
vt 0.5002 0.7168
vn 0.0000 1.0000 0.0000
vn 1.0000 0.0000 0.0000
vn 0.0000 0.0000 1.0000
vn -1.0000 0.0000 0.0000
vn 0.0000 0.0000 -1.0000
vn -0.4795 0.8775 0.0000
vn 0.9995 0.0330 0.0000
vn 0.4795 0.8775 0.0000
vn -0.9995 0.0330 0.0000
vn 0.0484 0.9967 -0.0642
vn 0.0484 0.9967 0.0642
vn 0.0569 0.9969 0.0539
vn 0.0569 0.9969 -0.0539
vn 0.0000 0.9924 -0.1229
vn 0.0000 0.9924 0.1229
vn -0.0484 0.9967 0.0642
vn -0.0569 0.9969 0.0539
vn -0.0484 0.9967 -0.0642
vn -0.0569 0.9969 -0.0539
usemtl Tombstone07
s 1
f 75/1/1 39/2/1 62/3/1 63/4/1
f 47/5/1 45/6/1 64/7/1 66/8/1
f 11/9/2 65/10/2 73/11/2 57/12/2
f 22/13/3 71/14/3 42/15/3 40/16/3
f 19/17/3 10/18/3 53/19/3 55/20/3
f 61/21/4 59/22/4 69/23/4 54/24/4
f 68/25/5 67/26/5 56/27/5 58/28/5
f 39/29/1 37/30/1 60/31/1 62/32/1
f 76/33/6 43/34/6 41/35/6 72/36/6
f 49/37/7 51/38/7 46/39/7 48/40/7
f 78/41/1 47/42/1 66/43/1 20/44/1
f 24/45/5 77/46/5 50/47/5 7/48/5
f 5/49/3 52/50/3 71/14/3 22/13/3
f 45/51/1 75/1/1 63/4/1 64/52/1
f 8/53/8 23/54/8 21/55/8 6/56/8
f 38/57/5 44/58/5 77/46/5 24/45/5
f 1/59/9 2/60/9 4/61/9 3/62/9
f 12/63/3 19/17/3 55/20/3 74/64/3
f 9/65/5 68/25/5 58/28/5 70/66/5
f 37/67/1 78/41/1 20/44/1 60/68/1
f 84/69/5 91/70/5 30/71/5 25/72/5
f 87/73/4 31/74/4 82/75/4 26/76/4
f 34/77/3 33/78/3 85/79/3 29/80/3
f 90/81/3 34/77/3 29/80/3 28/82/3
f 91/70/5 79/83/5 81/84/5 30/71/5
f 36/85/2 35/86/2 88/87/2 27/88/2
f 15/89/10 16/90/11 89/91/12 80/92/13
f 18/93/14 15/94/10 80/95/13 32/96/14
f 16/97/11 17/98/15 92/99/15 89/100/12
f 17/98/15 14/101/16 86/102/17 92/99/15
f 14/103/16 13/104/18 83/105/19 86/106/17
f 13/107/18 18/93/14 32/96/14 83/108/19
